<svg xmlns="http://www.w3.org/2000/svg" xmlns:xlink="http://www.w3.org/1999/xlink" width="500" zoomAndPan="magnify" viewBox="0 0 375 374.999991" height="500" preserveAspectRatio="xMidYMid meet" version="1.2"><defs><clipPath id="d4b4a738a8"><path d="M 24.636719 60.261719 L 259 60.261719 L 259 259 L 24.636719 259 Z M 24.636719 60.261719 "/></clipPath><clipPath id="c1716ee897"><path d="M 125 117 L 350.136719 117 L 350.136719 314.511719 L 125 314.511719 Z M 125 117 "/></clipPath></defs><g id="2df1562c23"><g clip-rule="nonzero" clip-path="url(#d4b4a738a8)"><path style=" stroke:none;fill-rule:nonzero;fill:#5b9940;fill-opacity:1;" d="M 90.675781 258.578125 C 89.839844 258.578125 89.003906 258.371094 88.242188 257.957031 C 86.609375 257.066406 85.589844 255.351562 85.589844 253.492188 L 85.589844 213.140625 C 47.875 198.921875 24.609375 171.761719 24.609375 141.621094 C 24.609375 119.519531 37.042969 98.871094 59.617188 83.488281 C 81.59375 68.511719 110.710938 60.261719 141.605469 60.261719 C 172.5 60.261719 201.621094 68.511719 223.609375 83.484375 C 246.195312 98.871094 258.636719 119.519531 258.636719 141.621094 C 258.636719 163.199219 246.726562 183.492188 225.101562 198.769531 C 204.453125 213.355469 176.972656 221.894531 147.585938 222.878906 L 93.429688 257.765625 C 92.59375 258.304688 91.636719 258.578125 90.675781 258.578125 Z M 141.605469 70.433594 C 82.703125 70.433594 34.78125 102.367188 34.78125 141.621094 C 34.78125 168.199219 56.839844 192.398438 92.347656 204.773438 C 94.390625 205.484375 95.761719 207.414062 95.761719 209.578125 L 95.761719 244.167969 L 142.894531 213.804688 C 143.714844 213.171875 144.738281 212.785156 145.847656 212.757812 C 173.804688 212.0625 199.863281 204.144531 219.234375 190.464844 C 238.085938 177.148438 248.464844 159.800781 248.464844 141.621094 C 248.464844 122.988281 237.605469 105.324219 217.882812 91.890625 C 197.566406 78.054688 170.476562 70.433594 141.605469 70.433594 Z M 145.976562 217.867188 L 145.980469 217.867188 Z M 145.976562 217.867188 "/></g><g clip-rule="nonzero" clip-path="url(#c1716ee897)"><path style=" stroke:none;fill-rule:nonzero;fill:#5b9940;fill-opacity:1;" d="M 283.90625 314.511719 C 282.945312 314.511719 281.988281 314.238281 281.148438 313.699219 L 227 278.8125 C 205.476562 278.089844 184.765625 273.28125 167.011719 264.867188 C 149.011719 256.335938 134.839844 244.515625 126.035156 230.683594 C 124.527344 228.3125 125.226562 225.171875 127.597656 223.664062 C 129.964844 222.15625 133.105469 222.851562 134.617188 225.222656 C 150.777344 250.609375 187.71875 267.671875 228.730469 268.691406 C 229.867188 268.71875 230.910156 269.117188 231.742188 269.769531 L 278.820312 300.101562 L 278.820312 265.566406 C 278.820312 263.40625 280.1875 261.421875 282.230469 260.707031 C 317.800781 248.316406 339.894531 224.117188 339.894531 197.554688 C 339.894531 180.773438 330.867188 164.441406 314.46875 151.566406 C 297.738281 138.429688 274.609375 129.773438 249.335938 127.1875 C 246.542969 126.902344 244.507812 124.402344 244.796875 121.609375 C 245.082031 118.816406 247.582031 116.785156 250.371094 117.070312 C 277.53125 119.847656 302.527344 129.261719 320.75 143.566406 C 339.652344 158.410156 350.066406 177.585938 350.066406 197.554688 C 350.066406 227.675781 326.761719 254.839844 288.988281 269.074219 L 288.988281 309.425781 C 288.988281 311.285156 287.972656 313 286.339844 313.890625 C 285.578125 314.304688 284.742188 314.511719 283.90625 314.511719 Z M 283.90625 314.511719 "/></g><path style=" stroke:none;fill-rule:nonzero;fill:#5b9940;fill-opacity:1;" d="M 233.054688 222.980469 L 222.886719 222.980469 C 220.078125 222.980469 217.800781 220.703125 217.800781 217.894531 C 217.800781 215.089844 220.078125 212.8125 222.886719 212.8125 L 233.054688 212.8125 C 235.863281 212.8125 238.140625 215.089844 238.140625 217.894531 C 238.140625 220.703125 235.863281 222.980469 233.054688 222.980469 Z M 233.054688 222.980469 "/><path style=" stroke:none;fill-rule:nonzero;fill:#5b9940;fill-opacity:1;" d="M 268.648438 222.980469 L 258.480469 222.980469 C 255.671875 222.980469 253.394531 220.703125 253.394531 217.894531 C 253.394531 215.089844 255.671875 212.8125 258.480469 212.8125 L 268.648438 212.8125 C 271.457031 212.8125 273.734375 215.089844 273.734375 217.894531 C 273.734375 220.703125 271.457031 222.980469 268.648438 222.980469 Z M 268.648438 222.980469 "/><path style=" stroke:none;fill-rule:nonzero;fill:#5b9940;fill-opacity:1;" d="M 299.160156 222.980469 L 288.988281 222.980469 C 286.179688 222.980469 283.90625 220.703125 283.90625 217.894531 C 283.90625 215.089844 286.179688 212.8125 288.988281 212.8125 L 299.160156 212.8125 C 301.96875 212.8125 304.246094 215.089844 304.246094 217.894531 C 304.246094 220.703125 301.96875 222.980469 299.160156 222.980469 Z M 299.160156 222.980469 "/><path style=" stroke:none;fill-rule:nonzero;fill:#5b9940;fill-opacity:1;" d="M 136.390625 167.046875 C 133.585938 167.046875 131.308594 164.769531 131.308594 161.960938 L 131.308594 161.886719 C 131.308594 150.804688 136.546875 140.414062 145.6875 133.378906 C 149.75 130.253906 151.964844 125.320312 151.609375 120.1875 C 151.089844 112.65625 145.019531 106.585938 137.484375 106.066406 C 133.195312 105.769531 129.109375 107.210938 125.988281 110.128906 C 122.859375 113.046875 121.136719 117.007812 121.136719 121.28125 C 121.136719 124.089844 118.859375 126.367188 116.050781 126.367188 C 113.246094 126.367188 110.96875 124.089844 110.96875 121.28125 C 110.96875 114.261719 113.914062 107.484375 119.046875 102.691406 C 124.253906 97.832031 131.046875 95.425781 138.183594 95.917969 C 150.753906 96.785156 160.886719 106.917969 161.753906 119.492188 C 162.34375 128.027344 158.65625 136.230469 151.890625 141.441406 C 145.273438 146.53125 141.476562 153.984375 141.476562 161.886719 L 141.476562 161.960938 C 141.476562 164.769531 139.199219 167.046875 136.390625 167.046875 Z M 136.390625 167.046875 "/><path style=" stroke:none;fill-rule:nonzero;fill:#5b9940;fill-opacity:1;" d="M 136.441406 192.472656 C 133.632812 192.472656 131.355469 190.195312 131.355469 187.386719 L 131.355469 182.300781 C 131.355469 179.492188 133.632812 177.214844 136.441406 177.214844 C 139.25 177.214844 141.527344 179.492188 141.527344 182.300781 L 141.527344 187.386719 C 141.527344 190.195312 139.25 192.472656 136.441406 192.472656 Z M 136.441406 192.472656 "/></g></svg>