<svg xmlns="http://www.w3.org/2000/svg" xmlns:xlink="http://www.w3.org/1999/xlink" width="500" zoomAndPan="magnify" viewBox="0 0 375 374.999991" height="500" preserveAspectRatio="xMidYMid meet" version="1.2"><defs><clipPath id="e038df0ca4"><path d="M 121 90.019531 L 254 90.019531 L 254 159 L 121 159 Z M 121 90.019531 "/></clipPath></defs><g id="b8534f5952"><path style=" stroke:none;fill-rule:nonzero;fill:#5b9940;fill-opacity:1;" d="M 89.828125 160.28125 C 100.683594 161.464844 110.445312 153.621094 111.625 142.765625 C 112.808594 131.90625 104.960938 122.144531 94.105469 120.964844 C 83.246094 119.78125 73.488281 127.625 72.308594 138.484375 C 71.125 149.339844 78.96875 159.101562 89.828125 160.28125 Z M 89.828125 160.28125 "/><path style=" stroke:none;fill-rule:nonzero;fill:#5b9940;fill-opacity:1;" d="M 90.746094 239.363281 L 62.253906 239.363281 C 55.554688 239.363281 49.84375 234.574219 48.671875 227.972656 L 38.925781 172.878906 C 38.261719 169.144531 34.699219 166.636719 30.972656 167.320312 C 27.238281 167.976562 24.746094 171.539062 25.40625 175.273438 L 35.164062 230.367188 C 37.496094 243.53125 48.886719 253.085938 62.253906 253.085938 L 85.910156 253.085938 L 85.910156 278.050781 C 85.910156 281.835938 88.980469 284.910156 92.769531 284.910156 C 96.558594 284.910156 99.632812 281.835938 99.632812 278.050781 L 99.632812 248.246094 C 99.632812 243.347656 95.640625 239.363281 90.746094 239.363281 Z M 90.746094 239.363281 "/><path style=" stroke:none;fill-rule:nonzero;fill:#5b9940;fill-opacity:1;" d="M 113.203125 210.523438 L 95.207031 210.523438 L 99.890625 189.121094 L 112.578125 195.242188 C 113.816406 195.839844 115.179688 196.148438 116.550781 196.148438 C 116.6875 196.148438 116.824219 196.144531 116.957031 196.140625 L 136.109375 195.28125 C 141.15625 195.054688 145.070312 190.78125 144.84375 185.734375 C 144.613281 180.691406 140.289062 176.785156 135.296875 177.003906 L 118.449219 177.757812 C 118.449219 177.757812 99.277344 167.757812 96.910156 167.199219 C 94.246094 166.574219 83.367188 164.207031 83.367188 164.207031 C 79.535156 163.375 75.605469 164.089844 72.3125 166.222656 C 69.023438 168.363281 66.769531 171.652344 65.964844 175.496094 L 57.980469 213.867188 C 57.105469 218.085938 58.15625 222.425781 60.878906 225.769531 C 63.597656 229.113281 67.628906 231.03125 71.941406 231.03125 L 103.695312 231.03125 C 105.742188 231.03125 107.402344 232.691406 107.402344 234.738281 L 107.402344 274.28125 C 107.402344 279.941406 111.988281 284.535156 117.65625 284.535156 C 123.324219 284.535156 127.910156 279.941406 127.910156 274.28125 L 127.910156 225.234375 C 127.910156 217.109375 121.324219 210.523438 113.203125 210.523438 Z M 113.203125 210.523438 "/><path style=" stroke:none;fill-rule:nonzero;fill:#5b9940;fill-opacity:1;" d="M 285.03125 160.28125 C 295.886719 159.101562 303.730469 149.339844 302.546875 138.484375 C 301.367188 127.625 291.609375 119.78125 280.753906 120.964844 C 269.894531 122.144531 262.050781 131.90625 263.230469 142.765625 C 264.410156 153.621094 274.171875 161.464844 285.03125 160.28125 Z M 285.03125 160.28125 "/><path style=" stroke:none;fill-rule:nonzero;fill:#5b9940;fill-opacity:1;" d="M 343.882812 167.320312 C 340.15625 166.636719 336.59375 169.144531 335.933594 172.878906 L 326.179688 227.972656 C 325.015625 234.574219 319.300781 239.363281 312.601562 239.363281 L 284.109375 239.363281 C 279.210938 239.363281 275.222656 243.347656 275.222656 248.246094 L 275.222656 278.050781 C 275.222656 281.835938 278.292969 284.910156 282.085938 284.910156 C 285.878906 284.910156 288.945312 281.835938 288.945312 278.050781 L 288.945312 253.085938 L 312.601562 253.085938 C 325.964844 253.085938 337.363281 243.53125 339.691406 230.367188 L 349.441406 175.273438 C 350.105469 171.539062 347.613281 167.976562 343.882812 167.320312 Z M 343.882812 167.320312 "/><path style=" stroke:none;fill-rule:nonzero;fill:#5b9940;fill-opacity:1;" d="M 313.976562 225.769531 C 316.699219 222.425781 317.753906 218.085938 316.878906 213.867188 L 308.886719 175.496094 C 308.085938 171.652344 305.835938 168.363281 302.542969 166.222656 C 299.25 164.089844 295.320312 163.375 291.488281 164.207031 C 291.488281 164.207031 280.605469 166.574219 277.945312 167.199219 C 275.578125 167.757812 256.40625 177.757812 256.40625 177.757812 L 239.558594 177.003906 C 234.558594 176.785156 230.238281 180.691406 230.011719 185.734375 C 229.785156 190.78125 233.691406 195.054688 238.742188 195.28125 L 257.894531 196.140625 C 258.03125 196.144531 258.167969 196.148438 258.304688 196.148438 C 259.675781 196.148438 261.035156 195.839844 262.273438 195.242188 L 274.964844 189.121094 L 279.648438 210.523438 L 261.65625 210.523438 C 253.53125 210.523438 246.941406 217.109375 246.941406 225.234375 L 246.941406 274.28125 C 246.941406 279.941406 251.535156 284.535156 257.195312 284.535156 C 262.855469 284.535156 267.453125 279.941406 267.453125 274.28125 L 267.453125 234.738281 C 267.453125 232.6875 269.113281 231.03125 271.160156 231.03125 L 302.914062 231.03125 C 307.222656 231.03125 311.257812 229.113281 313.976562 225.769531 Z M 313.976562 225.769531 "/><path style=" stroke:none;fill-rule:nonzero;fill:#5b9940;fill-opacity:1;" d="M 234.113281 203.007812 L 140.746094 203.007812 C 136.953125 203.007812 133.882812 206.082031 133.882812 209.871094 C 133.882812 213.65625 136.953125 216.730469 140.746094 216.730469 L 180.570312 216.730469 L 180.570312 278.046875 C 180.570312 281.835938 183.636719 284.910156 187.425781 284.910156 C 191.21875 284.910156 194.289062 281.835938 194.289062 278.046875 L 194.289062 216.730469 L 234.113281 216.730469 C 237.898438 216.730469 240.96875 213.65625 240.96875 209.871094 C 240.96875 206.082031 237.898438 203.007812 234.113281 203.007812 Z M 234.113281 203.007812 "/><path style=" stroke:none;fill-rule:nonzero;fill:#5b9940;fill-opacity:1;" d="M 212.375 130.828125 C 213.058594 131.511719 213.988281 131.894531 214.953125 131.894531 C 215.921875 131.894531 216.851562 131.511719 217.535156 130.828125 L 232.332031 116.027344 C 233.753906 114.601562 233.753906 112.292969 232.328125 110.867188 C 230.90625 109.441406 228.59375 109.441406 227.167969 110.867188 L 214.953125 123.085938 L 209.019531 117.148438 C 207.59375 115.726562 205.28125 115.726562 203.859375 117.148438 C 202.433594 118.574219 202.433594 120.886719 203.859375 122.3125 Z M 212.375 130.828125 "/><g clip-rule="nonzero" clip-path="url(#e038df0ca4)"><path style=" stroke:none;fill-rule:nonzero;fill:#5b9940;fill-opacity:1;" d="M 133.085938 142.570312 C 133.28125 144.371094 132.203125 146.304688 130.886719 148.425781 C 129.738281 150.273438 128.167969 152.804688 130.011719 155.234375 C 130.648438 156.078125 131.945312 156.707031 133 156.78125 C 133.085938 156.785156 133.183594 156.789062 133.285156 156.789062 C 136.519531 156.789062 146.957031 153.832031 152.140625 150.128906 C 154.21875 150.414062 156.296875 150.558594 158.347656 150.558594 C 170.09375 150.558594 180.578125 146.125 187.425781 139.226562 C 194.273438 146.125 204.757812 150.558594 216.503906 150.558594 C 218.566406 150.558594 220.660156 150.410156 222.75 150.121094 C 227.613281 153.867188 232.332031 156.457031 236.800781 157.84375 C 237.511719 158.0625 238.253906 158.175781 238.988281 158.175781 C 239.375 158.175781 239.761719 158.144531 240.136719 158.082031 C 242.011719 157.78125 243.683594 156.769531 244.835938 155.238281 C 246.726562 152.75 246.851562 149.445312 245.152344 146.824219 C 244.148438 145.28125 243.34375 143.605469 242.75 141.8125 C 249.828125 136.144531 253.839844 128.421875 253.839844 120.289062 C 253.839844 103.597656 237.09375 90.019531 216.503906 90.019531 C 204.757812 90.019531 194.273438 94.449219 187.425781 101.351562 C 180.578125 94.449219 170.09375 90.019531 158.347656 90.019531 C 137.761719 90.019531 121.011719 103.597656 121.011719 120.289062 C 121.011719 128.792969 125.394531 136.847656 133.089844 142.570312 Z M 191.917969 107.132812 C 197.355469 101.207031 206.339844 97.316406 216.503906 97.316406 C 233.066406 97.316406 246.542969 107.621094 246.542969 120.289062 C 246.542969 126.761719 242.882812 132.988281 236.5 137.367188 C 235.265625 138.210938 234.675781 139.722656 235.007812 141.179688 C 235.796875 144.671875 237.152344 147.90625 238.953125 150.871094 C 234.984375 149.644531 230.644531 147.140625 226.054688 143.433594 C 225.398438 142.90625 224.589844 142.621094 223.761719 142.621094 C 223.554688 142.621094 223.34375 142.640625 223.136719 142.675781 C 220.917969 143.0625 218.6875 143.257812 216.503906 143.257812 C 206.339844 143.257812 197.355469 139.367188 191.917969 133.441406 C 194.304688 129.457031 195.679688 125.003906 195.679688 120.289062 C 195.679688 115.570312 194.304688 111.117188 191.917969 107.132812 Z M 158.890625 139.992188 C 156.667969 139.992188 154.863281 138.1875 154.863281 135.960938 C 154.863281 133.738281 156.667969 131.933594 158.890625 131.933594 C 161.117188 131.933594 162.921875 133.738281 162.921875 135.960938 C 162.921875 138.1875 161.117188 139.992188 158.890625 139.992188 Z M 158.480469 101.316406 C 163.355469 101.316406 167.46875 103.699219 169.488281 107.6875 C 171.386719 111.4375 171.058594 115.820312 168.628906 119.125 C 167.054688 121.265625 165.457031 122.390625 164.289062 123.210938 C 162.964844 124.136719 162.398438 124.53125 162.238281 126.699219 C 162.171875 127.65625 161.351562 128.394531 160.390625 128.394531 L 157.496094 128.394531 C 156.414062 128.394531 155.550781 127.457031 155.636719 126.378906 C 156.035156 121.316406 158 119.523438 160.480469 117.78125 C 161.488281 117.074219 162.355469 116.464844 163.285156 115.199219 C 164.226562 113.921875 164.335938 112.191406 163.574219 110.679688 C 163.058594 109.660156 161.707031 107.945312 158.480469 107.945312 C 154.265625 107.945312 152.976562 110.601562 152.609375 112.671875 C 152.453125 113.566406 151.695312 114.226562 150.78125 114.226562 L 147.859375 114.226562 C 146.730469 114.226562 145.839844 113.226562 146 112.113281 C 146.800781 106.582031 150.78125 101.316406 158.480469 101.316406 Z M 158.480469 101.316406 "/></g></g></svg>