<svg xmlns="http://www.w3.org/2000/svg" xmlns:xlink="http://www.w3.org/1999/xlink" width="500" zoomAndPan="magnify" viewBox="0 0 375 374.999991" height="500" preserveAspectRatio="xMidYMid meet" version="1.2"><defs><clipPath id="69a278499b"><path d="M 52 35.035156 L 323.675781 35.035156 L 323.675781 340 L 52 340 Z M 52 35.035156 "/></clipPath></defs><g id="be05319ecb"><g clip-rule="nonzero" clip-path="url(#69a278499b)"><path style=" stroke:none;fill-rule:nonzero;fill:#5b9940;fill-opacity:1;" d="M 314.800781 194.398438 C 320.398438 188.8125 323.480469 181.351562 323.480469 173.398438 C 323.480469 165.449219 320.398438 157.984375 314.800781 152.390625 C 304.183594 141.769531 287.433594 140.894531 275.792969 149.769531 C 270.65625 145.84375 264.390625 143.722656 257.78125 143.722656 C 253.902344 143.722656 250.144531 144.457031 246.660156 145.855469 C 241.449219 143.335938 235.871094 141.597656 230.148438 140.703125 C 246.949219 130.84375 258.253906 112.589844 258.253906 91.746094 C 258.253906 60.476562 232.808594 35.035156 201.527344 35.035156 C 170.257812 35.035156 144.820312 60.476562 144.820312 91.746094 C 144.820312 112.585938 156.113281 130.832031 172.898438 140.691406 C 144.691406 145.066406 123.03125 169.519531 123.03125 198.933594 L 123.03125 231.855469 L 96.066406 248.257812 L 93.675781 244.507812 C 93.070312 243.5625 92.113281 242.890625 91.015625 242.648438 C 89.921875 242.40625 88.769531 242.609375 87.824219 243.214844 L 54.074219 264.75 C 52.101562 266.007812 51.519531 268.628906 52.78125 270.601562 L 95.761719 338 C 96.570312 339.265625 97.9375 339.957031 99.339844 339.957031 C 100.117188 339.957031 100.90625 339.742188 101.613281 339.292969 L 135.378906 317.757812 C 136.328125 317.15625 136.996094 316.199219 137.238281 315.101562 C 137.484375 314.003906 137.277344 312.855469 136.675781 311.90625 L 131.644531 304.023438 L 144.527344 296.191406 L 199.132812 314.246094 C 202.8125 315.464844 206.488281 316.070312 210.109375 316.070312 C 216.421875 316.070312 222.558594 314.230469 228.25 310.582031 L 292.953125 269.109375 C 301.855469 263.402344 304.464844 251.503906 298.761719 242.574219 C 294.605469 236.109375 287.191406 232.972656 280.027344 233.929688 L 280.027344 229.1875 Z M 272.792969 158.382812 C 274.445312 160.035156 277.128906 160.039062 278.785156 158.382812 C 287.070312 150.113281 300.539062 150.113281 308.808594 158.382812 C 312.804688 162.378906 315.003906 167.710938 315.003906 173.398438 C 315.003906 179.085938 312.804688 184.414062 308.808594 188.40625 L 275.789062 221.4375 L 242.769531 188.402344 C 234.5 180.132812 234.503906 166.664062 242.773438 158.378906 C 246.761719 154.394531 252.089844 152.199219 257.78125 152.199219 C 263.472656 152.199219 268.804688 154.394531 272.792969 158.382812 Z M 153.296875 91.746094 C 153.296875 65.148438 174.933594 43.511719 201.527344 43.511719 C 228.132812 43.511719 249.777344 65.148438 249.777344 91.746094 C 249.777344 118.351562 228.132812 139.996094 201.527344 139.996094 C 174.933594 139.996094 153.296875 118.351562 153.296875 91.746094 Z M 181.96875 148.46875 L 221.089844 148.46875 C 226.804688 148.46875 232.492188 149.460938 237.863281 151.359375 C 237.492188 151.691406 237.132812 152.035156 236.777344 152.390625 C 236.777344 152.390625 236.777344 152.390625 236.773438 152.390625 C 225.203125 163.980469 225.207031 182.824219 236.777344 194.398438 L 271.550781 229.1875 L 271.550781 237.222656 L 232.957031 261.964844 C 231.097656 256.320312 226.667969 251.710938 220.738281 249.75 L 152.15625 227.066406 C 145.132812 224.738281 138.097656 224.863281 131.503906 227.355469 L 131.503906 198.933594 C 131.503906 171.109375 154.140625 148.46875 181.96875 148.46875 Z M 100.628906 329.867188 L 62.203125 269.617188 L 88.808594 252.640625 L 122.097656 304.820312 C 122.105469 304.832031 122.109375 304.84375 122.117188 304.859375 C 122.136719 304.890625 122.160156 304.917969 122.179688 304.949219 L 127.246094 312.890625 Z M 291.625 247.148438 C 294.808594 252.132812 293.351562 258.785156 288.378906 261.972656 L 223.675781 303.445312 C 216.945312 307.761719 209.378906 308.710938 201.792969 306.199219 L 145.328125 287.53125 C 144.148438 287.140625 142.855469 287.289062 141.792969 287.933594 L 127.085938 296.875 L 100.628906 255.40625 L 130.417969 237.28125 C 136.402344 233.628906 142.820312 232.902344 149.496094 235.109375 L 218.078125 257.792969 C 222.546875 259.273438 225.570312 263.65625 225.421875 268.332031 C 225.386719 268.488281 225.355469 268.644531 225.339844 268.808594 C 224.925781 272.351562 222.96875 275.636719 220.234375 277.378906 C 217.695312 278.996094 214.707031 279.257812 211.351562 278.144531 L 180.105469 267.816406 C 177.882812 267.078125 175.488281 268.285156 174.753906 270.507812 C 174.019531 272.730469 175.222656 275.128906 177.445312 275.863281 L 208.6875 286.191406 C 210.890625 286.921875 213.089844 287.28125 215.230469 287.28125 C 218.652344 287.28125 221.921875 286.355469 224.789062 284.527344 C 229.167969 281.734375 232.304688 277.042969 233.433594 271.726562 L 276.808594 243.921875 C 281.785156 240.730469 288.433594 242.183594 291.625 247.148438 Z M 258.390625 182.648438 C 258.390625 180.308594 260.289062 178.410156 262.628906 178.410156 L 271.550781 178.410156 L 271.550781 169.472656 C 271.550781 167.132812 273.449219 165.234375 275.789062 165.234375 C 278.128906 165.234375 280.027344 167.132812 280.027344 169.472656 L 280.027344 178.410156 L 288.964844 178.410156 C 291.308594 178.410156 293.203125 180.308594 293.203125 182.648438 C 293.203125 184.988281 291.308594 186.886719 288.964844 186.886719 L 280.027344 186.886719 L 280.027344 195.808594 C 280.027344 198.152344 278.128906 200.046875 275.789062 200.046875 C 273.449219 200.046875 271.550781 198.152344 271.550781 195.808594 L 271.550781 186.886719 L 262.628906 186.886719 C 260.289062 186.886719 258.390625 184.992188 258.390625 182.648438 Z M 258.390625 182.648438 "/></g></g></svg>