<svg xmlns="http://www.w3.org/2000/svg" xmlns:xlink="http://www.w3.org/1999/xlink" width="500" zoomAndPan="magnify" viewBox="0 0 375 374.999991" height="500" preserveAspectRatio="xMidYMid meet" version="1.2"><g id="bceeaa6d79"><path style=" stroke:none;fill-rule:nonzero;fill:#5b9940;fill-opacity:1;" d="M 280.871094 197.78125 C 280.859375 195.714844 281.054688 193.671875 281.449219 191.644531 C 281.847656 189.621094 282.4375 187.652344 283.226562 185.746094 C 284.011719 183.835938 284.980469 182.023438 286.128906 180.308594 C 287.273438 178.59375 288.578125 177.003906 290.039062 175.546875 C 291.007812 174.578125 291.925781 173.5625 292.792969 172.503906 C 293.664062 171.441406 294.476562 170.34375 295.238281 169.203125 C 295.996094 168.0625 296.699219 166.886719 297.34375 165.679688 C 297.988281 164.46875 298.574219 163.230469 299.097656 161.964844 C 299.621094 160.699219 300.082031 159.410156 300.480469 158.097656 C 300.875 156.789062 301.207031 155.460938 301.476562 154.117188 C 301.742188 152.773438 301.941406 151.417969 302.078125 150.054688 C 302.210938 148.691406 302.277344 147.324219 302.277344 145.953125 C 302.277344 144.582031 302.210938 143.214844 302.078125 141.851562 C 301.941406 140.488281 301.742188 139.132812 301.476562 137.789062 C 301.207031 136.445312 300.875 135.117188 300.480469 133.808594 C 300.082031 132.496094 299.621094 131.207031 299.097656 129.941406 C 298.574219 128.675781 297.988281 127.4375 297.34375 126.226562 C 296.699219 125.019531 295.996094 123.84375 295.238281 122.703125 C 294.476562 121.5625 293.664062 120.464844 292.792969 119.402344 C 291.925781 118.34375 291.007812 117.328125 290.039062 116.359375 C 288.574219 114.90625 287.265625 113.320312 286.113281 111.605469 C 284.964844 109.890625 283.996094 108.078125 283.207031 106.167969 C 282.421875 104.261719 281.832031 102.292969 281.4375 100.265625 C 281.042969 98.238281 280.855469 96.191406 280.871094 94.125 C 280.863281 92.757812 280.789062 91.390625 280.648438 90.03125 C 280.507812 88.667969 280.300781 87.316406 280.027344 85.976562 C 279.753906 84.632812 279.414062 83.308594 279.011719 82 C 278.605469 80.691406 278.140625 79.40625 277.613281 78.144531 C 277.082031 76.882812 276.492188 75.648438 275.84375 74.445312 C 275.191406 73.238281 274.484375 72.070312 273.71875 70.933594 C 272.953125 69.800781 272.136719 68.703125 271.261719 67.648438 C 270.390625 66.59375 269.46875 65.582031 268.5 64.617188 C 267.527344 63.652344 266.511719 62.738281 265.449219 61.875 C 264.390625 61.007812 263.289062 60.195312 262.148438 59.441406 C 261.007812 58.683594 259.832031 57.984375 258.625 57.339844 C 257.414062 56.699219 256.175781 56.117188 254.910156 55.597656 C 253.644531 55.074219 252.355469 54.617188 251.046875 54.222656 C 249.734375 53.828125 248.410156 53.496094 247.066406 53.234375 C 245.722656 52.96875 244.367188 52.769531 243.007812 52.636719 C 241.644531 52.507812 240.277344 52.441406 238.910156 52.441406 C 236.84375 52.460938 234.796875 52.269531 232.769531 51.875 C 230.742188 51.484375 228.777344 50.890625 226.867188 50.105469 C 224.957031 49.316406 223.144531 48.347656 221.429688 47.199219 C 219.714844 46.046875 218.132812 44.738281 216.679688 43.273438 C 215.707031 42.304688 214.691406 41.386719 213.632812 40.519531 C 212.570312 39.652344 211.472656 38.835938 210.332031 38.078125 C 209.191406 37.316406 208.015625 36.613281 206.808594 35.96875 C 205.597656 35.324219 204.363281 34.738281 203.09375 34.214844 C 201.828125 33.691406 200.539062 33.230469 199.230469 32.835938 C 197.917969 32.4375 196.589844 32.105469 195.246094 31.839844 C 193.902344 31.570312 192.546875 31.371094 191.183594 31.238281 C 189.820312 31.101562 188.453125 31.035156 187.082031 31.035156 C 185.710938 31.035156 184.34375 31.101562 182.980469 31.238281 C 181.617188 31.371094 180.265625 31.570312 178.917969 31.839844 C 177.574219 32.105469 176.246094 32.4375 174.9375 32.835938 C 173.625 33.230469 172.335938 33.691406 171.070312 34.214844 C 169.804688 34.738281 168.566406 35.324219 167.355469 35.96875 C 166.148438 36.613281 164.972656 37.316406 163.832031 38.078125 C 162.691406 38.835938 161.59375 39.652344 160.53125 40.519531 C 159.472656 41.386719 158.457031 42.304688 157.488281 43.273438 C 156.03125 44.738281 154.445312 46.042969 152.730469 47.191406 C 151.015625 48.339844 149.203125 49.308594 147.292969 50.097656 C 145.386719 50.882812 143.417969 51.476562 141.390625 51.871094 C 139.367188 52.265625 137.320312 52.457031 135.257812 52.441406 C 133.886719 52.445312 132.519531 52.515625 131.15625 52.648438 C 129.792969 52.785156 128.4375 52.988281 127.09375 53.257812 C 125.75 53.523438 124.425781 53.859375 123.113281 54.257812 C 121.804688 54.65625 120.515625 55.117188 119.25 55.644531 C 117.984375 56.167969 116.746094 56.753906 115.539062 57.402344 C 114.332031 58.046875 113.15625 58.75 112.019531 59.511719 C 110.878906 60.273438 109.78125 61.089844 108.722656 61.960938 C 107.664062 62.828125 106.648438 63.75 105.679688 64.71875 C 104.710938 65.6875 103.792969 66.699219 102.921875 67.757812 C 102.054688 68.816406 101.238281 69.917969 100.476562 71.054688 C 99.714844 72.195312 99.011719 73.367188 98.363281 74.578125 C 97.71875 75.785156 97.132812 77.019531 96.605469 78.285156 C 96.082031 79.550781 95.617188 80.839844 95.21875 82.152344 C 94.820312 83.460938 94.488281 84.789062 94.21875 86.132812 C 93.949219 87.476562 93.75 88.828125 93.613281 90.191406 C 93.476562 91.554688 93.40625 92.921875 93.40625 94.292969 C 93.414062 96.359375 93.222656 98.402344 92.824219 100.429688 C 92.429688 102.453125 91.835938 104.421875 91.050781 106.328125 C 90.261719 108.238281 89.296875 110.050781 88.148438 111.765625 C 87.003906 113.480469 85.699219 115.066406 84.234375 116.523438 C 83.273438 117.496094 82.363281 118.511719 81.5 119.570312 C 80.640625 120.632812 79.832031 121.734375 79.078125 122.871094 C 78.324219 124.011719 77.628906 125.1875 76.988281 126.394531 C 76.351562 127.601562 75.773438 128.839844 75.257812 130.101562 C 74.738281 131.367188 74.285156 132.65625 73.894531 133.964844 C 73.503906 135.273438 73.175781 136.597656 72.914062 137.941406 C 72.65625 139.28125 72.460938 140.632812 72.332031 141.992188 C 72.203125 143.351562 72.140625 144.714844 72.144531 146.082031 C 72.152344 147.449219 72.222656 148.8125 72.363281 150.171875 C 72.5 151.53125 72.707031 152.878906 72.976562 154.21875 C 73.25 155.558594 73.585938 156.878906 73.984375 158.1875 C 74.386719 159.492188 74.851562 160.777344 75.375 162.039062 C 75.902344 163.296875 76.492188 164.53125 77.136719 165.734375 C 77.785156 166.9375 78.492188 168.105469 79.253906 169.238281 C 80.015625 170.375 80.832031 171.46875 81.699219 172.523438 C 82.570312 173.574219 83.488281 174.585938 84.457031 175.546875 C 85.914062 177.007812 87.214844 178.597656 88.359375 180.316406 C 89.503906 182.03125 90.46875 183.84375 91.253906 185.75 C 92.042969 187.660156 92.636719 189.625 93.035156 191.648438 C 93.433594 193.671875 93.632812 195.714844 93.628906 197.78125 C 93.625 198.988281 93.675781 200.195312 93.78125 201.402344 C 93.882812 202.605469 94.039062 203.804688 94.246094 204.996094 C 94.453125 206.1875 94.710938 207.367188 95.019531 208.539062 C 95.328125 209.707031 95.691406 210.859375 96.097656 212 C 96.507812 213.136719 96.964844 214.253906 97.472656 215.355469 C 97.980469 216.453125 98.53125 217.527344 99.132812 218.578125 C 99.730469 219.628906 100.375 220.648438 101.0625 221.644531 C 101.75 222.640625 102.480469 223.601562 103.253906 224.535156 C 104.023438 225.464844 104.835938 226.363281 105.683594 227.222656 C 106.535156 228.082031 107.417969 228.90625 108.339844 229.691406 C 109.261719 230.476562 110.214844 231.21875 111.199219 231.917969 C 112.183594 232.621094 113.199219 233.277344 114.238281 233.894531 C 115.28125 234.507812 116.347656 235.074219 117.441406 235.59375 C 118.53125 236.117188 119.644531 236.589844 120.777344 237.015625 C 121.910156 237.441406 123.058594 237.816406 124.222656 238.140625 C 125.386719 238.464844 126.5625 238.738281 127.753906 238.964844 L 85.570312 340.726562 C 85.421875 341.121094 85.324219 341.527344 85.277344 341.945312 C 85.226562 342.363281 85.226562 342.78125 85.277344 343.199219 C 85.328125 343.617188 85.429688 344.023438 85.578125 344.417969 C 85.722656 344.8125 85.917969 345.179688 86.152344 345.53125 C 86.390625 345.878906 86.664062 346.191406 86.976562 346.476562 C 87.289062 346.757812 87.628906 347 88 347.199219 C 88.367188 347.402344 88.757812 347.554688 89.164062 347.664062 C 89.570312 347.773438 89.984375 347.832031 90.40625 347.839844 L 91.40625 347.839844 L 187.222656 329.222656 L 283.039062 347.839844 L 284.039062 347.839844 C 284.820312 347.816406 285.566406 347.636719 286.273438 347.296875 C 286.980469 346.957031 287.585938 346.492188 288.09375 345.894531 C 288.421875 345.519531 288.6875 345.105469 288.890625 344.648438 C 289.097656 344.195312 289.234375 343.722656 289.304688 343.230469 C 289.375 342.738281 289.371094 342.246094 289.296875 341.753906 C 289.226562 341.261719 289.082031 340.789062 288.875 340.335938 L 246.578125 238.964844 C 247.769531 238.742188 248.949219 238.472656 250.121094 238.148438 C 251.289062 237.824219 252.441406 237.453125 253.574219 237.03125 C 254.710938 236.609375 255.828125 236.136719 256.921875 235.617188 C 258.019531 235.097656 259.089844 234.53125 260.132812 233.921875 C 261.179688 233.308594 262.199219 232.652344 263.1875 231.949219 C 264.175781 231.25 265.132812 230.507812 266.058594 229.722656 C 266.980469 228.941406 267.871094 228.117188 268.726562 227.257812 C 269.578125 226.398438 270.390625 225.5 271.167969 224.570312 C 271.945312 223.636719 272.675781 222.675781 273.371094 221.679688 C 274.0625 220.683594 274.710938 219.660156 275.3125 218.609375 C 275.914062 217.558594 276.472656 216.484375 276.980469 215.382812 C 277.492188 214.285156 277.953125 213.164062 278.367188 212.023438 C 278.777344 210.882812 279.140625 209.730469 279.453125 208.558594 C 279.765625 207.386719 280.027344 206.203125 280.238281 205.011719 C 280.445312 203.816406 280.605469 202.617188 280.710938 201.410156 C 280.816406 200.203125 280.871094 198.992188 280.871094 197.78125 Z M 238.910156 229.238281 C 236.160156 229.226562 233.433594 229.488281 230.734375 230.019531 C 228.039062 230.550781 225.417969 231.339844 222.875 232.390625 C 220.332031 233.4375 217.917969 234.726562 215.632812 236.253906 C 213.34375 237.78125 211.230469 239.519531 209.285156 241.464844 C 208.558594 242.191406 207.796875 242.886719 207 243.539062 C 206.207031 244.195312 205.378906 244.808594 204.523438 245.378906 C 203.667969 245.953125 202.785156 246.484375 201.878906 246.96875 C 200.96875 247.457031 200.039062 247.894531 199.089844 248.289062 C 198.136719 248.683594 197.167969 249.03125 196.183594 249.332031 C 195.199219 249.632812 194.199219 249.882812 193.191406 250.082031 C 192.179688 250.285156 191.164062 250.433594 190.136719 250.535156 C 189.113281 250.636719 188.085938 250.6875 187.054688 250.6875 C 186.023438 250.6875 184.996094 250.636719 183.972656 250.535156 C 182.945312 250.433594 181.929688 250.285156 180.917969 250.082031 C 179.910156 249.882812 178.910156 249.632812 177.925781 249.332031 C 176.941406 249.03125 175.972656 248.683594 175.019531 248.289062 C 174.070312 247.894531 173.140625 247.457031 172.230469 246.96875 C 171.324219 246.484375 170.441406 245.953125 169.585938 245.378906 C 168.730469 244.808594 167.902344 244.195312 167.109375 243.539062 C 166.3125 242.886719 165.550781 242.191406 164.824219 241.464844 C 162.886719 239.519531 160.777344 237.78125 158.496094 236.253906 C 156.210938 234.726562 153.800781 233.4375 151.265625 232.386719 C 148.726562 231.339844 146.109375 230.546875 143.417969 230.019531 C 140.722656 229.488281 138.003906 229.226562 135.257812 229.238281 C 134.230469 229.226562 133.210938 229.167969 132.191406 229.058594 C 131.171875 228.949219 130.160156 228.792969 129.160156 228.585938 C 128.15625 228.378906 127.164062 228.121094 126.1875 227.816406 C 125.207031 227.511719 124.246094 227.160156 123.304688 226.761719 C 122.359375 226.363281 121.4375 225.921875 120.535156 225.433594 C 119.636719 224.945312 118.761719 224.414062 117.914062 223.839844 C 117.0625 223.265625 116.246094 222.652344 115.457031 221.996094 C 114.667969 221.34375 113.914062 220.652344 113.191406 219.925781 C 112.46875 219.199219 111.785156 218.4375 111.140625 217.640625 C 110.492188 216.847656 109.886719 216.023438 109.320312 215.171875 C 108.753906 214.316406 108.230469 213.4375 107.75 212.53125 C 107.269531 211.628906 106.835938 210.703125 106.445312 209.753906 C 106.054688 208.804688 105.710938 207.84375 105.414062 206.863281 C 105.121094 205.878906 104.871094 204.886719 104.675781 203.882812 C 104.476562 202.878906 104.328125 201.867188 104.226562 200.847656 C 104.125 199.824219 104.078125 198.804688 104.078125 197.78125 C 104.085938 195.035156 103.824219 192.3125 103.296875 189.617188 C 102.765625 186.925781 101.976562 184.308594 100.925781 181.769531 C 99.875 179.234375 98.589844 176.824219 97.058594 174.542969 C 95.53125 172.257812 93.796875 170.148438 91.847656 168.210938 C 91.121094 167.484375 90.429688 166.722656 89.773438 165.925781 C 89.121094 165.132812 88.507812 164.304688 87.933594 163.449219 C 87.359375 162.59375 86.832031 161.710938 86.34375 160.804688 C 85.859375 159.898438 85.417969 158.96875 85.023438 158.015625 C 84.628906 157.0625 84.28125 156.09375 83.980469 155.109375 C 83.683594 154.125 83.433594 153.125 83.230469 152.117188 C 83.027344 151.105469 82.878906 150.089844 82.777344 149.0625 C 82.675781 148.039062 82.625 147.011719 82.625 145.980469 C 82.625 144.949219 82.675781 143.921875 82.777344 142.898438 C 82.878906 141.875 83.027344 140.855469 83.230469 139.84375 C 83.433594 138.835938 83.683594 137.835938 83.980469 136.851562 C 84.28125 135.867188 84.628906 134.898438 85.023438 133.945312 C 85.417969 132.996094 85.859375 132.066406 86.34375 131.15625 C 86.832031 130.25 87.359375 129.367188 87.933594 128.511719 C 88.507812 127.65625 89.121094 126.828125 89.773438 126.035156 C 90.429688 125.238281 91.121094 124.476562 91.847656 123.75 C 93.796875 121.808594 95.535156 119.695312 97.066406 117.40625 C 98.59375 115.121094 99.882812 112.707031 100.933594 110.164062 C 101.980469 107.621094 102.769531 105 103.300781 102.300781 C 103.828125 99.601562 104.089844 96.878906 104.078125 94.125 C 104.078125 93.097656 104.128906 92.074219 104.234375 91.050781 C 104.335938 90.03125 104.488281 89.015625 104.691406 88.007812 C 104.890625 87 105.140625 86.007812 105.441406 85.023438 C 105.742188 84.042969 106.089844 83.074219 106.484375 82.125 C 106.878906 81.179688 107.316406 80.25 107.800781 79.347656 C 108.289062 78.441406 108.816406 77.5625 109.386719 76.707031 C 109.960938 75.855469 110.570312 75.03125 111.222656 74.238281 C 111.875 73.445312 112.566406 72.683594 113.292969 71.957031 C 114.019531 71.234375 114.78125 70.542969 115.574219 69.894531 C 116.371094 69.242188 117.195312 68.632812 118.050781 68.0625 C 118.90625 67.492188 119.785156 66.964844 120.691406 66.480469 C 121.597656 65.996094 122.523438 65.558594 123.472656 65.164062 C 124.421875 64.773438 125.390625 64.425781 126.371094 64.128906 C 127.355469 63.832031 128.351562 63.582031 129.359375 63.382812 C 130.367188 63.183594 131.382812 63.03125 132.402344 62.929688 C 133.425781 62.832031 134.449219 62.78125 135.476562 62.78125 C 138.222656 62.789062 140.945312 62.53125 143.640625 62 C 146.332031 61.46875 148.949219 60.679688 151.488281 59.628906 C 154.023438 58.582031 156.433594 57.292969 158.714844 55.765625 C 161 54.238281 163.109375 52.5 165.046875 50.554688 C 165.773438 49.824219 166.535156 49.132812 167.332031 48.476562 C 168.125 47.824219 168.953125 47.210938 169.808594 46.636719 C 170.664062 46.0625 171.546875 45.535156 172.453125 45.046875 C 173.363281 44.5625 174.292969 44.121094 175.242188 43.726562 C 176.195312 43.332031 177.164062 42.984375 178.148438 42.683594 C 179.132812 42.386719 180.132812 42.136719 181.140625 41.933594 C 182.152344 41.734375 183.167969 41.582031 184.195312 41.480469 C 185.21875 41.378906 186.246094 41.328125 187.277344 41.328125 C 188.308594 41.328125 189.335938 41.378906 190.359375 41.480469 C 191.382812 41.582031 192.402344 41.734375 193.414062 41.933594 C 194.421875 42.136719 195.421875 42.386719 196.40625 42.683594 C 197.390625 42.984375 198.359375 43.332031 199.3125 43.726562 C 200.261719 44.121094 201.191406 44.5625 202.101562 45.046875 C 203.007812 45.535156 203.890625 46.0625 204.746094 46.636719 C 205.601562 47.210938 206.429688 47.824219 207.222656 48.476562 C 208.019531 49.132812 208.78125 49.824219 209.507812 50.554688 C 211.429688 52.5 213.527344 54.242188 215.792969 55.777344 C 218.058594 57.3125 220.453125 58.613281 222.976562 59.675781 C 225.5 60.738281 228.101562 61.546875 230.78125 62.097656 C 233.460938 62.648438 236.171875 62.929688 238.910156 62.949219 C 239.933594 62.949219 240.957031 63 241.980469 63.101562 C 243 63.207031 244.015625 63.355469 245.019531 63.558594 C 246.027344 63.761719 247.019531 64.011719 248.003906 64.308594 C 248.984375 64.609375 249.949219 64.953125 250.894531 65.347656 C 251.84375 65.742188 252.769531 66.179688 253.675781 66.664062 C 254.578125 67.148438 255.457031 67.675781 256.3125 68.246094 C 257.164062 68.816406 257.988281 69.429688 258.78125 70.078125 C 259.574219 70.730469 260.332031 71.417969 261.058594 72.144531 C 261.785156 72.871094 262.472656 73.628906 263.121094 74.421875 C 263.773438 75.214844 264.382812 76.039062 264.957031 76.890625 C 265.527344 77.746094 266.054688 78.625 266.539062 79.527344 C 267.023438 80.433594 267.460938 81.359375 267.855469 82.304688 C 268.246094 83.253906 268.59375 84.21875 268.894531 85.199219 C 269.191406 86.183594 269.441406 87.175781 269.644531 88.183594 C 269.84375 89.1875 269.996094 90.203125 270.097656 91.222656 C 270.199219 92.242188 270.253906 93.265625 270.253906 94.292969 C 270.242188 97.042969 270.503906 99.769531 271.03125 102.46875 C 271.5625 105.167969 272.351562 107.789062 273.398438 110.332031 C 274.449219 112.871094 275.738281 115.289062 277.265625 117.574219 C 278.796875 119.859375 280.535156 121.976562 282.480469 123.917969 C 283.214844 124.640625 283.910156 125.402344 284.566406 126.195312 C 285.222656 126.992188 285.839844 127.816406 286.417969 128.671875 C 286.992188 129.527344 287.523438 130.40625 288.015625 131.316406 C 288.503906 132.222656 288.945312 133.152344 289.34375 134.105469 C 289.738281 135.054688 290.089844 136.023438 290.390625 137.011719 C 290.691406 137.996094 290.941406 138.996094 291.144531 140.007812 C 291.347656 141.015625 291.5 142.035156 291.601562 143.0625 C 291.703125 144.089844 291.753906 145.117188 291.753906 146.148438 C 291.753906 147.179688 291.703125 148.207031 291.601562 149.234375 C 291.5 150.257812 291.347656 151.277344 291.144531 152.289062 C 290.941406 153.300781 290.691406 154.296875 290.390625 155.285156 C 290.089844 156.269531 289.738281 157.238281 289.34375 158.191406 C 288.945312 159.144531 288.503906 160.074219 288.015625 160.980469 C 287.523438 161.886719 286.992188 162.769531 286.417969 163.625 C 285.839844 164.480469 285.222656 165.304688 284.566406 166.097656 C 283.910156 166.894531 283.214844 167.652344 282.480469 168.378906 C 280.554688 170.3125 278.835938 172.414062 277.324219 174.683594 C 275.8125 176.953125 274.539062 179.351562 273.496094 181.875 C 272.457031 184.394531 271.675781 186.996094 271.148438 189.671875 C 270.621094 192.347656 270.359375 195.050781 270.367188 197.78125 C 270.367188 198.808594 270.316406 199.835938 270.214844 200.863281 C 270.113281 201.886719 269.960938 202.90625 269.761719 203.917969 C 269.5625 204.925781 269.3125 205.925781 269.011719 206.910156 C 268.710938 207.898438 268.367188 208.867188 267.972656 209.816406 C 267.578125 210.769531 267.136719 211.699219 266.652344 212.609375 C 266.167969 213.515625 265.636719 214.398438 265.066406 215.257812 C 264.492188 216.113281 263.878906 216.941406 263.226562 217.734375 C 262.570312 218.53125 261.882812 219.292969 261.152344 220.023438 C 260.425781 220.75 259.660156 221.441406 258.863281 222.097656 C 258.070312 222.75 257.242188 223.363281 256.386719 223.933594 C 255.527344 224.507812 254.644531 225.035156 253.738281 225.523438 C 252.828125 226.007812 251.898438 226.449219 250.945312 226.84375 C 249.996094 227.238281 249.027344 227.582031 248.039062 227.882812 C 247.054688 228.179688 246.054688 228.429688 245.046875 228.632812 C 244.035156 228.832031 243.019531 228.984375 241.992188 229.085938 C 240.96875 229.1875 239.9375 229.238281 238.910156 229.238281 Z M 181.996094 291.707031 L 181.996094 319.496094 L 142.425781 327.277344 L 157.597656 285.480469 C 157.71875 285.160156 157.804688 284.832031 157.859375 284.492188 C 157.910156 284.15625 157.929688 283.816406 157.917969 283.472656 C 157.902344 283.128906 157.855469 282.792969 157.777344 282.460938 C 157.695312 282.128906 157.582031 281.804688 157.4375 281.496094 C 157.292969 281.1875 157.117188 280.894531 156.914062 280.617188 C 156.710938 280.339844 156.484375 280.089844 156.230469 279.859375 C 155.976562 279.628906 155.703125 279.425781 155.410156 279.25 C 155.117188 279.074219 154.808594 278.925781 154.484375 278.8125 C 153.914062 278.59375 153.320312 278.480469 152.707031 278.480469 C 152.171875 278.496094 151.652344 278.589844 151.144531 278.761719 C 150.636719 278.929688 150.164062 279.167969 149.726562 279.472656 C 149.289062 279.777344 148.902344 280.140625 148.566406 280.558594 C 148.234375 280.972656 147.964844 281.429688 147.761719 281.925781 L 130.421875 329.609375 L 99.019531 335.722656 L 138.867188 239.90625 C 142.417969 240.289062 145.800781 241.25 149.023438 242.785156 C 152.242188 244.316406 155.121094 246.34375 157.652344 248.855469 C 158.621094 249.828125 159.636719 250.746094 160.695312 251.621094 C 161.753906 252.492188 162.851562 253.308594 163.992188 254.070312 C 165.132812 254.832031 166.304688 255.539062 167.515625 256.1875 C 168.722656 256.835938 169.960938 257.421875 171.226562 257.945312 C 172.496094 258.472656 173.785156 258.933594 175.09375 259.332031 C 176.40625 259.730469 177.734375 260.066406 179.082031 260.332031 C 180.425781 260.601562 181.78125 260.800781 183.144531 260.9375 C 184.511719 261.070312 185.878906 261.140625 187.25 261.140625 C 188.621094 261.140625 189.988281 261.070312 191.351562 260.9375 C 192.71875 260.800781 194.074219 260.601562 195.417969 260.332031 C 196.761719 260.066406 198.089844 259.730469 199.402344 259.332031 C 200.714844 258.933594 202.003906 258.472656 203.269531 257.945312 C 204.539062 257.421875 205.773438 256.835938 206.984375 256.1875 C 208.191406 255.539062 209.367188 254.832031 210.507812 254.070312 C 211.644531 253.308594 212.746094 252.492188 213.804688 251.621094 C 214.863281 250.746094 215.875 249.828125 216.84375 248.855469 C 219.371094 246.347656 222.238281 244.328125 225.449219 242.792969 C 228.660156 241.257812 232.035156 240.296875 235.574219 239.90625 L 275.480469 335.722656 L 244.023438 329.609375 L 226.683594 281.925781 C 226.5 281.421875 226.246094 280.957031 225.921875 280.53125 C 225.597656 280.105469 225.214844 279.742188 224.777344 279.433594 C 224.339844 279.125 223.867188 278.890625 223.359375 278.726562 C 222.847656 278.5625 222.324219 278.480469 221.789062 278.480469 C 221.160156 278.484375 220.550781 278.597656 219.957031 278.8125 C 219.632812 278.925781 219.328125 279.074219 219.03125 279.25 C 218.738281 279.425781 218.464844 279.628906 218.210938 279.859375 C 217.957031 280.089844 217.730469 280.339844 217.527344 280.617188 C 217.324219 280.894531 217.152344 281.1875 217.007812 281.496094 C 216.859375 281.804688 216.75 282.128906 216.667969 282.460938 C 216.585938 282.792969 216.539062 283.128906 216.523438 283.472656 C 216.511719 283.816406 216.53125 284.15625 216.585938 284.492188 C 216.640625 284.832031 216.726562 285.160156 216.84375 285.480469 L 232.015625 327.277344 L 192.5 319.550781 L 192.5 291.761719 C 192.539062 291.394531 192.539062 291.027344 192.5 290.660156 C 192.460938 290.292969 192.382812 289.933594 192.269531 289.582031 C 192.152344 289.230469 192.003906 288.894531 191.816406 288.574219 C 191.632812 288.253906 191.417969 287.957031 191.167969 287.683594 C 190.921875 287.410156 190.648438 287.164062 190.347656 286.945312 C 190.050781 286.730469 189.730469 286.546875 189.394531 286.394531 C 189.054688 286.246094 188.707031 286.132812 188.34375 286.054688 C 187.984375 285.980469 187.617188 285.941406 187.25 285.941406 C 186.878906 285.941406 186.515625 285.980469 186.152344 286.054688 C 185.792969 286.132812 185.441406 286.246094 185.105469 286.394531 C 184.765625 286.546875 184.449219 286.730469 184.148438 286.945312 C 183.851562 287.164062 183.578125 287.410156 183.328125 287.683594 C 183.082031 287.957031 182.867188 288.253906 182.679688 288.574219 C 182.496094 288.894531 182.34375 289.230469 182.230469 289.582031 C 182.117188 289.933594 182.039062 290.292969 182 290.660156 C 181.960938 291.027344 181.960938 291.394531 181.996094 291.761719 Z M 181.996094 291.707031 "/><path style=" stroke:none;fill-rule:nonzero;fill:#5b9940;fill-opacity:1;" d="M 221.125 112.578125 C 220.304688 112.085938 219.414062 111.84375 218.457031 111.855469 C 217.53125 111.855469 216.667969 112.082031 215.867188 112.539062 C 215.0625 112.992188 214.425781 113.617188 213.953125 114.414062 L 178.664062 173.660156 L 153.761719 142.203125 C 153.261719 141.582031 152.652344 141.097656 151.929688 140.757812 C 151.207031 140.417969 150.449219 140.25 149.652344 140.257812 C 148.445312 140.242188 147.367188 140.613281 146.425781 141.367188 C 146.15625 141.582031 145.90625 141.820312 145.683594 142.082031 C 145.457031 142.347656 145.261719 142.628906 145.09375 142.933594 C 144.925781 143.234375 144.785156 143.550781 144.679688 143.878906 C 144.574219 144.210938 144.503906 144.546875 144.464844 144.890625 C 144.425781 145.234375 144.421875 145.578125 144.449219 145.921875 C 144.480469 146.265625 144.542969 146.605469 144.640625 146.9375 C 144.738281 147.269531 144.867188 147.589844 145.027344 147.894531 C 145.1875 148.203125 145.375 148.492188 145.59375 148.761719 L 175.160156 186.050781 C 175.675781 186.65625 176.292969 187.125 177.007812 187.464844 C 177.726562 187.804688 178.480469 187.980469 179.273438 187.996094 L 179.605469 187.996094 C 180.472656 187.941406 181.269531 187.691406 182.007812 187.238281 C 182.746094 186.785156 183.335938 186.1875 183.777344 185.441406 L 222.957031 119.96875 C 223.128906 119.664062 223.269531 119.34375 223.382812 119.011719 C 223.492188 118.679688 223.574219 118.339844 223.621094 117.992188 C 223.667969 117.644531 223.679688 117.296875 223.660156 116.945312 C 223.640625 116.597656 223.589844 116.25 223.507812 115.910156 C 223.421875 115.570312 223.304688 115.242188 223.160156 114.921875 C 223.011719 114.605469 222.835938 114.300781 222.632812 114.015625 C 222.429688 113.730469 222.199219 113.46875 221.945312 113.226562 C 221.691406 112.984375 221.417969 112.769531 221.125 112.578125 Z M 221.125 112.578125 "/><path style=" stroke:none;fill-rule:nonzero;fill:#5b9940;fill-opacity:1;" d="M 187.222656 69.949219 C 185.976562 69.949219 184.730469 69.980469 183.484375 70.042969 C 182.242188 70.101562 181 70.195312 179.757812 70.316406 C 178.519531 70.4375 177.28125 70.589844 176.050781 70.773438 C 174.816406 70.957031 173.589844 71.171875 172.367188 71.414062 C 171.144531 71.65625 169.929688 71.929688 168.71875 72.230469 C 167.511719 72.535156 166.3125 72.867188 165.117188 73.230469 C 163.925781 73.589844 162.742188 73.980469 161.570312 74.402344 C 160.398438 74.820312 159.234375 75.269531 158.082031 75.746094 C 156.933594 76.222656 155.792969 76.726562 154.667969 77.261719 C 153.539062 77.792969 152.425781 78.355469 151.328125 78.941406 C 150.230469 79.527344 149.144531 80.140625 148.078125 80.78125 C 147.007812 81.421875 145.957031 82.089844 144.917969 82.78125 C 143.882812 83.476562 142.863281 84.191406 141.863281 84.933594 C 140.863281 85.675781 139.878906 86.441406 138.917969 87.234375 C 137.953125 88.023438 137.011719 88.835938 136.085938 89.675781 C 135.164062 90.511719 134.261719 91.371094 133.382812 92.25 C 132.5 93.132812 131.640625 94.035156 130.804688 94.957031 C 129.96875 95.882812 129.152344 96.824219 128.363281 97.789062 C 127.574219 98.75 126.804688 99.734375 126.0625 100.734375 C 125.320312 101.734375 124.605469 102.753906 123.910156 103.789062 C 123.21875 104.824219 122.554688 105.878906 121.914062 106.949219 C 121.273438 108.015625 120.65625 109.101562 120.070312 110.199219 C 119.484375 111.296875 118.921875 112.410156 118.390625 113.539062 C 117.855469 114.664062 117.351562 115.800781 116.875 116.953125 C 116.398438 118.105469 115.949219 119.265625 115.53125 120.441406 C 115.109375 121.613281 114.71875 122.796875 114.359375 123.988281 C 113.996094 125.183594 113.664062 126.382812 113.363281 127.589844 C 113.058594 128.800781 112.785156 130.015625 112.542969 131.238281 C 112.300781 132.460938 112.085938 133.6875 111.902344 134.917969 C 111.722656 136.152344 111.566406 137.390625 111.445312 138.628906 C 111.324219 139.867188 111.230469 141.113281 111.171875 142.355469 C 111.109375 143.601562 111.078125 144.847656 111.078125 146.09375 C 111.078125 147.339844 111.109375 148.582031 111.171875 149.828125 C 111.230469 151.074219 111.324219 152.316406 111.445312 153.554688 C 111.566406 154.796875 111.722656 156.03125 111.902344 157.265625 C 112.085938 158.496094 112.300781 159.722656 112.542969 160.945312 C 112.785156 162.167969 113.058594 163.382812 113.363281 164.59375 C 113.664062 165.800781 113.996094 167.003906 114.359375 168.195312 C 114.71875 169.386719 115.109375 170.570312 115.53125 171.742188 C 115.949219 172.917969 116.398438 174.078125 116.875 175.230469 C 117.351562 176.382812 117.855469 177.519531 118.390625 178.648438 C 118.921875 179.773438 119.484375 180.886719 120.070312 181.984375 C 120.65625 183.085938 121.273438 184.167969 121.914062 185.238281 C 122.554688 186.304688 123.21875 187.359375 123.910156 188.394531 C 124.605469 189.429688 125.320312 190.449219 126.0625 191.449219 C 126.804688 192.449219 127.574219 193.433594 128.363281 194.394531 C 129.152344 195.359375 129.96875 196.300781 130.804688 197.226562 C 131.640625 198.148438 132.5 199.050781 133.382812 199.933594 C 134.261719 200.8125 135.164062 201.671875 136.085938 202.507812 C 137.011719 203.347656 137.953125 204.160156 138.917969 204.949219 C 139.878906 205.742188 140.863281 206.507812 141.863281 207.25 C 142.863281 207.992188 143.882812 208.710938 144.917969 209.402344 C 145.957031 210.09375 147.007812 210.761719 148.078125 211.402344 C 149.144531 212.042969 150.230469 212.65625 151.328125 213.242188 C 152.425781 213.832031 153.539062 214.390625 154.667969 214.921875 C 155.792969 215.457031 156.933594 215.960938 158.082031 216.4375 C 159.234375 216.914062 160.398438 217.363281 161.570312 217.78125 C 162.742188 218.203125 163.925781 218.59375 165.117188 218.957031 C 166.3125 219.316406 167.511719 219.648438 168.71875 219.953125 C 169.929688 220.253906 171.144531 220.527344 172.367188 220.769531 C 173.589844 221.015625 174.816406 221.226562 176.050781 221.410156 C 177.28125 221.59375 178.519531 221.746094 179.757812 221.867188 C 181 221.988281 182.242188 222.082031 183.484375 222.140625 C 184.730469 222.203125 185.976562 222.234375 187.222656 222.234375 C 188.46875 222.234375 189.714844 222.203125 190.957031 222.140625 C 192.203125 222.082031 193.445312 221.988281 194.683594 221.867188 C 195.925781 221.746094 197.160156 221.59375 198.394531 221.410156 C 199.625 221.226562 200.855469 221.015625 202.074219 220.769531 C 203.296875 220.527344 204.511719 220.253906 205.722656 219.953125 C 206.929688 219.648438 208.132812 219.316406 209.324219 218.957031 C 210.515625 218.59375 211.699219 218.203125 212.871094 217.78125 C 214.046875 217.363281 215.207031 216.914062 216.359375 216.4375 C 217.511719 215.960938 218.648438 215.457031 219.777344 214.921875 C 220.902344 214.390625 222.015625 213.832031 223.113281 213.242188 C 224.214844 212.65625 225.296875 212.042969 226.367188 211.402344 C 227.433594 210.761719 228.488281 210.09375 229.523438 209.402344 C 230.558594 208.710938 231.578125 207.992188 232.578125 207.25 C 233.578125 206.507812 234.5625 205.742188 235.523438 204.949219 C 236.488281 204.160156 237.433594 203.347656 238.355469 202.507812 C 239.277344 201.671875 240.179688 200.8125 241.0625 199.933594 C 241.941406 199.050781 242.800781 198.148438 243.640625 197.226562 C 244.476562 196.300781 245.289062 195.359375 246.078125 194.394531 C 246.871094 193.433594 247.636719 192.449219 248.378906 191.449219 C 249.121094 190.449219 249.839844 189.429688 250.53125 188.394531 C 251.222656 187.359375 251.890625 186.304688 252.53125 185.238281 C 253.171875 184.167969 253.785156 183.085938 254.371094 181.984375 C 254.960938 180.886719 255.519531 179.773438 256.054688 178.648438 C 256.585938 177.519531 257.089844 176.382812 257.566406 175.230469 C 258.042969 174.078125 258.492188 172.917969 258.914062 171.742188 C 259.332031 170.570312 259.722656 169.386719 260.085938 168.195312 C 260.445312 167.003906 260.777344 165.800781 261.082031 164.59375 C 261.382812 163.382812 261.65625 162.167969 261.898438 160.945312 C 262.144531 159.722656 262.355469 158.496094 262.539062 157.265625 C 262.722656 156.03125 262.875 154.796875 262.996094 153.554688 C 263.117188 152.316406 263.210938 151.074219 263.273438 149.828125 C 263.332031 148.582031 263.363281 147.339844 263.363281 146.09375 C 263.363281 144.847656 263.328125 143.601562 263.265625 142.359375 C 263.203125 141.113281 263.109375 139.871094 262.988281 138.632812 C 262.863281 137.394531 262.707031 136.15625 262.523438 134.925781 C 262.339844 133.695312 262.125 132.464844 261.882812 131.246094 C 261.636719 130.023438 261.363281 128.808594 261.058594 127.601562 C 260.753906 126.394531 260.421875 125.191406 260.058594 124 C 259.695312 122.808594 259.304688 121.628906 258.886719 120.457031 C 258.464844 119.28125 258.015625 118.121094 257.539062 116.972656 C 257.058594 115.820312 256.554688 114.683594 256.023438 113.558594 C 255.488281 112.429688 254.925781 111.320312 254.339844 110.222656 C 253.753906 109.121094 253.136719 108.039062 252.496094 106.972656 C 251.855469 105.902344 251.1875 104.851562 250.496094 103.816406 C 249.804688 102.78125 249.085938 101.761719 248.34375 100.761719 C 247.601562 99.761719 246.835938 98.78125 246.046875 97.816406 C 245.253906 96.855469 244.441406 95.914062 243.605469 94.988281 C 242.769531 94.066406 241.910156 93.164062 241.03125 92.285156 C 240.148438 91.402344 239.246094 90.542969 238.324219 89.707031 C 237.402344 88.871094 236.457031 88.058594 235.496094 87.269531 C 234.53125 86.476562 233.550781 85.710938 232.550781 84.96875 C 231.550781 84.226562 230.53125 83.507812 229.496094 82.816406 C 228.460938 82.125 227.410156 81.457031 226.34375 80.816406 C 225.273438 80.175781 224.191406 79.5625 223.09375 78.972656 C 221.996094 78.386719 220.882812 77.824219 219.757812 77.292969 C 218.632812 76.757812 217.492188 76.253906 216.34375 75.777344 C 215.191406 75.296875 214.03125 74.847656 212.859375 74.429688 C 211.6875 74.007812 210.503906 73.617188 209.3125 73.253906 C 208.121094 72.890625 206.921875 72.558594 205.710938 72.253906 C 204.503906 71.949219 203.289062 71.675781 202.066406 71.429688 C 200.847656 71.1875 199.621094 70.972656 198.386719 70.789062 C 197.15625 70.605469 195.921875 70.449219 194.679688 70.328125 C 193.441406 70.203125 192.199219 70.109375 190.957031 70.046875 C 189.710938 69.984375 188.46875 69.953125 187.222656 69.949219 Z M 187.222656 211.730469 C 186.148438 211.730469 185.074219 211.703125 184 211.652344 C 182.929688 211.597656 181.855469 211.519531 180.789062 211.414062 C 179.71875 211.308594 178.652344 211.175781 177.589844 211.019531 C 176.527344 210.863281 175.46875 210.679688 174.417969 210.46875 C 173.363281 210.257812 172.316406 210.023438 171.273438 209.761719 C 170.230469 209.5 169.195312 209.214844 168.167969 208.902344 C 167.140625 208.589844 166.121094 208.253906 165.109375 207.894531 C 164.097656 207.53125 163.09375 207.144531 162.101562 206.734375 C 161.109375 206.324219 160.128906 205.886719 159.15625 205.429688 C 158.1875 204.96875 157.226562 204.484375 156.28125 203.980469 C 155.332031 203.472656 154.398438 202.945312 153.476562 202.390625 C 152.554688 201.839844 151.648438 201.265625 150.753906 200.667969 C 149.863281 200.070312 148.984375 199.453125 148.121094 198.8125 C 147.257812 198.171875 146.410156 197.511719 145.582031 196.832031 C 144.75 196.148438 143.9375 195.449219 143.140625 194.726562 C 142.347656 194.003906 141.566406 193.265625 140.808594 192.503906 C 140.050781 191.746094 139.308594 190.96875 138.585938 190.171875 C 137.867188 189.375 137.164062 188.5625 136.484375 187.730469 C 135.800781 186.902344 135.140625 186.054688 134.5 185.191406 C 133.859375 184.328125 133.242188 183.453125 132.644531 182.558594 C 132.050781 181.664062 131.472656 180.757812 130.921875 179.835938 C 130.371094 178.914062 129.839844 177.980469 129.335938 177.035156 C 128.828125 176.085938 128.34375 175.125 127.886719 174.15625 C 127.425781 173.183594 126.992188 172.203125 126.582031 171.210938 C 126.167969 170.21875 125.78125 169.214844 125.421875 168.203125 C 125.058594 167.191406 124.722656 166.171875 124.410156 165.144531 C 124.097656 164.117188 123.8125 163.082031 123.550781 162.039062 C 123.289062 161 123.054688 159.949219 122.84375 158.898438 C 122.636719 157.84375 122.453125 156.785156 122.292969 155.722656 C 122.136719 154.660156 122.003906 153.59375 121.898438 152.527344 C 121.792969 151.457031 121.714844 150.386719 121.664062 149.3125 C 121.609375 148.238281 121.582031 147.167969 121.582031 146.09375 C 121.582031 145.019531 121.609375 143.945312 121.664062 142.871094 C 121.714844 141.796875 121.792969 140.726562 121.898438 139.660156 C 122.003906 138.589844 122.136719 137.523438 122.292969 136.460938 C 122.453125 135.398438 122.636719 134.339844 122.84375 133.285156 C 123.054688 132.234375 123.289062 131.183594 123.550781 130.144531 C 123.8125 129.101562 124.097656 128.066406 124.410156 127.039062 C 124.722656 126.011719 125.058594 124.992188 125.421875 123.980469 C 125.78125 122.96875 126.167969 121.964844 126.582031 120.972656 C 126.992188 119.980469 127.425781 119 127.886719 118.027344 C 128.34375 117.058594 128.828125 116.097656 129.335938 115.152344 C 129.839844 114.203125 130.371094 113.269531 130.921875 112.347656 C 131.472656 111.425781 132.050781 110.519531 132.644531 109.625 C 133.242188 108.734375 133.859375 107.855469 134.5 106.992188 C 135.140625 106.128906 135.800781 105.28125 136.484375 104.453125 C 137.164062 103.621094 137.867188 102.808594 138.585938 102.011719 C 139.308594 101.214844 140.050781 100.4375 140.808594 99.679688 C 141.566406 98.917969 142.347656 98.179688 143.140625 97.457031 C 143.9375 96.738281 144.75 96.035156 145.582031 95.355469 C 146.410156 94.671875 147.257812 94.011719 148.121094 93.371094 C 148.984375 92.730469 149.863281 92.113281 150.753906 91.515625 C 151.648438 90.917969 152.554688 90.34375 153.476562 89.792969 C 154.398438 89.242188 155.332031 88.710938 156.28125 88.203125 C 157.226562 87.699219 158.1875 87.214844 159.15625 86.757812 C 160.128906 86.296875 161.109375 85.863281 162.101562 85.449219 C 163.09375 85.039062 164.097656 84.652344 165.109375 84.292969 C 166.121094 83.929688 167.140625 83.59375 168.167969 83.28125 C 169.195312 82.96875 170.230469 82.683594 171.273438 82.421875 C 172.316406 82.160156 173.363281 81.925781 174.417969 81.714844 C 175.46875 81.507812 176.527344 81.324219 177.589844 81.164062 C 178.652344 81.007812 179.71875 80.875 180.789062 80.769531 C 181.855469 80.664062 182.929688 80.585938 184 80.535156 C 185.074219 80.480469 186.148438 80.453125 187.222656 80.453125 C 188.296875 80.453125 189.371094 80.480469 190.441406 80.535156 C 191.515625 80.585938 192.585938 80.664062 193.65625 80.769531 C 194.722656 80.875 195.789062 81.007812 196.851562 81.164062 C 197.914062 81.324219 198.972656 81.507812 200.027344 81.714844 C 201.082031 81.925781 202.128906 82.160156 203.171875 82.421875 C 204.210938 82.683594 205.246094 82.96875 206.273438 83.28125 C 207.304688 83.59375 208.324219 83.929688 209.335938 84.292969 C 210.34375 84.652344 211.347656 85.039062 212.339844 85.449219 C 213.332031 85.863281 214.3125 86.296875 215.285156 86.757812 C 216.257812 87.214844 217.214844 87.699219 218.164062 88.203125 C 219.109375 88.710938 220.042969 89.242188 220.964844 89.792969 C 221.886719 90.34375 222.792969 90.917969 223.6875 91.515625 C 224.582031 92.113281 225.457031 92.730469 226.320312 93.371094 C 227.183594 94.011719 228.03125 94.671875 228.863281 95.355469 C 229.691406 96.035156 230.503906 96.738281 231.300781 97.457031 C 232.097656 98.179688 232.875 98.917969 233.632812 99.679688 C 234.394531 100.4375 235.132812 101.214844 235.855469 102.011719 C 236.578125 102.808594 237.277344 103.621094 237.960938 104.453125 C 238.640625 105.28125 239.300781 106.128906 239.941406 106.992188 C 240.582031 107.855469 241.199219 108.734375 241.796875 109.625 C 242.394531 110.519531 242.96875 111.425781 243.519531 112.347656 C 244.074219 113.269531 244.601562 114.203125 245.109375 115.152344 C 245.613281 116.097656 246.097656 117.058594 246.558594 118.027344 C 247.015625 119 247.453125 119.980469 247.863281 120.972656 C 248.273438 121.964844 248.660156 122.96875 249.023438 123.980469 C 249.382812 124.992188 249.722656 126.011719 250.03125 127.039062 C 250.34375 128.066406 250.632812 129.101562 250.890625 130.144531 C 251.152344 131.183594 251.386719 132.234375 251.597656 133.285156 C 251.808594 134.339844 251.992188 135.398438 252.148438 136.460938 C 252.304688 137.523438 252.4375 138.589844 252.542969 139.660156 C 252.648438 140.726562 252.726562 141.796875 252.78125 142.871094 C 252.832031 143.945312 252.859375 145.019531 252.859375 146.09375 C 252.855469 147.164062 252.828125 148.238281 252.773438 149.3125 C 252.71875 150.382812 252.640625 151.453125 252.53125 152.523438 C 252.425781 153.589844 252.292969 154.65625 252.132812 155.71875 C 251.976562 156.78125 251.789062 157.835938 251.578125 158.890625 C 251.367188 159.941406 251.132812 160.988281 250.871094 162.03125 C 250.609375 163.070312 250.320312 164.105469 250.007812 165.132812 C 249.695312 166.160156 249.355469 167.179688 248.996094 168.191406 C 248.632812 169.199219 248.246094 170.203125 247.832031 171.191406 C 247.421875 172.183594 246.984375 173.164062 246.527344 174.136719 C 246.066406 175.105469 245.582031 176.066406 245.074219 177.011719 C 244.570312 177.957031 244.039062 178.890625 243.488281 179.8125 C 242.933594 180.734375 242.359375 181.640625 241.761719 182.53125 C 241.167969 183.425781 240.546875 184.300781 239.90625 185.164062 C 239.269531 186.027344 238.605469 186.871094 237.925781 187.703125 C 237.246094 188.53125 236.542969 189.34375 235.824219 190.140625 C 235.101562 190.9375 234.359375 191.714844 233.601562 192.472656 C 232.84375 193.230469 232.066406 193.972656 231.269531 194.691406 C 230.472656 195.414062 229.660156 196.117188 228.832031 196.796875 C 228 197.476562 227.15625 198.136719 226.292969 198.777344 C 225.429688 199.417969 224.554688 200.035156 223.660156 200.632812 C 222.769531 201.230469 221.863281 201.804688 220.941406 202.359375 C 220.019531 202.910156 219.085938 203.441406 218.140625 203.945312 C 217.195312 204.453125 216.234375 204.9375 215.265625 205.394531 C 214.296875 205.855469 213.3125 206.292969 212.324219 206.703125 C 211.332031 207.117188 210.328125 207.503906 209.320312 207.867188 C 208.308594 208.226562 207.289062 208.566406 206.261719 208.878906 C 205.234375 209.191406 204.203125 209.480469 203.160156 209.742188 C 202.117188 210.003906 201.070312 210.238281 200.019531 210.449219 C 198.964844 210.660156 197.910156 210.847656 196.847656 211.003906 C 195.785156 211.164062 194.71875 211.296875 193.652344 211.402344 C 192.582031 211.511719 191.511719 211.589844 190.441406 211.644531 C 189.367188 211.699219 188.296875 211.726562 187.222656 211.730469 Z M 187.222656 211.730469 "/></g></svg>