<svg xmlns="http://www.w3.org/2000/svg" xmlns:xlink="http://www.w3.org/1999/xlink" width="500" zoomAndPan="magnify" viewBox="0 0 375 374.999991" height="500" preserveAspectRatio="xMidYMid meet" version="1.2"><defs><clipPath id="ba7bac45ff"><path d="M 96 45.015625 L 279 45.015625 L 279 157 L 96 157 Z M 96 45.015625 "/></clipPath></defs><g id="19d8a9e5b4"><path style=" stroke:none;fill-rule:nonzero;fill:#5b9940;fill-opacity:1;" d="M 261.332031 267.277344 C 259.257812 267.277344 257.535156 265.636719 257.460938 263.542969 C 257.378906 261.402344 259.058594 259.609375 261.191406 259.527344 C 261.351562 259.523438 277.746094 258.800781 291.671875 250.378906 C 293.503906 249.269531 295.886719 249.863281 297 251.691406 C 298.109375 253.523438 297.515625 255.90625 295.6875 257.019531 C 279.988281 266.511719 262.222656 267.25 261.472656 267.277344 C 261.425781 267.277344 261.378906 267.277344 261.332031 267.277344 Z M 261.332031 267.277344 "/><path style=" stroke:none;fill-rule:nonzero;fill:#5b9940;fill-opacity:1;" d="M 92.667969 262.941406 C 91.679688 262.941406 90.683594 262.566406 89.929688 261.804688 L 80.214844 252.089844 C 78.699219 250.574219 78.699219 248.117188 80.214844 246.605469 C 81.730469 245.089844 84.1875 245.089844 85.703125 246.605469 L 95.414062 256.316406 C 96.929688 257.832031 96.929688 260.289062 95.414062 261.804688 C 94.65625 262.566406 93.660156 262.941406 92.667969 262.941406 Z M 92.667969 262.941406 "/><path style=" stroke:none;fill-rule:nonzero;fill:#5b9940;fill-opacity:1;" d="M 166.042969 329.960938 C 161.125 329.960938 156.210938 328.085938 152.46875 324.34375 L 146.09375 317.96875 C 144.578125 316.453125 144.578125 313.996094 146.09375 312.484375 C 147.609375 310.96875 150.066406 310.96875 151.582031 312.484375 L 157.957031 318.859375 C 162.414062 323.316406 169.667969 323.316406 174.132812 318.859375 C 176.292969 316.703125 177.484375 313.835938 177.484375 310.773438 C 177.484375 309.285156 177.203125 307.835938 176.644531 306.464844 C 176.078125 305.050781 175.230469 303.777344 174.132812 302.679688 C 172.617188 301.167969 172.617188 298.710938 174.132812 297.203125 C 175.648438 295.6875 178.105469 295.6875 179.621094 297.203125 L 193.816406 311.390625 C 195.976562 313.554688 198.851562 314.746094 201.902344 314.746094 C 204.953125 314.746094 207.828125 313.554688 209.988281 311.390625 C 212.148438 309.230469 213.339844 306.355469 213.339844 303.300781 C 213.339844 300.242188 212.148438 297.371094 209.996094 295.214844 C 208.480469 293.699219 208.480469 291.242188 209.996094 289.730469 C 211.507812 288.214844 213.964844 288.214844 215.480469 289.730469 C 219.101562 293.351562 221.09375 298.171875 221.09375 303.300781 C 221.09375 308.429688 219.097656 313.25 215.472656 316.878906 C 211.84375 320.5 207.03125 322.5 201.902344 322.5 C 196.773438 322.5 191.960938 320.5 188.332031 316.878906 L 185.039062 313.585938 C 184.445312 317.660156 182.574219 321.410156 179.613281 324.359375 C 175.871094 328.09375 170.957031 329.960938 166.042969 329.960938 Z M 166.042969 329.960938 "/><path style=" stroke:none;fill-rule:nonzero;fill:#5b9940;fill-opacity:1;" d="M 229.792969 307.058594 C 224.878906 307.058594 219.964844 305.183594 216.222656 301.441406 L 181.347656 266.570312 C 179.835938 265.054688 179.835938 262.597656 181.347656 261.085938 C 182.863281 259.570312 185.320312 259.570312 186.835938 261.085938 L 221.707031 295.957031 C 226.164062 300.414062 233.421875 300.414062 237.886719 295.957031 C 242.339844 291.5 242.339844 284.242188 237.886719 279.777344 L 203.011719 244.90625 C 201.5 243.390625 201.5 240.933594 203.011719 239.421875 C 204.527344 237.90625 206.984375 237.90625 208.5 239.421875 L 243.371094 274.292969 C 250.855469 281.777344 250.855469 293.949219 243.371094 301.4375 C 239.621094 305.183594 234.707031 307.058594 229.792969 307.058594 Z M 229.792969 307.058594 "/><path style=" stroke:none;fill-rule:nonzero;fill:#5b9940;fill-opacity:1;" d="M 246.21875 280.167969 C 241.304688 280.167969 236.390625 278.296875 232.652344 274.5625 C 231.140625 273.046875 231.140625 270.589844 232.652344 269.074219 C 234.167969 267.558594 236.625 267.558594 238.140625 269.074219 C 242.597656 273.53125 249.855469 273.53125 254.3125 269.074219 C 256.027344 267.359375 257.132812 265.183594 257.507812 262.800781 C 257.515625 262.773438 257.515625 262.753906 257.523438 262.726562 C 257.617188 262.195312 257.664062 261.609375 257.664062 260.984375 C 257.664062 257.933594 256.472656 255.058594 254.3125 252.882812 L 198.941406 197.515625 C 194.949219 193.515625 189.089844 191.988281 183.652344 193.515625 C 180.859375 194.304688 178.347656 195.84375 176.394531 197.972656 L 159.132812 216.714844 C 159.101562 216.753906 159.058594 216.792969 159.027344 216.828125 C 150.855469 225 137.558594 225 129.386719 216.828125 C 122.820312 210.265625 121.332031 200.355469 125.691406 192.183594 C 131.238281 181.753906 140.828125 167.441406 155.039062 158.488281 C 155.09375 158.457031 155.140625 158.429688 155.195312 158.394531 C 166.890625 151.078125 179.699219 148.613281 193.273438 151.078125 C 195.332031 151.378906 223.464844 155.703125 245.566406 170.828125 L 268.210938 161.035156 C 270.179688 160.183594 272.460938 161.085938 273.308594 163.054688 C 274.15625 165.019531 273.253906 167.300781 271.289062 168.148438 L 246.648438 178.804688 C 245.390625 179.351562 243.945312 179.191406 242.839844 178.386719 C 221.6875 163.09375 192.398438 158.785156 192.101562 158.746094 C 192.046875 158.738281 192 158.730469 191.953125 158.71875 C 180.265625 156.582031 169.246094 158.710938 159.1875 165.046875 C 159.140625 165.074219 159.09375 165.105469 159.046875 165.132812 C 146.34375 173.191406 137.625 186.265625 132.535156 195.824219 C 129.796875 200.972656 130.730469 207.207031 134.863281 211.339844 C 139.996094 216.472656 148.328125 216.492188 153.484375 211.394531 L 170.6875 192.722656 C 173.609375 189.535156 177.363281 187.234375 181.542969 186.054688 C 189.683594 183.761719 198.449219 186.054688 204.421875 192.035156 L 259.789062 247.40625 C 263.417969 251.039062 265.410156 255.859375 265.410156 260.984375 C 265.410156 262.046875 265.324219 263.078125 265.15625 264.046875 C 264.515625 268.046875 262.664062 271.671875 259.789062 274.554688 C 256.054688 278.296875 251.132812 280.167969 246.21875 280.167969 Z M 246.21875 280.167969 "/><path style=" stroke:none;fill-rule:nonzero;fill:#5b9940;fill-opacity:1;" d="M 105.070312 170.390625 C 103.300781 170.390625 101.703125 169.171875 101.292969 167.375 C 100.816406 165.289062 102.121094 163.207031 104.214844 162.730469 C 128.539062 157.191406 155.96875 157.863281 157.214844 157.894531 C 159.316406 157.945312 161.003906 159.660156 161.003906 161.773438 C 161.003906 163.949219 159.203125 165.726562 157.019531 165.652344 C 155.894531 165.617188 129.359375 164.957031 105.945312 170.296875 C 105.648438 170.355469 105.359375 170.390625 105.070312 170.390625 Z M 105.070312 170.390625 "/><path style=" stroke:none;fill-rule:nonzero;fill:#5b9940;fill-opacity:1;" d="M 101.359375 277.800781 C 97.8125 277.800781 94.265625 276.445312 91.566406 273.746094 C 86.167969 268.347656 86.167969 259.554688 91.566406 254.15625 L 103.367188 242.355469 C 108.765625 236.957031 117.558594 236.957031 122.957031 242.355469 C 128.355469 247.753906 128.355469 256.546875 122.957031 261.945312 C 121.441406 263.460938 118.984375 263.460938 117.46875 261.945312 C 115.957031 260.429688 115.957031 257.972656 117.46875 256.460938 C 119.847656 254.082031 119.847656 250.210938 117.46875 247.835938 C 115.09375 245.460938 111.222656 245.460938 108.847656 247.835938 L 97.046875 259.636719 C 94.667969 262.011719 94.667969 265.882812 97.046875 268.261719 C 99.421875 270.636719 103.292969 270.636719 105.667969 268.261719 C 107.183594 266.746094 109.640625 266.746094 111.15625 268.261719 C 112.667969 269.773438 112.667969 272.230469 111.15625 273.746094 C 108.457031 276.445312 104.90625 277.800781 101.359375 277.800781 Z M 101.359375 277.800781 "/><path style=" stroke:none;fill-rule:nonzero;fill:#5b9940;fill-opacity:1;" d="M 111.269531 296.109375 C 107.566406 296.109375 104.085938 294.671875 101.472656 292.050781 C 98.855469 289.433594 97.414062 285.957031 97.414062 282.257812 C 97.414062 278.554688 98.855469 275.078125 101.472656 272.460938 L 117.476562 256.460938 C 122.875 251.058594 131.667969 251.058594 137.066406 256.460938 C 142.464844 261.859375 142.464844 270.648438 137.066406 276.050781 C 135.550781 277.5625 133.09375 277.5625 131.578125 276.050781 C 130.066406 274.535156 130.066406 272.078125 131.578125 270.5625 C 133.957031 268.1875 133.957031 264.316406 131.578125 261.9375 C 129.203125 259.5625 125.332031 259.5625 122.957031 261.9375 L 106.953125 277.941406 C 105.804688 279.09375 105.171875 280.628906 105.171875 282.25 C 105.171875 283.878906 105.804688 285.40625 106.953125 286.566406 C 108.105469 287.722656 109.640625 288.347656 111.269531 288.347656 C 112.898438 288.347656 114.425781 287.714844 115.585938 286.566406 C 117.097656 285.050781 119.558594 285.050781 121.070312 286.566406 C 122.585938 288.078125 122.585938 290.535156 121.070312 292.050781 C 118.445312 294.671875 114.964844 296.109375 111.269531 296.109375 Z M 111.269531 296.109375 "/><path style=" stroke:none;fill-rule:nonzero;fill:#5b9940;fill-opacity:1;" d="M 120.722656 314.867188 C 117.019531 314.867188 113.539062 313.425781 110.925781 310.804688 C 105.527344 305.40625 105.527344 296.617188 110.925781 291.214844 L 131.578125 270.570312 C 134.199219 267.949219 137.671875 266.511719 141.375 266.511719 C 145.078125 266.511719 148.558594 267.949219 151.171875 270.570312 C 153.789062 273.1875 155.230469 276.660156 155.230469 280.363281 C 155.230469 284.066406 153.789062 287.539062 151.171875 290.160156 L 130.523438 310.804688 C 127.90625 313.425781 124.425781 314.867188 120.722656 314.867188 Z M 141.375 274.265625 C 139.746094 274.265625 138.21875 274.898438 137.066406 276.050781 L 116.414062 296.703125 C 114.035156 299.078125 114.035156 302.949219 116.414062 305.328125 C 117.5625 306.476562 119.097656 307.109375 120.726562 307.109375 C 122.355469 307.109375 123.886719 306.476562 125.042969 305.328125 L 145.695312 284.671875 C 146.847656 283.523438 147.480469 281.988281 147.480469 280.363281 C 147.480469 278.734375 146.847656 277.199219 145.695312 276.050781 C 144.53125 274.898438 143.003906 274.265625 141.375 274.265625 Z M 141.375 274.265625 "/><path style=" stroke:none;fill-rule:nonzero;fill:#5b9940;fill-opacity:1;" d="M 140.828125 322.976562 C 137.28125 322.976562 133.734375 321.625 131.035156 318.925781 C 128.414062 316.304688 126.976562 312.832031 126.976562 309.128906 C 126.976562 305.425781 128.414062 301.949219 131.027344 299.328125 C 132.542969 297.8125 135 297.8125 136.515625 299.328125 C 138.027344 300.84375 138.027344 303.300781 136.515625 304.816406 C 135.363281 305.964844 134.730469 307.496094 134.730469 309.128906 C 134.730469 310.757812 135.363281 312.292969 136.515625 313.445312 C 138.890625 315.820312 142.761719 315.820312 145.136719 313.445312 L 159.792969 298.789062 C 160.945312 297.640625 161.578125 296.105469 161.578125 294.476562 C 161.578125 292.84375 160.945312 291.3125 159.792969 290.160156 C 157.417969 287.785156 153.546875 287.777344 151.171875 290.152344 C 149.65625 291.667969 147.199219 291.667969 145.683594 290.152344 C 144.167969 288.636719 144.167969 286.179688 145.683594 284.667969 C 151.082031 279.265625 159.875 279.273438 165.273438 284.671875 C 167.890625 287.292969 169.332031 290.765625 169.332031 294.46875 C 169.332031 298.171875 167.890625 301.652344 165.273438 304.261719 L 150.617188 318.917969 C 147.925781 321.625 144.378906 322.976562 140.828125 322.976562 Z M 140.828125 322.976562 "/><path style=" stroke:none;fill-rule:nonzero;fill:#5b9940;fill-opacity:1;" d="M 307.472656 265.546875 C 304.039062 265.546875 300.640625 264.644531 297.578125 262.875 C 292.984375 260.222656 289.699219 255.953125 288.339844 250.863281 L 266.550781 169.535156 C 265.183594 164.441406 265.890625 159.109375 268.542969 154.515625 C 271.195312 149.925781 275.460938 146.640625 280.550781 145.28125 L 301.824219 139.578125 C 303.890625 139.027344 306.019531 140.25 306.570312 142.320312 L 336.609375 254.425781 C 337.160156 256.492188 335.9375 258.621094 333.871094 259.171875 L 312.597656 264.875 C 310.90625 265.320312 309.183594 265.546875 307.472656 265.546875 Z M 300.089844 148.066406 L 282.566406 152.765625 C 279.476562 153.59375 276.875 155.59375 275.261719 158.394531 C 273.644531 161.195312 273.214844 164.441406 274.042969 167.53125 L 295.832031 248.859375 C 296.660156 251.957031 298.660156 254.546875 301.460938 256.164062 C 304.261719 257.777344 307.507812 258.210938 310.597656 257.382812 L 328.121094 252.683594 Z M 281.554688 149.015625 Z M 281.554688 149.015625 "/><path style=" stroke:none;fill-rule:nonzero;fill:#5b9940;fill-opacity:1;" d="M 67.4375 265.507812 C 65.726562 265.507812 64.003906 265.285156 62.308594 264.828125 L 41.035156 259.125 C 38.96875 258.574219 37.734375 256.445312 38.296875 254.378906 L 68.332031 142.269531 C 68.601562 141.273438 69.25 140.433594 70.136719 139.914062 C 71.027344 139.402344 72.089844 139.261719 73.078125 139.523438 L 94.351562 145.226562 C 104.902344 148.054688 111.1875 158.941406 108.363281 169.488281 L 86.578125 250.816406 C 85.210938 255.914062 81.933594 260.175781 77.339844 262.828125 C 74.269531 264.605469 70.871094 265.507812 67.4375 265.507812 Z M 46.789062 252.640625 L 64.3125 257.339844 C 67.410156 258.167969 70.648438 257.738281 73.449219 256.121094 C 76.25 254.507812 78.25 251.914062 79.078125 248.820312 L 100.867188 167.488281 C 102.59375 161.066406 98.769531 154.449219 92.347656 152.726562 L 74.816406 148.027344 Z M 46.789062 252.640625 "/><g clip-rule="nonzero" clip-path="url(#ba7bac45ff)"><path style=" stroke:none;fill-rule:nonzero;fill:#5b9940;fill-opacity:1;" d="M 274.648438 156.800781 C 272.507812 156.800781 270.769531 155.0625 270.769531 152.921875 L 270.769531 52.761719 L 104.140625 52.761719 L 104.140625 152.882812 C 104.140625 155.023438 102.402344 156.757812 100.261719 156.757812 C 98.121094 156.757812 96.386719 155.023438 96.386719 152.882812 L 96.386719 48.886719 C 96.386719 46.746094 98.121094 45.007812 100.261719 45.007812 L 274.65625 45.007812 C 276.796875 45.007812 278.53125 46.746094 278.53125 48.886719 L 278.53125 152.921875 C 278.527344 155.0625 276.789062 156.800781 274.648438 156.800781 Z M 274.648438 156.800781 "/></g><path style=" stroke:none;fill-rule:nonzero;fill:#5b9940;fill-opacity:1;" d="M 187.457031 139.988281 C 165.90625 139.988281 148.371094 122.453125 148.371094 100.902344 C 148.371094 79.355469 165.898438 61.816406 187.457031 61.816406 C 209.011719 61.816406 226.542969 79.347656 226.542969 100.902344 C 226.542969 122.460938 209.003906 139.988281 187.457031 139.988281 Z M 187.457031 69.574219 C 170.179688 69.574219 156.125 83.628906 156.125 100.902344 C 156.125 118.175781 170.179688 132.234375 187.457031 132.234375 C 204.730469 132.234375 218.785156 118.175781 218.785156 100.902344 C 218.785156 83.628906 204.730469 69.574219 187.457031 69.574219 Z M 187.457031 69.574219 "/><path style=" stroke:none;fill-rule:nonzero;fill:#5b9940;fill-opacity:1;" d="M 178.925781 116.898438 C 177.9375 116.898438 176.941406 116.523438 176.1875 115.761719 L 169.023438 108.597656 C 167.507812 107.082031 167.507812 104.625 169.023438 103.113281 C 170.539062 101.597656 172.996094 101.597656 174.511719 103.113281 L 178.933594 107.535156 L 200.414062 86.050781 C 201.929688 84.539062 204.386719 84.539062 205.902344 86.050781 C 207.414062 87.566406 207.414062 90.023438 205.902344 91.539062 L 181.671875 115.765625 C 180.910156 116.515625 179.914062 116.898438 178.925781 116.898438 Z M 178.925781 116.898438 "/></g></svg>