<svg xmlns="http://www.w3.org/2000/svg" xmlns:xlink="http://www.w3.org/1999/xlink" width="500" zoomAndPan="magnify" viewBox="0 0 375 374.999991" height="500" preserveAspectRatio="xMidYMid meet" version="1.2"><defs><clipPath id="2021cde420"><path d="M 106.226562 174.078125 L 201.246094 174.078125 L 201.246094 288.328125 L 106.226562 288.328125 Z M 106.226562 174.078125 "/></clipPath><clipPath id="f2f6f87d22"><path d="M 316.148438 267.570312 L 352.730469 267.570312 L 352.730469 287.871094 L 316.148438 287.871094 Z M 316.148438 267.570312 "/></clipPath><clipPath id="8874bd8871"><path d="M 242.675781 261.21875 L 303.441406 261.21875 L 303.441406 288.328125 L 242.675781 288.328125 Z M 242.675781 261.21875 "/></clipPath><clipPath id="166297ace9"><path d="M 226.378906 284.28125 L 258.972656 284.28125 L 258.972656 288.328125 L 226.378906 288.328125 Z M 226.378906 284.28125 "/></clipPath><clipPath id="714e3c9c8a"><path d="M 125.011719 245.058594 L 252.34375 245.058594 L 252.34375 288.328125 L 125.011719 288.328125 Z M 125.011719 245.058594 "/></clipPath><clipPath id="d084211a87"><path d="M 125.011719 284.28125 L 258.972656 284.28125 L 258.972656 288.328125 L 125.011719 288.328125 Z M 125.011719 284.28125 "/></clipPath><clipPath id="db6f34e5e4"><path d="M 228.3125 283.453125 L 229.417969 283.453125 L 229.417969 288.328125 L 228.3125 288.328125 Z M 228.3125 283.453125 "/></clipPath><clipPath id="693f099c6c"><path d="M 22.121094 250.585938 L 134.265625 250.585938 L 134.265625 288.328125 L 22.121094 288.328125 Z M 22.121094 250.585938 "/></clipPath><clipPath id="a73c3d0562"><path d="M 285.488281 270.609375 L 286.59375 270.609375 L 286.59375 288.328125 L 285.488281 288.328125 Z M 285.488281 270.609375 "/></clipPath><clipPath id="e4e54448e6"><path d="M 298.058594 269.503906 L 299.160156 269.503906 L 299.160156 288.328125 L 298.058594 288.328125 Z M 298.058594 269.503906 "/></clipPath></defs><g id="c0ca040277"><path style=" stroke:none;fill-rule:nonzero;fill:#bdc2c7;fill-opacity:1;" d="M 138.609375 91.949219 C 136 90.757812 131.03125 91.3125 128.121094 91.808594 C 124.101562 92.496094 117.785156 92.839844 115.011719 95.792969 C 113.191406 97.726562 116.117188 98.507812 117.992188 98.921875 C 121.261719 99.648438 124.878906 99.835938 128.53125 99.574219 C 131.320312 99.375 134.433594 99.175781 137.089844 98.035156 C 140.433594 96.601562 141.460938 93.253906 138.609375 91.949219 "/><path style=" stroke:none;fill-rule:nonzero;fill:#bdc2c7;fill-opacity:1;" d="M 193.285156 89.160156 C 187.953125 86.582031 181.660156 87.0625 176.125 88.703125 C 174.097656 89.300781 172.296875 90.339844 170.421875 91.277344 C 168.402344 92.289062 166.375 93.296875 164.402344 94.398438 C 159.460938 97.160156 154.101562 98.265625 148.488281 98.625 C 140.902344 99.109375 134.132812 103.351562 126.515625 103.808594 C 123.050781 104.015625 119.855469 103.296875 116.671875 101.964844 C 110.976562 99.582031 104.804688 96.722656 98.417969 96.785156 C 93.515625 96.828125 83.4375 100.109375 85.722656 106.84375 C 86.902344 110.332031 91.570312 110.394531 94.628906 110.636719 C 99.941406 111.054688 105.777344 110.035156 111.148438 109.683594 C 112.695312 109.582031 114.300781 109.484375 115.75 110.042969 C 117.355469 110.65625 117.585938 112.003906 118.1875 113.402344 C 118.921875 115.101562 120.625 116.261719 122.328125 116.839844 C 124.996094 117.746094 127.878906 117.546875 130.648438 117.730469 C 132.523438 117.855469 134.4375 118.226562 136.289062 118.539062 C 139.28125 119.046875 142.335938 120.242188 145.382812 119.398438 C 148.199219 118.621094 150.453125 116.632812 153.039062 115.359375 C 154.703125 114.535156 156.425781 113.921875 158.273438 113.671875 C 160.230469 113.410156 162.214844 113.5 164.167969 113.726562 C 167.882812 114.160156 171.464844 114.871094 175.214844 114.261719 C 178.226562 113.773438 180.664062 113.253906 182.507812 110.636719 C 183.828125 108.765625 185.089844 107.339844 187.191406 106.378906 C 188.816406 105.636719 190.542969 105.152344 192.222656 104.550781 C 195.554688 103.363281 198.640625 101.566406 198.828125 97.65625 C 199.007812 93.9375 196.511719 90.722656 193.285156 89.160156 "/><path style=" stroke:none;fill-rule:nonzero;fill:#bdc2c7;fill-opacity:1;" d="M 201.304688 106.8125 C 199.375 106.78125 197.484375 107.238281 195.640625 107.757812 C 194.15625 108.175781 192.382812 108.5 191.261719 109.648438 C 190.425781 110.507812 190.03125 111.851562 190.761719 112.902344 C 191.484375 113.941406 192.898438 114.25 194.078125 114.347656 C 195.8125 114.492188 197.574219 114.375 199.28125 114.03125 C 200.953125 113.691406 202.582031 113.136719 204.109375 112.363281 C 205.253906 111.785156 206.804688 111.011719 207.199219 109.664062 C 208.070312 106.667969 202.910156 106.839844 201.304688 106.8125 "/><path style=" stroke:none;fill-rule:nonzero;fill:#d69c81;fill-opacity:1;" d="M 100.117188 110.867188 C 98.542969 110.753906 97.003906 110.660156 96.132812 110.660156 C 93.828125 110.660156 86.925781 111.296875 86.925781 111.296875 L 79.222656 287.394531 L 113.03125 287.1875 L 105.335938 111.296875 C 105.335938 111.296875 102.683594 111.050781 100.117188 110.867188 "/><path style=" stroke:none;fill-rule:nonzero;fill:#28243d;fill-opacity:1;" d="M 79.5625 219.40625 C 84.480469 227.628906 89.402344 235.851562 94.320312 244.074219 C 94.640625 244.609375 95.476562 244.121094 95.15625 243.585938 C 90.238281 235.363281 85.320312 227.140625 80.402344 218.917969 C 80.082031 218.382812 79.242188 218.871094 79.5625 219.40625 "/><path style=" stroke:none;fill-rule:nonzero;fill:#28243d;fill-opacity:1;" d="M 80.46875 277.742188 C 80.46875 262.167969 80.46875 246.59375 80.46875 231.023438 C 80.46875 226.804688 80.46875 222.585938 80.46875 218.367188 C 80.46875 217.746094 79.5 217.742188 79.5 218.367188 C 79.5 233.941406 79.5 249.511719 79.5 265.085938 C 79.5 269.304688 79.5 273.519531 79.5 277.742188 C 79.5 278.363281 80.46875 278.363281 80.46875 277.742188 "/><path style=" stroke:none;fill-rule:nonzero;fill:#28243d;fill-opacity:1;" d="M 94.320312 218.917969 C 89.402344 227.140625 84.480469 235.363281 79.5625 243.585938 C 79.242188 244.121094 80.082031 244.609375 80.402344 244.074219 C 85.320312 235.851562 90.238281 227.628906 95.15625 219.40625 C 95.476562 218.871094 94.640625 218.382812 94.320312 218.917969 "/><path style=" stroke:none;fill-rule:nonzero;fill:#28243d;fill-opacity:1;" d="M 111.859375 218.917969 C 106.941406 227.140625 102.023438 235.363281 97.105469 243.585938 C 96.785156 244.121094 97.621094 244.609375 97.941406 244.074219 C 102.859375 235.851562 107.78125 227.628906 112.699219 219.40625 C 113.019531 218.871094 112.179688 218.382812 111.859375 218.917969 "/><path style=" stroke:none;fill-rule:nonzero;fill:#28243d;fill-opacity:1;" d="M 112.765625 286.296875 C 112.765625 268.140625 112.765625 249.988281 112.765625 231.832031 C 112.765625 227.34375 112.765625 222.855469 112.765625 218.367188 C 112.765625 217.746094 111.796875 217.742188 111.796875 218.367188 C 111.796875 236.523438 111.796875 254.679688 111.796875 272.835938 C 111.796875 277.324219 111.796875 281.8125 111.796875 286.296875 C 111.796875 286.921875 112.765625 286.921875 112.765625 286.296875 "/><path style=" stroke:none;fill-rule:nonzero;fill:#28243d;fill-opacity:1;" d="M 97.105469 219.40625 C 102.023438 227.628906 106.941406 235.851562 111.859375 244.074219 C 112.179688 244.609375 113.019531 244.121094 112.699219 243.585938 C 107.78125 235.363281 102.859375 227.140625 97.941406 218.917969 C 97.621094 218.382812 96.785156 218.871094 97.105469 219.40625 "/><path style=" stroke:none;fill-rule:nonzero;fill:#28243d;fill-opacity:1;" d="M 79.5625 244.074219 C 84.480469 252.296875 89.402344 260.519531 94.320312 268.738281 C 94.640625 269.277344 95.476562 268.789062 95.15625 268.25 C 90.238281 260.027344 85.320312 251.808594 80.402344 243.585938 C 80.082031 243.050781 79.242188 243.535156 79.5625 244.074219 "/><path style=" stroke:none;fill-rule:nonzero;fill:#28243d;fill-opacity:1;" d="M 94.320312 243.585938 C 89.402344 251.808594 84.480469 260.027344 79.5625 268.25 C 79.242188 268.789062 80.082031 269.277344 80.402344 268.738281 C 85.320312 260.519531 90.238281 252.296875 95.15625 244.074219 C 95.476562 243.535156 94.640625 243.050781 94.320312 243.585938 "/><path style=" stroke:none;fill-rule:nonzero;fill:#28243d;fill-opacity:1;" d="M 111.859375 243.585938 C 106.941406 251.808594 102.023438 260.027344 97.105469 268.25 C 96.785156 268.789062 97.621094 269.277344 97.941406 268.738281 C 102.859375 260.519531 107.78125 252.296875 112.699219 244.074219 C 113.019531 243.535156 112.179688 243.050781 111.859375 243.585938 "/><path style=" stroke:none;fill-rule:nonzero;fill:#28243d;fill-opacity:1;" d="M 97.105469 244.074219 C 102.023438 252.296875 106.941406 260.519531 111.859375 268.738281 C 112.179688 269.277344 113.019531 268.789062 112.699219 268.25 C 107.78125 260.027344 102.859375 251.808594 97.941406 243.585938 C 97.621094 243.050781 96.785156 243.535156 97.105469 244.074219 "/><path style=" stroke:none;fill-rule:nonzero;fill:#28243d;fill-opacity:1;" d="M 106.8125 146.039062 C 99.777344 144.96875 92.6875 145.15625 85.640625 146.023438 C 85.03125 146.097656 85.023438 147.066406 85.640625 146.988281 C 92.59375 146.136719 99.613281 145.917969 106.554688 146.972656 C 107.167969 147.066406 107.429688 146.132812 106.8125 146.039062 "/><path style=" stroke:none;fill-rule:nonzero;fill:#28243d;fill-opacity:1;" d="M 105.726562 109.894531 C 99.488281 108.949219 93.234375 109.078125 86.988281 109.84375 C 85.15625 110.070312 85.132812 112.976562 86.988281 112.75 C 92.949219 112.019531 98.996094 111.796875 104.953125 112.699219 C 106.78125 112.976562 107.574219 110.175781 105.726562 109.894531 "/><path style=" stroke:none;fill-rule:nonzero;fill:#28243d;fill-opacity:1;" d="M 111.886719 216.5 C 101.605469 214.921875 91.253906 215.164062 80.953125 216.429688 C 79.917969 216.558594 79.015625 217.230469 79.015625 218.367188 C 79.015625 219.316406 79.910156 220.433594 80.953125 220.304688 C 90.875 219.085938 100.945312 218.71875 110.855469 220.238281 C 111.890625 220.394531 112.941406 219.976562 113.242188 218.882812 C 113.492188 217.964844 112.929688 216.660156 111.886719 216.5 "/><path style=" stroke:none;fill-rule:nonzero;fill:#28243d;fill-opacity:1;" d="M 111.5 243.933594 C 101.355469 242.378906 91.113281 242.664062 80.953125 243.914062 C 80.34375 243.988281 80.335938 244.960938 80.953125 244.882812 C 91.019531 243.644531 101.191406 243.324219 111.242188 244.867188 C 111.855469 244.960938 112.117188 244.027344 111.5 243.933594 "/><path style=" stroke:none;fill-rule:nonzero;fill:#28243d;fill-opacity:1;" d="M 112.136719 269.125 C 101.570312 267.503906 90.898438 267.808594 80.316406 269.109375 C 79.707031 269.183594 79.699219 270.152344 80.316406 270.078125 C 90.804688 268.785156 101.40625 268.453125 111.878906 270.058594 C 112.488281 270.152344 112.753906 269.21875 112.136719 269.125 "/><path style=" stroke:none;fill-rule:nonzero;fill:#28243d;fill-opacity:1;" d="M 108.046875 179.175781 C 100.167969 177.976562 92.21875 178.191406 84.328125 179.160156 C 83.71875 179.234375 83.710938 180.207031 84.328125 180.128906 C 92.125 179.171875 100.003906 178.921875 107.789062 180.113281 C 108.402344 180.203125 108.664062 179.269531 108.046875 179.175781 "/><path style=" stroke:none;fill-rule:nonzero;fill:#d69c81;fill-opacity:1;" d="M 139.976562 176.027344 L 132.117188 176.027344 L 132.117188 133.71875 L 139.976562 133.71875 L 139.976562 176.027344 "/><path style=" stroke:none;fill-rule:nonzero;fill:#f0e4d8;fill-opacity:1;" d="M 139.976562 137.757812 C 139.976562 137.757812 139.183594 137.164062 136.046875 137.164062 C 133.027344 137.164062 132.117188 137.757812 132.117188 137.757812 L 132.117188 133.71875 C 132.117188 133.71875 133.4375 133.128906 136.046875 133.128906 C 138.738281 133.128906 139.976562 133.71875 139.976562 133.71875 L 139.976562 137.757812 "/><path style=" stroke:none;fill-rule:nonzero;fill:#d69c81;fill-opacity:1;" d="M 135.210938 168.359375 L 127.355469 168.359375 L 127.355469 126.050781 L 135.210938 126.050781 L 135.210938 168.359375 "/><path style=" stroke:none;fill-rule:nonzero;fill:#28243d;fill-opacity:1;" d="M 135.144531 137.546875 C 135.144531 146.984375 135.144531 156.417969 135.144531 165.855469 C 135.144531 166.476562 136.113281 166.480469 136.113281 165.855469 C 136.113281 156.417969 136.113281 146.984375 136.113281 137.546875 C 136.113281 136.925781 135.144531 136.925781 135.144531 137.546875 "/><path style=" stroke:none;fill-rule:nonzero;fill:#f0e4d8;fill-opacity:1;" d="M 135.210938 130.085938 C 135.210938 130.085938 134.421875 129.496094 131.285156 129.496094 C 128.265625 129.496094 127.355469 130.085938 127.355469 130.085938 L 127.355469 126.050781 C 127.355469 126.050781 128.675781 125.457031 131.285156 125.457031 C 133.976562 125.457031 135.210938 126.050781 135.210938 126.050781 L 135.210938 130.085938 "/><path style=" stroke:none;fill-rule:nonzero;fill:#f0e4d8;fill-opacity:1;" d="M 166.710938 160.363281 L 140.710938 160.363281 L 110.191406 169.648438 L 110.191406 174.171875 L 197.234375 174.171875 L 197.234375 169.648438 L 166.710938 160.363281 "/><path style=" stroke:none;fill-rule:nonzero;fill:#ebb352;fill-opacity:1;" d="M 222.023438 215.25 L 196.277344 215.25 L 196.277344 220.796875 L 190.726562 220.796875 L 190.726562 226.621094 L 216.472656 226.621094 C 217.515625 226.621094 218.359375 227.46875 218.359375 228.507812 L 218.359375 255.367188 L 224.183594 255.367188 L 224.183594 249.820312 L 229.734375 249.820312 L 229.734375 222.960938 C 229.734375 218.164062 226.820312 215.25 222.023438 215.25 "/><path style=" stroke:none;fill-rule:nonzero;fill:#28243d;fill-opacity:1;" d="M 224.667969 245.625 C 224.667969 238.78125 224.667969 231.933594 224.667969 225.085938 C 224.667969 224.464844 223.699219 224.460938 223.699219 225.085938 C 223.699219 231.933594 223.699219 238.78125 223.699219 245.625 C 223.699219 246.25 224.667969 246.25 224.667969 245.625 "/><path style=" stroke:none;fill-rule:nonzero;fill:#28243d;fill-opacity:1;" d="M 224.667969 225.085938 C 224.59375 222.488281 222.800781 220.429688 220.148438 220.3125 C 219.523438 220.285156 219.527344 221.253906 220.148438 221.28125 C 222.261719 221.375 223.640625 223.035156 223.699219 225.085938 C 223.71875 225.707031 224.6875 225.710938 224.667969 225.085938 "/><path style=" stroke:none;fill-rule:nonzero;fill:#28243d;fill-opacity:1;" d="M 220.148438 220.3125 C 212.101562 220.3125 204.050781 220.3125 196.003906 220.3125 C 195.382812 220.3125 195.378906 221.28125 196.003906 221.28125 C 204.050781 221.28125 212.101562 221.28125 220.148438 221.28125 C 220.773438 221.28125 220.773438 220.3125 220.148438 220.3125 "/><path style=" stroke:none;fill-rule:nonzero;fill:#28243d;fill-opacity:1;" d="M 208.238281 215.851562 C 208.238281 219.28125 208.238281 222.707031 208.238281 226.136719 C 208.238281 226.757812 209.207031 226.761719 209.207031 226.136719 C 209.207031 222.707031 209.207031 219.28125 209.207031 215.851562 C 209.207031 215.230469 208.238281 215.226562 208.238281 215.851562 "/><path style=" stroke:none;fill-rule:nonzero;fill:#28243d;fill-opacity:1;" d="M 170.382812 169.992188 C 170.382812 171.414062 170.382812 172.832031 170.382812 174.25 C 170.382812 174.875 171.351562 174.875 171.351562 174.25 C 171.351562 172.832031 171.351562 171.414062 171.351562 169.992188 C 171.351562 169.371094 170.382812 169.367188 170.382812 169.992188 "/><path style=" stroke:none;fill-rule:nonzero;fill:#28243d;fill-opacity:1;" d="M 170.867188 170.476562 C 179.492188 170.476562 188.121094 170.476562 196.746094 170.476562 C 197.371094 170.476562 197.371094 169.507812 196.746094 169.507812 C 188.121094 169.507812 179.492188 169.507812 170.867188 169.507812 C 170.242188 169.507812 170.242188 170.476562 170.867188 170.476562 "/><path style=" stroke:none;fill-rule:nonzero;fill:#28243d;fill-opacity:1;" d="M 140.730469 161.296875 C 149.226562 163.890625 157.726562 166.488281 166.222656 169.082031 C 167.726562 169.542969 169.234375 170 170.738281 170.460938 C 171.335938 170.644531 171.589844 169.707031 170.996094 169.527344 C 162.496094 166.929688 154 164.335938 145.5 161.742188 C 143.996094 161.28125 142.492188 160.820312 140.988281 160.363281 C 140.390625 160.179688 140.132812 161.113281 140.730469 161.296875 "/><g clip-rule="nonzero" clip-path="url(#2021cde420)"><path style=" stroke:none;fill-rule:nonzero;fill:#f0e4d8;fill-opacity:1;" d="M 201.191406 288.335938 L 106.234375 288.335938 L 106.234375 174.171875 L 201.191406 174.171875 L 201.191406 288.335938 "/></g><path style=" stroke:none;fill-rule:nonzero;fill:#28243d;fill-opacity:1;" d="M 110.191406 174.734375 C 120.449219 174.734375 130.707031 174.734375 140.964844 174.734375 C 155.316406 174.734375 169.671875 174.734375 184.027344 174.734375 C 188.429688 174.734375 192.832031 174.734375 197.234375 174.734375 C 197.855469 174.734375 197.855469 173.765625 197.234375 173.765625 C 186.976562 173.765625 176.71875 173.765625 166.460938 173.765625 C 152.105469 173.765625 137.753906 173.765625 123.398438 173.765625 C 118.996094 173.765625 114.59375 173.765625 110.191406 173.765625 C 109.570312 173.765625 109.566406 174.734375 110.191406 174.734375 "/><path style=" stroke:none;fill-rule:nonzero;fill:#28243d;fill-opacity:1;" d="M 175.480469 253.648438 C 175.480469 244.34375 175.480469 235.039062 175.480469 225.734375 C 175.480469 212.757812 175.480469 199.78125 175.480469 186.804688 C 175.480469 182.753906 175.480469 178.703125 175.480469 174.648438 C 175.480469 174.027344 174.511719 174.023438 174.511719 174.648438 C 174.511719 183.953125 174.511719 193.261719 174.511719 202.566406 C 174.511719 215.542969 174.511719 228.515625 174.511719 241.492188 C 174.511719 245.546875 174.511719 249.597656 174.511719 253.648438 C 174.511719 254.273438 175.480469 254.273438 175.480469 253.648438 "/><path style=" stroke:none;fill-rule:nonzero;fill:#28243d;fill-opacity:1;" d="M 184.742188 198.609375 L 181.191406 198.609375 L 181.191406 184.9375 L 184.742188 184.9375 L 184.742188 198.609375 "/><path style=" stroke:none;fill-rule:nonzero;fill:#28243d;fill-opacity:1;" d="M 196.746094 213.613281 L 193.191406 213.613281 L 193.191406 199.941406 L 196.746094 199.941406 L 196.746094 213.613281 "/><path style=" stroke:none;fill-rule:nonzero;fill:#28243d;fill-opacity:1;" d="M 184.683594 228.675781 L 181.128906 228.675781 L 181.128906 215.003906 L 184.683594 215.003906 L 184.683594 228.675781 "/><path style=" stroke:none;fill-rule:nonzero;fill:#86a1ba;fill-opacity:1;" d="M 116.828125 231.964844 L 116.828125 217.28125 C 116.828125 216.421875 117.527344 215.722656 118.390625 215.722656 L 139.960938 215.722656 C 140.824219 215.722656 141.523438 216.421875 141.523438 217.28125 L 141.523438 231.964844 Z M 139.960938 210.902344 L 118.390625 210.902344 C 114.417969 210.902344 112.007812 213.3125 112.007812 217.28125 L 112.007812 281.46875 L 116.828125 281.46875 L 116.828125 236.785156 L 141.523438 236.785156 L 141.523438 241.023438 L 129.910156 241.023438 C 125.9375 241.023438 123.527344 243.433594 123.527344 247.40625 L 123.527344 285.234375 L 128.347656 285.234375 L 128.347656 247.40625 C 128.347656 246.542969 129.046875 245.84375 129.910156 245.84375 L 141.523438 245.84375 L 141.523438 256.53125 L 146.34375 256.53125 L 146.34375 217.28125 C 146.34375 213.3125 143.933594 210.902344 139.960938 210.902344 "/><path style=" stroke:none;fill-rule:nonzero;fill:#28243d;fill-opacity:1;" d="M 116.703125 232.386719 C 116.703125 233.695312 116.703125 235 116.703125 236.308594 C 116.703125 236.933594 117.671875 236.933594 117.671875 236.308594 C 117.671875 235 117.671875 233.695312 117.671875 232.386719 C 117.671875 231.761719 116.703125 231.761719 116.703125 232.386719 "/><path style=" stroke:none;fill-rule:nonzero;fill:#28243d;fill-opacity:1;" d="M 140.453125 232.386719 C 140.453125 233.695312 140.453125 235 140.453125 236.308594 C 140.453125 236.933594 141.421875 236.933594 141.421875 236.308594 C 141.421875 235 141.421875 233.695312 141.421875 232.386719 C 141.421875 231.761719 140.453125 231.761719 140.453125 232.386719 "/><path style=" stroke:none;fill-rule:nonzero;fill:#28243d;fill-opacity:1;" d="M 140.453125 241.363281 C 140.453125 242.671875 140.453125 243.980469 140.453125 245.285156 C 140.453125 245.910156 141.421875 245.914062 141.421875 245.285156 C 141.421875 243.980469 141.421875 242.671875 141.421875 241.363281 C 141.421875 240.742188 140.453125 240.738281 140.453125 241.363281 "/><g clip-rule="nonzero" clip-path="url(#f2f6f87d22)"><path style=" stroke:none;fill-rule:nonzero;fill:#4ab876;fill-opacity:1;" d="M 352.730469 284.980469 C 352.730469 285.992188 352.550781 286.964844 352.21875 287.859375 L 316.175781 287.859375 C 316.425781 281.125 321.964844 275.742188 328.761719 275.742188 C 329.636719 275.742188 330.492188 275.832031 331.320312 276 C 331.34375 271.417969 335.066406 267.707031 339.65625 267.707031 C 344.261719 267.707031 347.992188 271.441406 347.992188 276.042969 C 347.992188 276.511719 347.953125 276.964844 347.878906 277.410156 C 350.742188 278.726562 352.730469 281.621094 352.730469 284.980469 "/></g><path style=" stroke:none;fill-rule:nonzero;fill:#28243d;fill-opacity:1;" d="M 331.652344 276.671875 C 334.441406 277.425781 336.734375 279.394531 337.847656 282.074219 C 338.082031 282.640625 339.019531 282.390625 338.78125 281.8125 C 337.535156 278.816406 335.054688 276.589844 331.910156 275.734375 C 331.308594 275.574219 331.050781 276.507812 331.652344 276.671875 "/><path style=" stroke:none;fill-rule:nonzero;fill:#28243d;fill-opacity:1;" d="M 336.839844 283.875 C 337.960938 282.472656 339.554688 281.695312 341.355469 281.714844 C 341.980469 281.71875 341.980469 280.753906 341.355469 280.746094 C 339.324219 280.722656 337.425781 281.601562 336.15625 283.191406 C 335.765625 283.671875 336.449219 284.363281 336.839844 283.875 "/><path style=" stroke:none;fill-rule:nonzero;fill:#28243d;fill-opacity:1;" d="M 254.265625 200.691406 C 254.265625 199.390625 254.265625 198.089844 254.265625 196.785156 C 254.265625 196.164062 253.296875 196.160156 253.296875 196.785156 C 253.296875 198.089844 253.296875 199.390625 253.296875 200.691406 C 253.296875 201.316406 254.265625 201.316406 254.265625 200.691406 "/><path style=" stroke:none;fill-rule:nonzero;fill:#28243d;fill-opacity:1;" d="M 259.835938 198.40625 C 259.835938 197.105469 259.835938 195.804688 259.835938 194.503906 C 259.835938 193.878906 258.867188 193.878906 258.867188 194.503906 C 258.867188 195.804688 258.867188 197.105469 258.867188 198.40625 C 258.867188 199.03125 259.835938 199.03125 259.835938 198.40625 "/><path style=" stroke:none;fill-rule:nonzero;fill:#28243d;fill-opacity:1;" d="M 265.273438 196.226562 C 265.273438 194.921875 265.273438 193.621094 265.273438 192.320312 C 265.273438 191.695312 264.304688 191.695312 264.304688 192.320312 C 264.304688 193.621094 264.304688 194.921875 264.304688 196.226562 C 264.304688 196.847656 265.273438 196.847656 265.273438 196.226562 "/><path style=" stroke:none;fill-rule:nonzero;fill:#28243d;fill-opacity:1;" d="M 249.257812 202.914062 C 249.257812 201.523438 249.257812 200.132812 249.257812 198.738281 C 249.257812 198.117188 248.289062 198.113281 248.289062 198.738281 C 248.289062 200.132812 248.289062 201.523438 248.289062 202.914062 C 248.289062 203.539062 249.257812 203.539062 249.257812 202.914062 "/><path style=" stroke:none;fill-rule:nonzero;fill:#28243d;fill-opacity:1;" d="M 271.167969 193.710938 C 271.167969 192.40625 271.167969 191.105469 271.167969 189.804688 C 271.167969 189.179688 270.199219 189.179688 270.199219 189.804688 C 270.199219 191.105469 270.199219 192.40625 270.199219 193.710938 C 270.199219 194.335938 271.167969 194.335938 271.167969 193.710938 "/><path style=" stroke:none;fill-rule:nonzero;fill:#86a1ba;fill-opacity:1;" d="M 270.679688 193.710938 L 248.289062 202.753906 L 248.289062 269.425781 C 248.289062 269.425781 265.085938 267.855469 270.679688 267.855469 C 276.28125 267.855469 293.074219 269.425781 293.074219 269.425781 L 293.074219 202.753906 L 270.679688 193.710938 "/><path style=" stroke:none;fill-rule:nonzero;fill:#28243d;fill-opacity:1;" d="M 274.902344 267.996094 C 274.902344 273.808594 274.902344 279.625 274.902344 285.4375 C 274.902344 286.0625 275.871094 286.0625 275.871094 285.4375 C 275.871094 279.625 275.871094 273.808594 275.871094 267.996094 C 275.871094 267.375 274.902344 267.375 274.902344 267.996094 "/><path style=" stroke:none;fill-rule:nonzero;fill:#28243d;fill-opacity:1;" d="M 248.902344 199.207031 C 256.207031 196.226562 263.507812 193.25 270.8125 190.273438 C 271.378906 190.039062 271.132812 189.101562 270.554688 189.335938 C 263.25 192.316406 255.949219 195.292969 248.644531 198.273438 C 248.078125 198.503906 248.324219 199.441406 248.902344 199.207031 "/><path style=" stroke:none;fill-rule:nonzero;fill:#28243d;fill-opacity:1;" d="M 260.300781 263.144531 C 262.238281 263.144531 264.171875 263.144531 266.105469 263.144531 C 266.730469 263.144531 266.730469 262.175781 266.105469 262.175781 C 264.171875 262.175781 262.238281 262.175781 260.300781 262.175781 C 259.679688 262.175781 259.679688 263.144531 260.300781 263.144531 "/><path style=" stroke:none;fill-rule:nonzero;fill:#28243d;fill-opacity:1;" d="M 260.300781 257.496094 C 262.238281 257.496094 264.171875 257.496094 266.105469 257.496094 C 266.730469 257.496094 266.730469 256.523438 266.105469 256.523438 C 264.171875 256.523438 262.238281 256.523438 260.300781 256.523438 C 259.679688 256.523438 259.679688 257.496094 260.300781 257.496094 "/><path style=" stroke:none;fill-rule:nonzero;fill:#28243d;fill-opacity:1;" d="M 260.300781 251.84375 C 262.238281 251.84375 264.171875 251.84375 266.105469 251.84375 C 266.730469 251.84375 266.730469 250.875 266.105469 250.875 C 264.171875 250.875 262.238281 250.875 260.300781 250.875 C 259.679688 250.875 259.679688 251.84375 260.300781 251.84375 "/><path style=" stroke:none;fill-rule:nonzero;fill:#28243d;fill-opacity:1;" d="M 260.300781 246.191406 C 262.238281 246.191406 264.171875 246.191406 266.105469 246.191406 C 266.730469 246.191406 266.730469 245.222656 266.105469 245.222656 C 264.171875 245.222656 262.238281 245.222656 260.300781 245.222656 C 259.679688 245.222656 259.679688 246.191406 260.300781 246.191406 "/><path style=" stroke:none;fill-rule:nonzero;fill:#28243d;fill-opacity:1;" d="M 260.300781 240.539062 C 262.238281 240.539062 264.171875 240.539062 266.105469 240.539062 C 266.730469 240.539062 266.730469 239.570312 266.105469 239.570312 C 264.171875 239.570312 262.238281 239.570312 260.300781 239.570312 C 259.679688 239.570312 259.679688 240.539062 260.300781 240.539062 "/><path style=" stroke:none;fill-rule:nonzero;fill:#28243d;fill-opacity:1;" d="M 260.300781 229.234375 C 262.238281 229.234375 264.171875 229.234375 266.105469 229.234375 C 266.730469 229.234375 266.730469 228.265625 266.105469 228.265625 C 264.171875 228.265625 262.238281 228.265625 260.300781 228.265625 C 259.679688 228.265625 259.679688 229.234375 260.300781 229.234375 "/><path style=" stroke:none;fill-rule:nonzero;fill:#28243d;fill-opacity:1;" d="M 260.300781 223.582031 C 262.238281 223.582031 264.171875 223.582031 266.105469 223.582031 C 266.730469 223.582031 266.730469 222.617188 266.105469 222.617188 C 264.171875 222.617188 262.238281 222.617188 260.300781 222.617188 C 259.679688 222.617188 259.679688 223.582031 260.300781 223.582031 "/><path style=" stroke:none;fill-rule:nonzero;fill:#28243d;fill-opacity:1;" d="M 260.300781 217.933594 C 262.238281 217.933594 264.171875 217.933594 266.105469 217.933594 C 266.730469 217.933594 266.730469 216.964844 266.105469 216.964844 C 264.171875 216.964844 262.238281 216.964844 260.300781 216.964844 C 259.679688 216.964844 259.679688 217.933594 260.300781 217.933594 "/><path style=" stroke:none;fill-rule:nonzero;fill:#28243d;fill-opacity:1;" d="M 260.300781 212.28125 C 262.238281 212.28125 264.171875 212.28125 266.105469 212.28125 C 266.730469 212.28125 266.730469 211.3125 266.105469 211.3125 C 264.171875 211.3125 262.238281 211.3125 260.300781 211.3125 C 259.679688 211.3125 259.679688 212.28125 260.300781 212.28125 "/><path style=" stroke:none;fill-rule:nonzero;fill:#28243d;fill-opacity:1;" d="M 260.300781 206.628906 C 262.238281 206.628906 264.171875 206.628906 266.105469 206.628906 C 266.730469 206.628906 266.730469 205.660156 266.105469 205.660156 C 264.171875 205.660156 262.238281 205.660156 260.300781 205.660156 C 259.679688 205.660156 259.679688 206.628906 260.300781 206.628906 "/><path style=" stroke:none;fill-rule:nonzero;fill:#28243d;fill-opacity:1;" d="M 265.621094 201.945312 C 265.621094 218.816406 265.621094 235.6875 265.621094 252.558594 C 265.621094 256.195312 265.621094 259.832031 265.621094 263.46875 C 265.621094 264.09375 266.589844 264.09375 266.589844 263.46875 C 266.589844 246.597656 266.589844 229.726562 266.589844 212.855469 C 266.589844 209.21875 266.589844 205.582031 266.589844 201.945312 C 266.589844 201.320312 265.621094 201.320312 265.621094 201.945312 "/><path style=" stroke:none;fill-rule:nonzero;fill:#28243d;fill-opacity:1;" d="M 259.820312 201.945312 C 259.820312 218.816406 259.820312 235.6875 259.820312 252.558594 C 259.820312 256.195312 259.820312 259.832031 259.820312 263.46875 C 259.820312 264.09375 260.789062 264.09375 260.789062 263.46875 C 260.789062 246.597656 260.789062 229.726562 260.789062 212.855469 C 260.789062 209.21875 260.789062 205.582031 260.789062 201.945312 C 260.789062 201.320312 259.820312 201.320312 259.820312 201.945312 "/><path style=" stroke:none;fill-rule:nonzero;fill:#28243d;fill-opacity:1;" d="M 292.621094 234.726562 C 278.019531 232.886719 263.296875 233.253906 248.679688 234.726562 C 248.066406 234.789062 248.058594 235.757812 248.679688 235.695312 C 263.296875 234.222656 278.019531 233.855469 292.621094 235.695312 C 293.238281 235.773438 293.234375 234.804688 292.621094 234.726562 "/><path style=" stroke:none;fill-rule:nonzero;fill:#28243d;fill-opacity:1;" d="M 292.621094 268.640625 C 278.019531 266.800781 263.296875 267.167969 248.679688 268.640625 C 248.066406 268.703125 248.058594 269.671875 248.679688 269.609375 C 263.296875 268.136719 278.019531 267.769531 292.621094 269.609375 C 293.238281 269.6875 293.234375 268.71875 292.621094 268.640625 "/><path style=" stroke:none;fill-rule:nonzero;fill:#28243d;fill-opacity:1;" d="M 292.621094 202.269531 C 278.019531 200.429688 263.296875 200.796875 248.679688 202.269531 C 248.066406 202.332031 248.058594 203.300781 248.679688 203.238281 C 263.296875 201.765625 278.019531 201.398438 292.621094 203.238281 C 293.238281 203.316406 293.234375 202.34375 292.621094 202.269531 "/><g clip-rule="nonzero" clip-path="url(#8874bd8871)"><path style=" stroke:none;fill-rule:nonzero;fill:#4ab876;fill-opacity:1;" d="M 303.402344 288.335938 L 250.394531 288.335938 C 250.300781 287.691406 250.253906 287.027344 250.253906 286.359375 C 250.253906 285.214844 250.394531 284.101562 250.652344 283.039062 C 246.050781 281.683594 242.691406 277.433594 242.691406 272.390625 C 242.691406 266.257812 247.660156 261.289062 253.792969 261.289062 C 259.914062 261.289062 264.875 266.242188 264.894531 272.359375 C 269.78125 272.574219 274.011719 275.289062 276.347656 279.253906 C 277.621094 278.039062 279.34375 277.289062 281.246094 277.289062 C 284.699219 277.289062 287.570312 279.753906 288.207031 283.019531 C 289.835938 281.667969 291.921875 280.855469 294.203125 280.855469 C 298.738281 280.855469 302.519531 284.066406 303.402344 288.335938 "/></g><path style=" stroke:none;fill-rule:nonzero;fill:#28243d;fill-opacity:1;" d="M 256.078125 277.746094 C 258.425781 275.226562 261.464844 273.613281 264.863281 273.058594 C 265.476562 272.957031 265.214844 272.023438 264.605469 272.121094 C 261.054688 272.703125 257.84375 274.433594 255.390625 277.0625 C 254.964844 277.515625 255.648438 278.203125 256.078125 277.746094 "/><g clip-rule="nonzero" clip-path="url(#166297ace9)"><path style=" stroke:none;fill-rule:nonzero;fill:#f0e4d8;fill-opacity:1;" d="M 226.460938 284.382812 L 258.921875 284.382812 L 258.921875 288.335938 L 226.460938 288.335938 L 226.460938 284.382812 "/></g><g clip-rule="nonzero" clip-path="url(#714e3c9c8a)"><path style=" stroke:none;fill-rule:nonzero;fill:#de5337;fill-opacity:1;" d="M 237.363281 254.585938 L 237.363281 245.140625 L 218.066406 245.140625 L 203.289062 254.585938 L 201.714844 254.585938 L 201.714844 245.140625 L 182.414062 245.140625 L 167.640625 254.585938 L 166.066406 254.585938 L 166.066406 245.140625 L 146.769531 245.140625 L 131.992188 254.585938 L 125.128906 254.585938 L 125.128906 288.335938 L 252.21875 288.335938 L 252.21875 254.585938 L 237.363281 254.585938 "/></g><path style=" stroke:none;fill-rule:nonzero;fill:#28243d;fill-opacity:1;" d="M 212.816406 284.355469 L 191.660156 284.355469 L 191.660156 263.566406 L 212.816406 263.566406 L 212.816406 284.355469 "/><path style=" stroke:none;fill-rule:nonzero;fill:#de5337;fill-opacity:1;" d="M 201.753906 262.378906 C 201.753906 269.910156 201.753906 277.441406 201.753906 284.976562 C 201.753906 285.597656 202.722656 285.601562 202.722656 284.976562 C 202.722656 277.441406 202.722656 269.910156 202.722656 262.378906 C 202.722656 261.753906 201.753906 261.753906 201.753906 262.378906 "/><path style=" stroke:none;fill-rule:nonzero;fill:#de5337;fill-opacity:1;" d="M 207.003906 262.378906 C 207.003906 269.910156 207.003906 277.441406 207.003906 284.976562 C 207.003906 285.597656 207.972656 285.601562 207.972656 284.976562 C 207.972656 277.441406 207.972656 269.910156 207.972656 262.378906 C 207.972656 261.753906 207.003906 261.753906 207.003906 262.378906 "/><path style=" stroke:none;fill-rule:nonzero;fill:#de5337;fill-opacity:1;" d="M 196.386719 262.378906 C 196.386719 269.910156 196.386719 277.441406 196.386719 284.976562 C 196.386719 285.597656 197.351562 285.601562 197.351562 284.976562 C 197.351562 277.441406 197.351562 269.910156 197.351562 262.378906 C 197.351562 261.753906 196.386719 261.753906 196.386719 262.378906 "/><path style=" stroke:none;fill-rule:nonzero;fill:#de5337;fill-opacity:1;" d="M 213.191406 273.191406 C 205.855469 273.191406 198.515625 273.191406 191.175781 273.191406 C 190.550781 273.191406 190.550781 274.160156 191.175781 274.160156 C 198.515625 274.160156 205.855469 274.160156 213.191406 274.160156 C 213.816406 274.160156 213.816406 273.191406 213.191406 273.191406 "/><path style=" stroke:none;fill-rule:nonzero;fill:#28243d;fill-opacity:1;" d="M 181.640625 284.355469 L 160.488281 284.355469 L 160.488281 263.566406 L 181.640625 263.566406 L 181.640625 284.355469 "/><path style=" stroke:none;fill-rule:nonzero;fill:#de5337;fill-opacity:1;" d="M 170.582031 262.378906 C 170.582031 269.910156 170.582031 277.441406 170.582031 284.976562 C 170.582031 285.597656 171.550781 285.601562 171.550781 284.976562 C 171.550781 277.441406 171.550781 269.910156 171.550781 262.378906 C 171.550781 261.753906 170.582031 261.753906 170.582031 262.378906 "/><path style=" stroke:none;fill-rule:nonzero;fill:#de5337;fill-opacity:1;" d="M 175.828125 262.378906 C 175.828125 269.910156 175.828125 277.441406 175.828125 284.976562 C 175.828125 285.597656 176.796875 285.601562 176.796875 284.976562 C 176.796875 277.441406 176.796875 269.910156 176.796875 262.378906 C 176.796875 261.753906 175.828125 261.753906 175.828125 262.378906 "/><path style=" stroke:none;fill-rule:nonzero;fill:#de5337;fill-opacity:1;" d="M 165.210938 262.378906 C 165.210938 269.910156 165.210938 277.441406 165.210938 284.976562 C 165.210938 285.597656 166.179688 285.601562 166.179688 284.976562 C 166.179688 277.441406 166.179688 269.910156 166.179688 262.378906 C 166.179688 261.753906 165.210938 261.753906 165.210938 262.378906 "/><path style=" stroke:none;fill-rule:nonzero;fill:#de5337;fill-opacity:1;" d="M 182.019531 273.191406 C 174.679688 273.191406 167.339844 273.191406 160.003906 273.191406 C 159.378906 273.191406 159.378906 274.160156 160.003906 274.160156 C 167.339844 274.160156 174.679688 274.160156 182.019531 274.160156 C 182.640625 274.160156 182.644531 273.191406 182.019531 273.191406 "/><path style=" stroke:none;fill-rule:nonzero;fill:#28243d;fill-opacity:1;" d="M 150.46875 284.355469 L 129.3125 284.355469 L 129.3125 263.566406 L 150.46875 263.566406 L 150.46875 284.355469 "/><path style=" stroke:none;fill-rule:nonzero;fill:#de5337;fill-opacity:1;" d="M 139.40625 262.378906 C 139.40625 269.910156 139.40625 277.441406 139.40625 284.976562 C 139.40625 285.597656 140.375 285.601562 140.375 284.976562 C 140.375 277.441406 140.375 269.910156 140.375 262.378906 C 140.375 261.753906 139.40625 261.753906 139.40625 262.378906 "/><path style=" stroke:none;fill-rule:nonzero;fill:#de5337;fill-opacity:1;" d="M 144.65625 262.378906 C 144.65625 269.910156 144.65625 277.441406 144.65625 284.976562 C 144.65625 285.597656 145.625 285.601562 145.625 284.976562 C 145.625 277.441406 145.625 269.910156 145.625 262.378906 C 145.625 261.753906 144.65625 261.753906 144.65625 262.378906 "/><path style=" stroke:none;fill-rule:nonzero;fill:#de5337;fill-opacity:1;" d="M 134.039062 262.378906 C 134.039062 269.910156 134.039062 277.441406 134.039062 284.976562 C 134.039062 285.597656 135.007812 285.601562 135.007812 284.976562 C 135.007812 277.441406 135.007812 269.910156 135.007812 262.378906 C 135.007812 261.753906 134.039062 261.753906 134.039062 262.378906 "/><path style=" stroke:none;fill-rule:nonzero;fill:#de5337;fill-opacity:1;" d="M 150.84375 273.191406 C 143.507812 273.191406 136.167969 273.191406 128.828125 273.191406 C 128.207031 273.191406 128.207031 274.160156 128.828125 274.160156 C 136.167969 274.160156 143.507812 274.160156 150.84375 274.160156 C 151.46875 274.160156 151.46875 273.191406 150.84375 273.191406 "/><path style=" stroke:none;fill-rule:nonzero;fill:#28243d;fill-opacity:1;" d="M 125.695312 257.816406 C 142.132812 257.816406 158.566406 257.816406 175.003906 257.816406 C 191.578125 257.816406 208.15625 257.816406 224.730469 257.816406 C 234 257.816406 243.269531 257.816406 252.542969 257.816406 C 253.164062 257.816406 253.164062 256.847656 252.542969 256.847656 C 236.105469 256.847656 219.667969 256.847656 203.230469 256.847656 C 186.65625 256.847656 170.082031 256.847656 153.503906 256.847656 C 144.234375 256.847656 134.964844 256.847656 125.695312 256.847656 C 125.070312 256.847656 125.070312 257.816406 125.695312 257.816406 "/><path style=" stroke:none;fill-rule:nonzero;fill:#28243d;fill-opacity:1;" d="M 233.851562 254.585938 L 221.574219 254.585938 L 221.574219 246.835938 L 233.851562 246.835938 L 233.851562 254.585938 "/><path style=" stroke:none;fill-rule:nonzero;fill:#de5337;fill-opacity:1;" d="M 220.890625 250.875 C 225.789062 250.875 230.6875 250.875 235.585938 250.875 C 236.210938 250.875 236.210938 249.90625 235.585938 249.90625 C 230.6875 249.90625 225.789062 249.90625 220.890625 249.90625 C 220.265625 249.90625 220.265625 250.875 220.890625 250.875 "/><path style=" stroke:none;fill-rule:nonzero;fill:#de5337;fill-opacity:1;" d="M 227.347656 246.109375 C 227.347656 248.910156 227.347656 251.707031 227.347656 254.507812 C 227.347656 255.128906 228.320312 255.132812 228.320312 254.507812 C 228.320312 251.707031 228.320312 248.910156 228.320312 246.109375 C 228.320312 245.488281 227.347656 245.484375 227.347656 246.109375 "/><path style=" stroke:none;fill-rule:nonzero;fill:#28243d;fill-opacity:1;" d="M 217.660156 245.625 C 217.660156 248.449219 217.660156 251.277344 217.660156 254.101562 C 217.660156 254.726562 218.628906 254.726562 218.628906 254.101562 C 218.628906 251.277344 218.628906 248.449219 218.628906 245.625 C 218.628906 245.003906 217.660156 245 217.660156 245.625 "/><path style=" stroke:none;fill-rule:nonzero;fill:#28243d;fill-opacity:1;" d="M 236.894531 253.617188 C 226.25 253.617188 215.605469 253.617188 204.960938 253.617188 C 204.335938 253.617188 204.335938 254.585938 204.960938 254.585938 C 215.605469 254.585938 226.25 254.585938 236.894531 254.585938 C 237.515625 254.585938 237.515625 253.617188 236.894531 253.617188 "/><path style=" stroke:none;fill-rule:nonzero;fill:#28243d;fill-opacity:1;" d="M 198.203125 254.585938 L 185.925781 254.585938 L 185.925781 246.835938 L 198.203125 246.835938 L 198.203125 254.585938 "/><path style=" stroke:none;fill-rule:nonzero;fill:#de5337;fill-opacity:1;" d="M 185.242188 250.875 C 190.140625 250.875 195.039062 250.875 199.9375 250.875 C 200.5625 250.875 200.5625 249.90625 199.9375 249.90625 C 195.039062 249.90625 190.140625 249.90625 185.242188 249.90625 C 184.617188 249.90625 184.617188 250.875 185.242188 250.875 "/><path style=" stroke:none;fill-rule:nonzero;fill:#de5337;fill-opacity:1;" d="M 191.703125 246.109375 C 191.703125 248.910156 191.703125 251.707031 191.703125 254.507812 C 191.703125 255.128906 192.671875 255.132812 192.671875 254.507812 C 192.671875 251.707031 192.671875 248.910156 192.671875 246.109375 C 192.671875 245.488281 191.703125 245.484375 191.703125 246.109375 "/><path style=" stroke:none;fill-rule:nonzero;fill:#28243d;fill-opacity:1;" d="M 182.011719 245.625 C 182.011719 248.449219 182.011719 251.277344 182.011719 254.101562 C 182.011719 254.726562 182.980469 254.726562 182.980469 254.101562 C 182.980469 251.277344 182.980469 248.449219 182.980469 245.625 C 182.980469 245.003906 182.011719 245 182.011719 245.625 "/><path style=" stroke:none;fill-rule:nonzero;fill:#28243d;fill-opacity:1;" d="M 201.246094 253.617188 C 190.601562 253.617188 179.957031 253.617188 169.3125 253.617188 C 168.6875 253.617188 168.6875 254.585938 169.3125 254.585938 C 179.957031 254.585938 190.601562 254.585938 201.246094 254.585938 C 201.867188 254.585938 201.867188 253.617188 201.246094 253.617188 "/><path style=" stroke:none;fill-rule:nonzero;fill:#28243d;fill-opacity:1;" d="M 162.558594 254.585938 L 150.277344 254.585938 L 150.277344 246.835938 L 162.558594 246.835938 L 162.558594 254.585938 "/><path style=" stroke:none;fill-rule:nonzero;fill:#de5337;fill-opacity:1;" d="M 149.59375 250.875 C 154.492188 250.875 159.390625 250.875 164.289062 250.875 C 164.914062 250.875 164.914062 249.90625 164.289062 249.90625 C 159.390625 249.90625 154.492188 249.90625 149.59375 249.90625 C 148.972656 249.90625 148.96875 250.875 149.59375 250.875 "/><path style=" stroke:none;fill-rule:nonzero;fill:#de5337;fill-opacity:1;" d="M 156.054688 246.109375 C 156.054688 248.910156 156.054688 251.707031 156.054688 254.507812 C 156.054688 255.128906 157.023438 255.132812 157.023438 254.507812 C 157.023438 251.707031 157.023438 248.910156 157.023438 246.109375 C 157.023438 245.488281 156.054688 245.484375 156.054688 246.109375 "/><path style=" stroke:none;fill-rule:nonzero;fill:#28243d;fill-opacity:1;" d="M 146.363281 245.625 C 146.363281 248.449219 146.363281 251.277344 146.363281 254.101562 C 146.363281 254.726562 147.332031 254.726562 147.332031 254.101562 C 147.332031 251.277344 147.332031 248.449219 147.332031 245.625 C 147.332031 245.003906 146.363281 245 146.363281 245.625 "/><path style=" stroke:none;fill-rule:nonzero;fill:#28243d;fill-opacity:1;" d="M 165.597656 253.617188 C 154.953125 253.617188 144.308594 253.617188 133.664062 253.617188 C 133.042969 253.617188 133.039062 254.585938 133.664062 254.585938 C 144.308594 254.585938 154.953125 254.585938 165.597656 254.585938 C 166.21875 254.585938 166.222656 253.617188 165.597656 253.617188 "/><g clip-rule="nonzero" clip-path="url(#d084211a87)"><path style=" stroke:none;fill-rule:nonzero;fill:#de5337;fill-opacity:1;" d="M 125.128906 284.382812 L 258.921875 284.382812 L 258.921875 288.335938 L 125.128906 288.335938 L 125.128906 284.382812 "/></g><path style=" stroke:none;fill-rule:nonzero;fill:#28243d;fill-opacity:1;" d="M 248.289062 284.382812 L 239.570312 284.382812 L 239.570312 275.070312 C 239.570312 270.289062 241.523438 267.855469 243.929688 267.855469 C 246.335938 267.855469 248.289062 270.289062 248.289062 275.070312 L 248.289062 284.382812 "/><path style=" stroke:none;fill-rule:nonzero;fill:#28243d;fill-opacity:1;" d="M 234.484375 284.382812 L 225.761719 284.382812 L 225.761719 275.070312 C 225.761719 270.289062 227.714844 267.855469 230.121094 267.855469 C 232.53125 267.855469 234.484375 270.289062 234.484375 275.070312 L 234.484375 284.382812 "/><path style=" stroke:none;fill-rule:nonzero;fill:#28243d;fill-opacity:1;" d="M 251.734375 283.546875 C 246.65625 283.546875 241.582031 283.546875 236.507812 283.546875 C 226.828125 283.546875 217.144531 283.546875 207.464844 283.546875 C 196.128906 283.546875 184.796875 283.546875 173.460938 283.546875 C 163.421875 283.546875 153.378906 283.546875 143.339844 283.546875 C 137.542969 283.546875 131.746094 283.546875 125.953125 283.546875 C 125.675781 283.546875 125.402344 283.546875 125.128906 283.546875 C 124.503906 283.546875 124.503906 284.515625 125.128906 284.515625 C 130.203125 284.515625 135.28125 284.515625 140.355469 284.515625 C 150.035156 284.515625 159.714844 284.515625 169.398438 284.515625 C 180.730469 284.515625 192.066406 284.515625 203.402344 284.515625 C 213.441406 284.515625 223.484375 284.515625 233.523438 284.515625 C 239.320312 284.515625 245.117188 284.515625 250.910156 284.515625 C 251.183594 284.515625 251.460938 284.515625 251.734375 284.515625 C 252.359375 284.515625 252.359375 283.546875 251.734375 283.546875 "/><path style=" stroke:none;fill-rule:nonzero;fill:#28243d;fill-opacity:1;" d="M 221.914062 254.101562 C 221.914062 264.078125 221.914062 274.054688 221.914062 284.03125 C 221.914062 284.65625 222.882812 284.65625 222.882812 284.03125 C 222.882812 274.054688 222.882812 264.078125 222.882812 254.101562 C 222.882812 253.476562 221.914062 253.476562 221.914062 254.101562 "/><g clip-rule="nonzero" clip-path="url(#db6f34e5e4)"><path style=" stroke:none;fill-rule:nonzero;fill:#28243d;fill-opacity:1;" d="M 229.386719 287.859375 C 229.386719 286.585938 229.386719 285.308594 229.386719 284.03125 C 229.386719 283.40625 228.417969 283.40625 228.417969 284.03125 C 228.417969 285.308594 228.417969 286.585938 228.417969 287.859375 C 228.417969 288.484375 229.386719 288.484375 229.386719 287.859375 "/></g><g clip-rule="nonzero" clip-path="url(#693f099c6c)"><path style=" stroke:none;fill-rule:nonzero;fill:#4ab876;fill-opacity:1;" d="M 134.132812 288.335938 L 22.121094 288.335938 C 24.007812 280.902344 30.746094 275.402344 38.765625 275.402344 C 38.988281 275.402344 39.203125 275.40625 39.421875 275.417969 C 39.234375 274.289062 39.140625 273.128906 39.140625 271.945312 C 39.140625 260.222656 48.648438 250.710938 60.371094 250.710938 C 68.199219 250.710938 75.039062 254.945312 78.71875 261.25 C 87.164062 263 93.925781 269.339844 96.289062 277.542969 C 98.574219 274.089844 102.484375 271.816406 106.929688 271.816406 C 112.089844 271.816406 116.53125 274.878906 118.542969 279.28125 C 120.015625 278.519531 121.683594 278.082031 123.457031 278.082031 C 129.214844 278.082031 133.910156 282.632812 134.132812 288.335938 "/></g><path style=" stroke:none;fill-rule:nonzero;fill:#f0e4d8;fill-opacity:1;" d="M 303.894531 214.148438 L 285.648438 221.519531 L 285.648438 274.570312 C 285.648438 274.570312 299.910156 273.054688 304.683594 273.070312 C 309.066406 273.085938 322.140625 274.570312 322.140625 274.570312 L 322.140625 221.519531 L 303.894531 214.148438 "/><path style=" stroke:none;fill-rule:nonzero;fill:#28243d;fill-opacity:1;" d="M 304.378906 214.148438 C 304.378906 212.0625 304.378906 209.980469 304.378906 207.894531 C 304.378906 207.269531 303.410156 207.269531 303.410156 207.894531 C 303.410156 209.980469 303.410156 212.0625 303.410156 214.148438 C 303.410156 214.773438 304.378906 214.773438 304.378906 214.148438 "/><path style=" stroke:none;fill-rule:nonzero;fill:#28243d;fill-opacity:1;" d="M 321.945312 221.339844 C 309.960938 219.5 297.855469 219.847656 285.855469 221.324219 C 285.242188 221.398438 285.234375 222.367188 285.855469 222.292969 C 297.761719 220.828125 309.796875 220.449219 321.6875 222.273438 C 322.300781 222.367188 322.5625 221.433594 321.945312 221.339844 "/><path style=" stroke:none;fill-rule:nonzero;fill:#28243d;fill-opacity:1;" d="M 321.335938 271.207031 C 321.335938 276.578125 321.335938 281.945312 321.335938 287.316406 C 321.335938 287.9375 322.300781 287.9375 322.300781 287.316406 C 322.300781 281.945312 322.300781 276.578125 322.300781 271.207031 C 322.300781 270.582031 321.335938 270.582031 321.335938 271.207031 "/><g clip-rule="nonzero" clip-path="url(#a73c3d0562)"><path style=" stroke:none;fill-rule:nonzero;fill:#28243d;fill-opacity:1;" d="M 285.566406 271.207031 C 285.566406 276.757812 285.566406 282.308594 285.566406 287.859375 C 285.566406 288.484375 286.535156 288.484375 286.535156 287.859375 C 286.535156 282.308594 286.535156 276.757812 286.535156 271.207031 C 286.535156 270.582031 285.566406 270.582031 285.566406 271.207031 "/></g><g clip-rule="nonzero" clip-path="url(#e4e54448e6)"><path style=" stroke:none;fill-rule:nonzero;fill:#28243d;fill-opacity:1;" d="M 298.160156 270.09375 C 298.160156 276.015625 298.160156 281.9375 298.160156 287.859375 C 298.160156 288.484375 299.128906 288.484375 299.128906 287.859375 C 299.128906 281.9375 299.128906 276.015625 299.128906 270.09375 C 299.128906 269.472656 298.160156 269.472656 298.160156 270.09375 "/></g><path style=" stroke:none;fill-rule:nonzero;fill:#28243d;fill-opacity:1;" d="M 321.863281 285.09375 C 314.21875 281.613281 306.574219 278.132812 298.933594 274.65625 C 298.367188 274.398438 297.875 275.234375 298.445312 275.492188 C 306.085938 278.972656 313.730469 282.449219 321.371094 285.929688 C 321.9375 286.183594 322.429688 285.351562 321.863281 285.09375 "/><path style=" stroke:none;fill-rule:nonzero;fill:#28243d;fill-opacity:1;" d="M 298.933594 286.019531 C 306.613281 282.523438 314.292969 279.027344 321.976562 275.53125 C 322.542969 275.273438 322.050781 274.4375 321.488281 274.695312 C 313.804688 278.191406 306.125 281.6875 298.445312 285.183594 C 297.875 285.441406 298.367188 286.277344 298.933594 286.019531 "/><path style=" stroke:none;fill-rule:nonzero;fill:#28243d;fill-opacity:1;" d="M 298.96875 285.167969 C 294.832031 281.691406 290.691406 278.210938 286.554688 274.730469 C 286.078125 274.332031 285.390625 275.015625 285.867188 275.414062 C 290.007812 278.894531 294.144531 282.375 298.285156 285.855469 C 298.757812 286.253906 299.445312 285.570312 298.96875 285.167969 "/><path style=" stroke:none;fill-rule:nonzero;fill:#28243d;fill-opacity:1;" d="M 286.554688 285.945312 C 290.710938 282.449219 294.871094 278.953125 299.03125 275.457031 C 299.507812 275.054688 298.820312 274.371094 298.34375 274.769531 C 294.183594 278.265625 290.027344 281.761719 285.867188 285.261719 C 285.390625 285.660156 286.078125 286.34375 286.554688 285.945312 "/><path style=" stroke:none;fill-rule:nonzero;fill:#28243d;fill-opacity:1;" d="M 321.945312 225.253906 C 309.960938 223.414062 297.855469 223.761719 285.855469 225.238281 C 285.242188 225.3125 285.234375 226.28125 285.855469 226.207031 C 297.761719 224.742188 309.796875 224.363281 321.6875 226.1875 C 322.300781 226.28125 322.5625 225.347656 321.945312 225.253906 "/><path style=" stroke:none;fill-rule:nonzero;fill:#28243d;fill-opacity:1;" d="M 321.945312 247.523438 C 309.960938 245.683594 297.855469 246.027344 285.855469 247.503906 C 285.242188 247.582031 285.234375 248.550781 285.855469 248.472656 C 297.761719 247.007812 309.796875 246.628906 321.6875 248.457031 C 322.300781 248.550781 322.5625 247.617188 321.945312 247.523438 "/><path style=" stroke:none;fill-rule:nonzero;fill:#28243d;fill-opacity:1;" d="M 321.945312 270.738281 C 309.960938 268.898438 297.855469 269.246094 285.855469 270.722656 C 285.242188 270.796875 285.234375 271.765625 285.855469 271.691406 C 297.761719 270.226562 309.796875 269.847656 321.6875 271.671875 C 322.300781 271.765625 322.5625 270.832031 321.945312 270.738281 "/><path style=" stroke:none;fill-rule:nonzero;fill:#28243d;fill-opacity:1;" d="M 321.945312 273.859375 C 309.960938 272.023438 297.855469 272.367188 285.855469 273.84375 C 285.242188 273.917969 285.234375 274.890625 285.855469 274.8125 C 297.761719 273.347656 309.796875 272.96875 321.6875 274.796875 C 322.300781 274.890625 322.5625 273.957031 321.945312 273.859375 "/><path style=" stroke:none;fill-rule:nonzero;fill:#28243d;fill-opacity:1;" d="M 67.4375 263.734375 C 70.96875 262.316406 74.683594 261.605469 78.496094 261.707031 C 79.117188 261.722656 79.117188 260.753906 78.496094 260.734375 C 74.605469 260.632812 70.789062 261.351562 67.179688 262.800781 C 66.605469 263.03125 66.855469 263.96875 67.4375 263.734375 "/><path style=" stroke:none;fill-rule:nonzero;fill:#28243d;fill-opacity:1;" d="M 39.71875 276.003906 C 43.605469 276.683594 47 278.925781 49.109375 282.273438 C 49.441406 282.796875 50.28125 282.3125 49.945312 281.78125 C 47.714844 278.242188 44.105469 275.789062 39.976562 275.070312 C 39.367188 274.964844 39.101562 275.898438 39.71875 276.003906 "/><path style=" stroke:none;fill-rule:nonzero;fill:#28243d;fill-opacity:1;" d="M 47.433594 279.125 C 52.332031 273.753906 59.832031 271.144531 67.003906 272.386719 C 67.613281 272.492188 67.875 271.558594 67.261719 271.453125 C 59.75 270.148438 51.894531 272.800781 46.75 278.4375 C 46.332031 278.898438 47.015625 279.585938 47.433594 279.125 "/><path style=" stroke:none;fill-rule:nonzero;fill:#28243d;fill-opacity:1;" d="M 89.246094 278.359375 C 93.335938 276.839844 98.222656 278.109375 100.789062 281.710938 C 101.148438 282.214844 101.988281 281.734375 101.625 281.222656 C 98.820312 277.285156 93.507812 275.742188 88.992188 277.425781 C 88.410156 277.640625 88.664062 278.578125 89.246094 278.359375 "/></g></svg>