<svg xmlns="http://www.w3.org/2000/svg" xmlns:xlink="http://www.w3.org/1999/xlink" width="500" zoomAndPan="magnify" viewBox="0 0 375 374.999991" height="500" preserveAspectRatio="xMidYMid meet" version="1.2"><defs><clipPath id="fa7bfc716e"><path d="M 123 84 L 252 84 L 252 339.542969 L 123 339.542969 Z M 123 84 "/></clipPath></defs><g id="b6f7482319"><path style=" stroke:none;fill-rule:nonzero;fill:#5b9940;fill-opacity:1;" d="M 293.769531 296.695312 L 288.453125 296.695312 C 288.105469 296.695312 287.761719 296.660156 287.417969 296.59375 C 287.074219 296.523438 286.742188 296.425781 286.421875 296.289062 C 286.097656 296.15625 285.792969 295.992188 285.503906 295.800781 C 285.210938 295.605469 284.945312 295.386719 284.699219 295.140625 C 284.449219 294.890625 284.230469 294.625 284.035156 294.332031 C 283.84375 294.042969 283.679688 293.738281 283.546875 293.414062 C 283.410156 293.09375 283.3125 292.761719 283.242188 292.417969 C 283.175781 292.074219 283.140625 291.730469 283.140625 291.382812 C 283.140625 291.03125 283.175781 290.6875 283.242188 290.34375 C 283.3125 290.003906 283.410156 289.671875 283.546875 289.347656 C 283.679688 289.027344 283.84375 288.71875 284.035156 288.429688 C 284.230469 288.140625 284.449219 287.871094 284.699219 287.625 C 284.945312 287.378906 285.210938 287.15625 285.503906 286.964844 C 285.792969 286.769531 286.097656 286.605469 286.421875 286.472656 C 286.742188 286.339844 287.074219 286.238281 287.417969 286.167969 C 287.761719 286.101562 288.105469 286.066406 288.453125 286.066406 L 293.769531 286.066406 C 294.289062 286.066406 294.8125 286.042969 295.332031 285.992188 C 295.851562 285.941406 296.367188 285.863281 296.878906 285.761719 C 297.390625 285.660156 297.894531 285.53125 298.394531 285.382812 C 298.894531 285.230469 299.386719 285.054688 299.867188 284.855469 C 300.351562 284.65625 300.824219 284.429688 301.28125 284.183594 C 301.742188 283.9375 302.191406 283.671875 302.625 283.382812 C 303.058594 283.089844 303.476562 282.78125 303.882812 282.449219 C 304.285156 282.117188 304.671875 281.769531 305.039062 281.398438 C 305.410156 281.03125 305.761719 280.644531 306.089844 280.238281 C 306.421875 279.835938 306.734375 279.417969 307.023438 278.984375 C 307.3125 278.550781 307.582031 278.101562 307.828125 277.640625 C 308.074219 277.179688 308.296875 276.710938 308.496094 276.226562 C 308.695312 275.746094 308.871094 275.253906 309.023438 274.753906 C 309.175781 274.253906 309.300781 273.75 309.402344 273.238281 C 309.503906 272.722656 309.582031 272.207031 309.632812 271.6875 C 309.683594 271.167969 309.710938 270.648438 309.710938 270.125 L 309.710938 211.675781 C 309.710938 211.328125 309.742188 210.980469 309.8125 210.640625 C 309.878906 210.296875 309.980469 209.964844 310.113281 209.644531 C 310.246094 209.320312 310.410156 209.015625 310.605469 208.722656 C 310.800781 208.433594 311.019531 208.164062 311.265625 207.917969 C 311.511719 207.671875 311.78125 207.453125 312.070312 207.257812 C 312.359375 207.066406 312.667969 206.902344 312.988281 206.765625 C 313.3125 206.632812 313.644531 206.53125 313.988281 206.464844 C 314.328125 206.398438 314.675781 206.363281 315.023438 206.363281 C 336.035156 206.363281 336.277344 191.074219 336.277344 190.421875 C 336.277344 157.40625 320.566406 131.09375 296.25 123.378906 C 295.734375 123.214844 295.253906 122.976562 294.808594 122.667969 C 294.367188 122.355469 293.976562 121.984375 293.648438 121.558594 C 293.316406 121.128906 293.058594 120.660156 292.871094 120.148438 C 292.683594 119.640625 292.578125 119.117188 292.550781 118.574219 C 292.523438 118.035156 292.578125 117.5 292.714844 116.976562 C 292.851562 116.453125 293.0625 115.960938 293.351562 115.5 C 293.636719 115.042969 293.984375 114.636719 294.398438 114.28125 C 294.808594 113.929688 295.261719 113.644531 295.761719 113.433594 C 296.78125 112.992188 297.777344 112.5 298.746094 111.957031 C 299.714844 111.414062 300.652344 110.820312 301.558594 110.179688 C 302.464844 109.539062 303.339844 108.851562 304.171875 108.117188 C 305.007812 107.386719 305.804688 106.609375 306.558594 105.796875 C 307.3125 104.980469 308.023438 104.125 308.6875 103.234375 C 309.351562 102.347656 309.96875 101.425781 310.539062 100.46875 C 311.105469 99.515625 311.625 98.53125 312.089844 97.523438 C 312.554688 96.515625 312.96875 95.484375 313.324219 94.433594 C 313.683594 93.382812 313.988281 92.316406 314.234375 91.230469 C 314.480469 90.148438 314.671875 89.054688 314.800781 87.953125 C 314.933594 86.847656 315.007812 85.742188 315.027344 84.628906 C 315.042969 83.519531 315 82.410156 314.902344 81.304688 C 314.804688 80.195312 314.644531 79.097656 314.433594 78.007812 C 314.21875 76.917969 313.949219 75.84375 313.621094 74.78125 C 313.292969 73.71875 312.914062 72.675781 312.476562 71.652344 C 312.042969 70.632812 311.554688 69.632812 311.015625 68.664062 C 310.476562 67.691406 309.886719 66.753906 309.25 65.84375 C 308.609375 64.933594 307.925781 64.058594 307.195312 63.222656 C 306.46875 62.382812 305.695312 61.585938 304.882812 60.828125 C 304.070312 60.070312 303.21875 59.355469 302.332031 58.6875 C 301.445312 58.019531 300.527344 57.398438 299.574219 56.828125 C 298.621094 56.253906 297.640625 55.734375 296.636719 55.261719 C 295.628906 54.792969 294.601562 54.375 293.550781 54.015625 C 292.5 53.652344 291.433594 53.34375 290.351562 53.09375 C 289.269531 52.84375 288.175781 52.648438 287.074219 52.511719 C 285.96875 52.375 284.863281 52.296875 283.753906 52.273438 C 282.640625 52.253906 281.53125 52.289062 280.425781 52.386719 C 279.320312 52.480469 278.21875 52.632812 277.128906 52.84375 C 276.039062 53.050781 274.960938 53.320312 273.898438 53.640625 C 272.832031 53.964844 271.789062 54.339844 270.765625 54.773438 C 269.742188 55.203125 268.742188 55.6875 267.769531 56.222656 C 266.796875 56.757812 265.855469 57.34375 264.941406 57.980469 C 264.65625 58.171875 264.351562 58.332031 264.035156 58.464844 C 263.71875 58.597656 263.390625 58.699219 263.050781 58.765625 C 262.714844 58.835938 262.375 58.871094 262.03125 58.875 C 261.6875 58.875 261.34375 58.84375 261.007812 58.78125 C 260.667969 58.71875 260.339844 58.621094 260.019531 58.492188 C 259.699219 58.367188 259.394531 58.207031 259.105469 58.019531 C 258.816406 57.835938 258.546875 57.621094 258.300781 57.382812 C 258.050781 57.144531 257.832031 56.882812 257.632812 56.601562 C 257.4375 56.316406 257.269531 56.019531 257.128906 55.703125 C 256.992188 55.386719 256.882812 55.0625 256.808594 54.726562 C 256.730469 54.390625 256.6875 54.050781 256.679688 53.707031 C 256.671875 53.363281 256.695312 53.019531 256.75 52.679688 C 256.808594 52.339844 256.898438 52.011719 257.019531 51.6875 C 257.140625 51.367188 257.289062 51.058594 257.472656 50.765625 C 257.652344 50.472656 257.859375 50.199219 258.09375 49.945312 C 258.328125 49.695312 258.585938 49.46875 258.863281 49.265625 C 259.984375 48.472656 261.136719 47.738281 262.328125 47.058594 C 263.519531 46.382812 264.742188 45.761719 265.992188 45.199219 C 267.242188 44.640625 268.519531 44.140625 269.816406 43.703125 C 271.117188 43.265625 272.433594 42.894531 273.769531 42.582031 C 275.105469 42.273438 276.453125 42.027344 277.8125 41.847656 C 279.171875 41.667969 280.535156 41.554688 281.90625 41.507812 C 283.277344 41.460938 284.644531 41.480469 286.011719 41.566406 C 287.382812 41.648438 288.742188 41.800781 290.097656 42.015625 C 291.449219 42.234375 292.789062 42.515625 294.117188 42.863281 C 295.441406 43.207031 296.75 43.617188 298.035156 44.089844 C 299.324219 44.5625 300.585938 45.097656 301.820312 45.691406 C 303.054688 46.285156 304.257812 46.9375 305.429688 47.648438 C 306.601562 48.359375 307.738281 49.125 308.835938 49.949219 C 309.933594 50.769531 310.988281 51.640625 312.003906 52.5625 C 313.015625 53.488281 313.980469 54.457031 314.902344 55.472656 C 315.820312 56.488281 316.691406 57.546875 317.507812 58.648438 C 318.324219 59.75 319.085938 60.886719 319.792969 62.0625 C 320.5 63.234375 321.152344 64.441406 321.742188 65.679688 C 322.332031 66.917969 322.859375 68.179688 323.328125 69.46875 C 323.796875 70.757812 324.203125 72.0625 324.546875 73.390625 C 324.886719 74.71875 325.164062 76.058594 325.375 77.414062 C 325.589844 78.769531 325.734375 80.128906 325.816406 81.5 C 325.894531 82.867188 325.910156 84.238281 325.855469 85.605469 C 325.804688 86.976562 325.6875 88.339844 325.503906 89.699219 C 325.320312 91.058594 325.070312 92.402344 324.753906 93.738281 C 324.441406 95.074219 324.0625 96.390625 323.621094 97.6875 C 323.179688 98.984375 322.675781 100.257812 322.113281 101.507812 C 321.546875 102.757812 320.921875 103.976562 320.242188 105.164062 C 319.558594 106.351562 318.820312 107.507812 318.023438 108.625 C 317.230469 109.742188 316.382812 110.816406 315.484375 111.851562 C 314.585938 112.886719 313.640625 113.878906 312.648438 114.820312 C 311.652344 115.765625 310.613281 116.660156 309.535156 117.503906 C 332.558594 129.878906 346.90625 157.273438 346.90625 190.421875 C 346.90625 198.921875 341.191406 214.457031 320.335938 216.714844 L 320.335938 270.125 C 320.335938 270.996094 320.292969 271.863281 320.207031 272.730469 C 320.121094 273.59375 319.992188 274.453125 319.820312 275.308594 C 319.652344 276.160156 319.4375 277.003906 319.1875 277.835938 C 318.933594 278.667969 318.640625 279.484375 318.304688 280.289062 C 317.972656 281.09375 317.601562 281.878906 317.191406 282.644531 C 316.78125 283.410156 316.332031 284.15625 315.847656 284.878906 C 315.367188 285.601562 314.847656 286.300781 314.296875 286.972656 C 313.746094 287.644531 313.160156 288.289062 312.546875 288.902344 C 311.929688 289.519531 311.285156 290.101562 310.613281 290.65625 C 309.941406 291.207031 309.246094 291.722656 308.523438 292.207031 C 307.796875 292.691406 307.054688 293.136719 306.285156 293.546875 C 305.519531 293.957031 304.734375 294.332031 303.929688 294.664062 C 303.128906 294.996094 302.308594 295.289062 301.476562 295.542969 C 300.644531 295.796875 299.800781 296.007812 298.949219 296.179688 C 298.097656 296.351562 297.238281 296.476562 296.371094 296.5625 C 295.507812 296.652344 294.636719 296.695312 293.769531 296.695312 Z M 293.769531 296.695312 "/><path style=" stroke:none;fill-rule:nonzero;fill:#5b9940;fill-opacity:1;" d="M 245.945312 317.949219 L 240.632812 317.949219 C 240.28125 317.949219 239.9375 317.914062 239.59375 317.847656 C 239.253906 317.78125 238.921875 317.679688 238.597656 317.546875 C 238.277344 317.410156 237.96875 317.246094 237.679688 317.054688 C 237.390625 316.859375 237.121094 316.640625 236.875 316.394531 C 236.628906 316.148438 236.40625 315.878906 236.214844 315.589844 C 236.019531 315.296875 235.855469 314.992188 235.722656 314.667969 C 235.589844 314.347656 235.488281 314.015625 235.421875 313.671875 C 235.351562 313.332031 235.316406 312.984375 235.316406 312.636719 C 235.316406 312.289062 235.351562 311.941406 235.421875 311.597656 C 235.488281 311.257812 235.589844 310.925781 235.722656 310.601562 C 235.855469 310.28125 236.019531 309.972656 236.214844 309.683594 C 236.40625 309.394531 236.628906 309.125 236.875 308.878906 C 237.121094 308.632812 237.390625 308.410156 237.679688 308.21875 C 237.96875 308.023438 238.277344 307.859375 238.597656 307.726562 C 238.921875 307.59375 239.253906 307.492188 239.59375 307.425781 C 239.9375 307.355469 240.28125 307.324219 240.632812 307.324219 L 245.945312 307.324219 C 246.46875 307.324219 246.988281 307.296875 247.507812 307.246094 C 248.027344 307.195312 248.542969 307.117188 249.054688 307.015625 C 249.566406 306.914062 250.074219 306.789062 250.574219 306.636719 C 251.074219 306.484375 251.5625 306.308594 252.046875 306.109375 C 252.527344 305.910156 253 305.6875 253.460938 305.441406 C 253.921875 305.195312 254.367188 304.925781 254.800781 304.636719 C 255.234375 304.347656 255.65625 304.035156 256.058594 303.703125 C 256.460938 303.371094 256.847656 303.023438 257.21875 302.652344 C 257.585938 302.285156 257.9375 301.898438 258.269531 301.496094 C 258.597656 301.089844 258.910156 300.671875 259.199219 300.238281 C 259.488281 299.804688 259.757812 299.355469 260.003906 298.894531 C 260.25 298.433594 260.472656 297.964844 260.671875 297.480469 C 260.871094 297 261.046875 296.507812 261.199219 296.007812 C 261.351562 295.507812 261.476562 295.003906 261.582031 294.492188 C 261.683594 293.980469 261.757812 293.464844 261.808594 292.945312 C 261.859375 292.425781 261.886719 291.902344 261.886719 291.382812 L 261.886719 232.929688 C 261.886719 232.582031 261.921875 232.238281 261.988281 231.894531 C 262.058594 231.550781 262.15625 231.21875 262.292969 230.898438 C 262.425781 230.574219 262.589844 230.269531 262.78125 229.980469 C 262.976562 229.6875 263.195312 229.421875 263.441406 229.171875 C 263.691406 228.925781 263.957031 228.707031 264.25 228.511719 C 264.539062 228.320312 264.84375 228.15625 265.167969 228.023438 C 265.488281 227.886719 265.820312 227.789062 266.164062 227.71875 C 266.503906 227.652344 266.851562 227.617188 267.199219 227.617188 C 288.210938 227.617188 288.453125 212.328125 288.453125 211.675781 C 288.453125 178.664062 272.742188 152.347656 248.425781 144.632812 C 247.910156 144.46875 247.429688 144.234375 246.988281 143.921875 C 246.542969 143.609375 246.15625 143.242188 245.824219 142.8125 C 245.496094 142.382812 245.234375 141.914062 245.046875 141.40625 C 244.859375 140.894531 244.753906 140.371094 244.726562 139.832031 C 244.699219 139.289062 244.753906 138.757812 244.890625 138.230469 C 245.027344 137.707031 245.242188 137.214844 245.527344 136.753906 C 245.8125 136.296875 246.164062 135.890625 246.574219 135.535156 C 246.984375 135.183594 247.441406 134.902344 247.9375 134.6875 C 248.957031 134.246094 249.953125 133.753906 250.921875 133.210938 C 251.890625 132.667969 252.828125 132.074219 253.738281 131.433594 C 254.644531 130.792969 255.515625 130.105469 256.351562 129.371094 C 257.183594 128.640625 257.980469 127.867188 258.734375 127.050781 C 259.488281 126.234375 260.199219 125.382812 260.863281 124.492188 C 261.527344 123.601562 262.144531 122.679688 262.714844 121.722656 C 263.28125 120.769531 263.800781 119.789062 264.265625 118.777344 C 264.734375 117.769531 265.144531 116.742188 265.503906 115.6875 C 265.863281 114.636719 266.164062 113.570312 266.410156 112.484375 C 266.65625 111.402344 266.847656 110.308594 266.980469 109.207031 C 267.113281 108.101562 267.1875 106.996094 267.203125 105.886719 C 267.21875 104.773438 267.179688 103.664062 267.078125 102.558594 C 266.980469 101.453125 266.824219 100.351562 266.609375 99.261719 C 266.394531 98.171875 266.125 97.097656 265.796875 96.035156 C 265.472656 94.972656 265.089844 93.929688 264.65625 92.910156 C 264.21875 91.886719 263.730469 90.890625 263.191406 89.917969 C 262.652344 88.945312 262.0625 88.007812 261.425781 87.097656 C 260.789062 86.1875 260.105469 85.3125 259.375 84.476562 C 258.644531 83.636719 257.875 82.839844 257.0625 82.082031 C 256.246094 81.324219 255.398438 80.609375 254.511719 79.941406 C 253.621094 79.273438 252.703125 78.652344 251.75 78.082031 C 250.796875 77.507812 249.820312 76.988281 248.8125 76.515625 C 247.804688 76.046875 246.777344 75.632812 245.726562 75.269531 C 244.675781 74.90625 243.609375 74.597656 242.527344 74.347656 C 241.445312 74.097656 240.351562 73.902344 239.25 73.765625 C 238.148438 73.628906 237.039062 73.550781 235.929688 73.53125 C 234.820312 73.507812 233.710938 73.546875 232.601562 73.640625 C 231.496094 73.734375 230.394531 73.886719 229.304688 74.097656 C 228.214844 74.308594 227.136719 74.574219 226.074219 74.894531 C 225.011719 75.21875 223.96875 75.59375 222.941406 76.027344 C 221.917969 76.457031 220.921875 76.941406 219.945312 77.476562 C 218.972656 78.015625 218.03125 78.597656 217.117188 79.234375 C 216.832031 79.441406 216.53125 79.621094 216.207031 79.765625 C 215.886719 79.914062 215.554688 80.027344 215.210938 80.109375 C 214.867188 80.191406 214.519531 80.238281 214.164062 80.25 C 213.8125 80.261719 213.460938 80.238281 213.113281 80.179688 C 212.761719 80.121094 212.425781 80.027344 212.09375 79.902344 C 211.765625 79.777344 211.449219 79.617188 211.152344 79.429688 C 210.851562 79.238281 210.574219 79.023438 210.320312 78.78125 C 210.0625 78.535156 209.835938 78.269531 209.632812 77.976562 C 209.429688 77.6875 209.257812 77.382812 209.117188 77.058594 C 208.976562 76.734375 208.871094 76.398438 208.796875 76.050781 C 208.722656 75.707031 208.683594 75.359375 208.675781 75.003906 C 208.671875 74.652344 208.703125 74.300781 208.769531 73.953125 C 208.835938 73.605469 208.933594 73.269531 209.066406 72.941406 C 209.199219 72.613281 209.363281 72.300781 209.558594 72.007812 C 209.753906 71.710938 209.976562 71.441406 210.226562 71.1875 C 210.472656 70.9375 210.746094 70.714844 211.039062 70.519531 C 212.160156 69.726562 213.316406 68.992188 214.507812 68.316406 C 215.699219 67.636719 216.917969 67.015625 218.167969 66.457031 C 219.421875 65.894531 220.695312 65.394531 221.996094 64.957031 C 223.292969 64.519531 224.613281 64.148438 225.945312 63.835938 C 227.28125 63.527344 228.628906 63.28125 229.988281 63.105469 C 231.347656 62.925781 232.710938 62.8125 234.082031 62.761719 C 235.453125 62.714844 236.820312 62.734375 238.191406 62.820312 C 239.558594 62.902344 240.917969 63.054688 242.273438 63.273438 C 243.625 63.488281 244.96875 63.769531 246.292969 64.117188 C 247.621094 64.460938 248.925781 64.871094 250.214844 65.34375 C 251.5 65.816406 252.761719 66.351562 253.996094 66.945312 C 255.230469 67.539062 256.433594 68.191406 257.605469 68.90625 C 258.777344 69.617188 259.914062 70.382812 261.011719 71.203125 C 262.109375 72.023438 263.164062 72.894531 264.179688 73.820312 C 265.191406 74.742188 266.160156 75.710938 267.078125 76.726562 C 268 77.746094 268.867188 78.804688 269.683594 79.902344 C 270.5 81.003906 271.265625 82.140625 271.972656 83.316406 C 272.679688 84.492188 273.328125 85.695312 273.917969 86.933594 C 274.507812 88.171875 275.039062 89.433594 275.507812 90.722656 C 275.976562 92.011719 276.378906 93.320312 276.722656 94.644531 C 277.0625 95.972656 277.339844 97.316406 277.554688 98.667969 C 277.765625 100.023438 277.910156 101.386719 277.992188 102.753906 C 278.070312 104.121094 278.085938 105.492188 278.035156 106.859375 C 277.980469 108.230469 277.863281 109.59375 277.679688 110.953125 C 277.496094 112.3125 277.246094 113.660156 276.933594 114.992188 C 276.617188 116.328125 276.242188 117.644531 275.796875 118.941406 C 275.355469 120.238281 274.855469 121.511719 274.289062 122.761719 C 273.722656 124.011719 273.101562 125.230469 272.417969 126.417969 C 271.734375 127.609375 270.996094 128.761719 270.203125 129.878906 C 269.40625 130.996094 268.5625 132.070312 267.664062 133.105469 C 266.765625 134.140625 265.816406 135.132812 264.824219 136.074219 C 263.828125 137.019531 262.792969 137.914062 261.710938 138.757812 C 284.734375 151.132812 299.082031 178.53125 299.082031 211.675781 C 299.082031 220.179688 293.371094 235.710938 272.515625 237.96875 L 272.515625 291.382812 C 272.511719 292.25 272.46875 293.117188 272.382812 293.984375 C 272.296875 294.851562 272.167969 295.710938 272 296.5625 C 271.828125 297.414062 271.617188 298.257812 271.363281 299.089844 C 271.109375 299.921875 270.816406 300.742188 270.484375 301.542969 C 270.148438 302.347656 269.777344 303.132812 269.367188 303.898438 C 268.957031 304.667969 268.511719 305.410156 268.027344 306.132812 C 267.542969 306.859375 267.023438 307.554688 266.472656 308.226562 C 265.921875 308.898438 265.339844 309.542969 264.722656 310.160156 C 264.109375 310.773438 263.464844 311.355469 262.792969 311.910156 C 262.121094 312.460938 261.421875 312.980469 260.699219 313.460938 C 259.976562 313.945312 259.230469 314.394531 258.464844 314.804688 C 257.695312 315.214844 256.910156 315.585938 256.109375 315.917969 C 255.304688 316.253906 254.488281 316.546875 253.65625 316.796875 C 252.820312 317.050781 251.980469 317.261719 251.125 317.433594 C 250.273438 317.605469 249.414062 317.734375 248.546875 317.820312 C 247.683594 317.90625 246.816406 317.949219 245.945312 317.949219 Z M 245.945312 317.949219 "/><path style=" stroke:none;fill-rule:nonzero;fill:#5b9940;fill-opacity:1;" d="M 86.535156 296.695312 L 81.222656 296.695312 C 80.351562 296.695312 79.484375 296.652344 78.617188 296.5625 C 77.753906 296.476562 76.894531 296.351562 76.039062 296.179688 C 75.1875 296.007812 74.34375 295.796875 73.511719 295.542969 C 72.679688 295.289062 71.863281 294.996094 71.058594 294.664062 C 70.257812 294.332031 69.472656 293.957031 68.703125 293.546875 C 67.9375 293.136719 67.191406 292.691406 66.46875 292.207031 C 65.746094 291.722656 65.046875 291.207031 64.375 290.65625 C 63.703125 290.101562 63.058594 289.519531 62.445312 288.902344 C 61.828125 288.289062 61.246094 287.644531 60.695312 286.972656 C 60.140625 286.300781 59.625 285.601562 59.140625 284.878906 C 58.65625 284.15625 58.210938 283.410156 57.800781 282.644531 C 57.390625 281.878906 57.019531 281.09375 56.683594 280.289062 C 56.351562 279.484375 56.058594 278.667969 55.804688 277.835938 C 55.550781 277.003906 55.339844 276.160156 55.167969 275.308594 C 55 274.453125 54.871094 273.59375 54.785156 272.730469 C 54.699219 271.863281 54.65625 270.996094 54.652344 270.125 L 54.652344 216.714844 C 33.796875 214.457031 28.085938 198.921875 28.085938 190.421875 C 28.085938 157.273438 42.433594 129.878906 65.472656 117.503906 C 64.390625 116.660156 63.355469 115.765625 62.359375 114.820312 C 61.367188 113.878906 60.417969 112.886719 59.519531 111.851562 C 58.621094 110.816406 57.777344 109.742188 56.980469 108.625 C 56.1875 107.507812 55.449219 106.351562 54.765625 105.164062 C 54.082031 103.976562 53.460938 102.757812 52.894531 101.507812 C 52.328125 100.257812 51.828125 98.984375 51.382812 97.6875 C 50.941406 96.390625 50.566406 95.074219 50.25 93.738281 C 49.9375 92.402344 49.6875 91.058594 49.503906 89.699219 C 49.320312 88.339844 49.199219 86.976562 49.148438 85.605469 C 49.097656 84.238281 49.109375 82.867188 49.191406 81.5 C 49.273438 80.128906 49.417969 78.769531 49.628906 77.414062 C 49.84375 76.058594 50.121094 74.71875 50.460938 73.390625 C 50.804688 72.0625 51.207031 70.757812 51.675781 69.46875 C 52.144531 68.179688 52.675781 66.917969 53.265625 65.679688 C 53.855469 64.441406 54.503906 63.234375 55.210938 62.0625 C 55.917969 60.886719 56.679688 59.75 57.5 58.648438 C 58.316406 57.546875 59.183594 56.488281 60.105469 55.472656 C 61.023438 54.457031 61.992188 53.488281 63.003906 52.5625 C 64.019531 51.640625 65.074219 50.769531 66.171875 49.949219 C 67.269531 49.125 68.402344 48.359375 69.578125 47.648438 C 70.75 46.9375 71.953125 46.285156 73.1875 45.691406 C 74.421875 45.097656 75.683594 44.5625 76.96875 44.089844 C 78.257812 43.617188 79.5625 43.207031 80.890625 42.859375 C 82.214844 42.515625 83.554688 42.234375 84.910156 42.015625 C 86.265625 41.800781 87.625 41.648438 88.992188 41.566406 C 90.363281 41.480469 91.730469 41.460938 93.101562 41.507812 C 94.472656 41.554688 95.835938 41.667969 97.195312 41.847656 C 98.554688 42.027344 99.902344 42.273438 101.238281 42.582031 C 102.570312 42.894531 103.890625 43.265625 105.1875 43.703125 C 106.488281 44.140625 107.761719 44.640625 109.015625 45.199219 C 110.265625 45.761719 111.484375 46.382812 112.675781 47.058594 C 113.867188 47.738281 115.023438 48.472656 116.144531 49.265625 C 116.4375 49.460938 116.710938 49.683594 116.957031 49.933594 C 117.207031 50.183594 117.429688 50.457031 117.625 50.753906 C 117.820312 51.046875 117.984375 51.359375 118.117188 51.6875 C 118.25 52.011719 118.347656 52.351562 118.414062 52.699219 C 118.480469 53.046875 118.511719 53.394531 118.507812 53.75 C 118.5 54.101562 118.460938 54.453125 118.386719 54.796875 C 118.3125 55.144531 118.207031 55.476562 118.066406 55.800781 C 117.925781 56.125 117.753906 56.433594 117.550781 56.722656 C 117.347656 57.011719 117.121094 57.28125 116.863281 57.523438 C 116.609375 57.769531 116.332031 57.984375 116.03125 58.175781 C 115.734375 58.363281 115.417969 58.519531 115.089844 58.648438 C 114.757812 58.773438 114.421875 58.867188 114.070312 58.925781 C 113.722656 58.984375 113.371094 59.007812 113.019531 58.996094 C 112.664062 58.984375 112.316406 58.9375 111.972656 58.855469 C 111.628906 58.773438 111.296875 58.660156 110.976562 58.511719 C 110.652344 58.363281 110.351562 58.1875 110.066406 57.980469 C 109.152344 57.34375 108.210938 56.757812 107.238281 56.222656 C 106.261719 55.6875 105.265625 55.203125 104.242188 54.773438 C 103.214844 54.339844 102.171875 53.964844 101.109375 53.640625 C 100.046875 53.320312 98.96875 53.050781 97.878906 52.84375 C 96.785156 52.632812 95.6875 52.480469 94.582031 52.386719 C 93.472656 52.289062 92.363281 52.253906 91.253906 52.273438 C 90.144531 52.296875 89.035156 52.375 87.933594 52.511719 C 86.832031 52.648438 85.738281 52.84375 84.65625 53.09375 C 83.574219 53.34375 82.507812 53.652344 81.457031 54.015625 C 80.40625 54.375 79.378906 54.792969 78.371094 55.261719 C 77.363281 55.734375 76.386719 56.253906 75.433594 56.828125 C 74.480469 57.398438 73.5625 58.019531 72.671875 58.6875 C 71.785156 59.355469 70.9375 60.070312 70.121094 60.828125 C 69.308594 61.585938 68.539062 62.382812 67.808594 63.222656 C 67.078125 64.058594 66.394531 64.933594 65.757812 65.84375 C 65.121094 66.753906 64.53125 67.691406 63.992188 68.664062 C 63.453125 69.632812 62.964844 70.632812 62.527344 71.652344 C 62.09375 72.675781 61.710938 73.71875 61.386719 74.78125 C 61.058594 75.84375 60.789062 76.917969 60.574219 78.007812 C 60.359375 79.097656 60.203125 80.195312 60.105469 81.304688 C 60.003906 82.410156 59.964844 83.519531 59.980469 84.628906 C 59.996094 85.742188 60.070312 86.847656 60.203125 87.953125 C 60.335938 89.054688 60.527344 90.148438 60.773438 91.230469 C 61.019531 92.316406 61.320312 93.382812 61.679688 94.433594 C 62.039062 95.484375 62.449219 96.515625 62.917969 97.523438 C 63.382812 98.53125 63.902344 99.515625 64.46875 100.46875 C 65.039062 101.425781 65.65625 102.347656 66.320312 103.234375 C 66.984375 104.125 67.695312 104.980469 68.449219 105.796875 C 69.203125 106.609375 70 107.386719 70.832031 108.117188 C 71.667969 108.851562 72.539062 109.539062 73.445312 110.179688 C 74.355469 110.820312 75.292969 111.414062 76.261719 111.957031 C 77.230469 112.5 78.226562 112.992188 79.246094 113.433594 C 79.742188 113.644531 80.199219 113.929688 80.609375 114.28125 C 81.019531 114.636719 81.371094 115.042969 81.65625 115.5 C 81.941406 115.960938 82.15625 116.453125 82.292969 116.976562 C 82.425781 117.5 82.484375 118.035156 82.457031 118.574219 C 82.429688 119.117188 82.324219 119.640625 82.136719 120.148438 C 81.949219 120.660156 81.6875 121.128906 81.359375 121.558594 C 81.027344 121.984375 80.640625 122.355469 80.195312 122.667969 C 79.753906 122.976562 79.273438 123.214844 78.757812 123.378906 C 54.425781 131.09375 38.710938 157.40625 38.710938 190.421875 C 38.746094 192.015625 39.59375 206.363281 59.96875 206.363281 C 60.316406 206.363281 60.660156 206.398438 61.003906 206.464844 C 61.347656 206.53125 61.679688 206.632812 62 206.765625 C 62.324219 206.902344 62.628906 207.0625 62.917969 207.257812 C 63.210938 207.453125 63.476562 207.671875 63.726562 207.917969 C 63.972656 208.164062 64.191406 208.433594 64.386719 208.722656 C 64.578125 209.015625 64.742188 209.320312 64.875 209.644531 C 65.011719 209.964844 65.109375 210.296875 65.179688 210.640625 C 65.246094 210.980469 65.28125 211.328125 65.28125 211.675781 L 65.28125 270.125 C 65.28125 270.648438 65.304688 271.167969 65.359375 271.6875 C 65.410156 272.207031 65.484375 272.722656 65.585938 273.238281 C 65.6875 273.75 65.816406 274.253906 65.96875 274.753906 C 66.117188 275.253906 66.292969 275.746094 66.496094 276.226562 C 66.695312 276.710938 66.917969 277.179688 67.164062 277.640625 C 67.410156 278.101562 67.675781 278.550781 67.96875 278.984375 C 68.257812 279.417969 68.566406 279.835938 68.898438 280.238281 C 69.230469 280.644531 69.582031 281.03125 69.949219 281.398438 C 70.320312 281.769531 70.707031 282.117188 71.109375 282.449219 C 71.511719 282.78125 71.929688 283.089844 72.367188 283.382812 C 72.800781 283.671875 73.246094 283.9375 73.707031 284.183594 C 74.167969 284.429688 74.640625 284.65625 75.121094 284.855469 C 75.605469 285.054688 76.09375 285.230469 76.59375 285.382812 C 77.09375 285.53125 77.601562 285.660156 78.113281 285.761719 C 78.625 285.863281 79.140625 285.941406 79.660156 285.992188 C 80.179688 286.042969 80.699219 286.066406 81.222656 286.066406 L 86.535156 286.066406 C 86.882812 286.066406 87.230469 286.101562 87.574219 286.167969 C 87.914062 286.238281 88.246094 286.339844 88.570312 286.472656 C 88.890625 286.605469 89.199219 286.769531 89.488281 286.964844 C 89.777344 287.15625 90.046875 287.378906 90.292969 287.625 C 90.539062 287.871094 90.761719 288.140625 90.953125 288.429688 C 91.148438 288.71875 91.3125 289.027344 91.445312 289.347656 C 91.578125 289.671875 91.679688 290.003906 91.746094 290.34375 C 91.816406 290.6875 91.847656 291.03125 91.847656 291.382812 C 91.847656 291.730469 91.816406 292.074219 91.746094 292.417969 C 91.679688 292.761719 91.578125 293.09375 91.445312 293.414062 C 91.3125 293.738281 91.148438 294.042969 90.953125 294.332031 C 90.761719 294.625 90.539062 294.890625 90.292969 295.140625 C 90.046875 295.386719 89.777344 295.605469 89.488281 295.800781 C 89.199219 295.992188 88.890625 296.15625 88.570312 296.289062 C 88.246094 296.425781 87.914062 296.523438 87.574219 296.59375 C 87.230469 296.660156 86.882812 296.695312 86.535156 296.695312 Z M 86.535156 296.695312 "/><path style=" stroke:none;fill-rule:nonzero;fill:#5b9940;fill-opacity:1;" d="M 134.359375 317.949219 L 129.046875 317.949219 C 128.175781 317.949219 127.308594 317.90625 126.441406 317.820312 C 125.578125 317.734375 124.71875 317.605469 123.863281 317.433594 C 123.011719 317.261719 122.167969 317.050781 121.335938 316.796875 C 120.503906 316.546875 119.6875 316.253906 118.882812 315.917969 C 118.078125 315.585938 117.292969 315.214844 116.527344 314.804688 C 115.761719 314.394531 115.015625 313.945312 114.292969 313.460938 C 113.570312 312.980469 112.871094 312.460938 112.199219 311.910156 C 111.527344 311.355469 110.882812 310.773438 110.269531 310.160156 C 109.652344 309.542969 109.070312 308.898438 108.515625 308.226562 C 107.964844 307.554688 107.449219 306.859375 106.964844 306.132812 C 106.480469 305.410156 106.035156 304.667969 105.625 303.898438 C 105.210938 303.132812 104.839844 302.347656 104.507812 301.542969 C 104.175781 300.742188 103.882812 299.921875 103.628906 299.089844 C 103.375 298.257812 103.164062 297.414062 102.992188 296.5625 C 102.820312 295.710938 102.695312 294.851562 102.609375 293.984375 C 102.519531 293.117188 102.476562 292.25 102.476562 291.382812 L 102.476562 237.96875 C 81.621094 235.710938 75.910156 220.179688 75.910156 211.675781 C 75.910156 178.53125 90.253906 151.132812 113.296875 138.757812 C 112.214844 137.914062 111.175781 137.019531 110.183594 136.074219 C 109.1875 135.132812 108.242188 134.140625 107.34375 133.105469 C 106.445312 132.070312 105.597656 130.996094 104.804688 129.878906 C 104.011719 128.761719 103.273438 127.609375 102.589844 126.417969 C 101.90625 125.230469 101.28125 124.011719 100.71875 122.761719 C 100.152344 121.511719 99.648438 120.238281 99.207031 118.941406 C 98.765625 117.644531 98.386719 116.328125 98.074219 114.992188 C 97.757812 113.660156 97.511719 112.3125 97.328125 110.953125 C 97.140625 109.59375 97.023438 108.230469 96.972656 106.859375 C 96.921875 105.492188 96.933594 104.121094 97.015625 102.753906 C 97.09375 101.386719 97.242188 100.023438 97.453125 98.667969 C 97.664062 97.316406 97.941406 95.972656 98.285156 94.644531 C 98.625 93.320312 99.03125 92.011719 99.5 90.722656 C 99.96875 89.433594 100.496094 88.171875 101.089844 86.933594 C 101.679688 85.695312 102.328125 84.492188 103.035156 83.316406 C 103.742188 82.140625 104.503906 81.003906 105.320312 79.902344 C 106.140625 78.804688 107.007812 77.746094 107.925781 76.726562 C 108.847656 75.710938 109.8125 74.742188 110.828125 73.820312 C 111.839844 72.894531 112.898438 72.023438 113.996094 71.203125 C 115.09375 70.382812 116.226562 69.617188 117.398438 68.90625 C 118.570312 68.191406 119.773438 67.539062 121.011719 66.945312 C 122.246094 66.351562 123.507812 65.816406 124.792969 65.34375 C 126.082031 64.871094 127.386719 64.460938 128.714844 64.117188 C 130.039062 63.769531 131.378906 63.488281 132.734375 63.273438 C 134.085938 63.054688 135.449219 62.902344 136.816406 62.820312 C 138.183594 62.734375 139.554688 62.714844 140.921875 62.761719 C 142.292969 62.8125 143.660156 62.925781 145.015625 63.105469 C 146.375 63.285156 147.722656 63.527344 149.058594 63.835938 C 150.394531 64.148438 151.710938 64.519531 153.011719 64.957031 C 154.3125 65.394531 155.585938 65.894531 156.835938 66.457031 C 158.085938 67.015625 159.308594 67.636719 160.5 68.316406 C 161.691406 68.992188 162.847656 69.726562 163.964844 70.519531 C 164.246094 70.722656 164.5 70.949219 164.734375 71.203125 C 164.96875 71.453125 165.175781 71.726562 165.359375 72.019531 C 165.539062 72.3125 165.691406 72.621094 165.8125 72.941406 C 165.933594 73.265625 166.023438 73.597656 166.078125 73.9375 C 166.136719 74.273438 166.160156 74.617188 166.148438 74.960938 C 166.140625 75.304688 166.097656 75.644531 166.023438 75.980469 C 165.945312 76.316406 165.839844 76.644531 165.699219 76.957031 C 165.5625 77.273438 165.394531 77.570312 165.195312 77.855469 C 165 78.136719 164.777344 78.398438 164.527344 78.636719 C 164.28125 78.875 164.011719 79.089844 163.722656 79.277344 C 163.433594 79.464844 163.128906 79.621094 162.8125 79.75 C 162.492188 79.875 162.160156 79.972656 161.824219 80.035156 C 161.484375 80.101562 161.144531 80.128906 160.800781 80.128906 C 160.453125 80.125 160.113281 80.089844 159.777344 80.019531 C 159.4375 79.953125 159.113281 79.851562 158.792969 79.71875 C 158.476562 79.585938 158.175781 79.425781 157.886719 79.234375 C 156.976562 78.597656 156.03125 78.015625 155.058594 77.476562 C 154.085938 76.941406 153.085938 76.457031 152.0625 76.027344 C 151.039062 75.59375 149.996094 75.21875 148.933594 74.894531 C 147.871094 74.574219 146.792969 74.308594 145.699219 74.097656 C 144.609375 73.886719 143.511719 73.734375 142.402344 73.640625 C 141.296875 73.546875 140.1875 73.507812 139.078125 73.53125 C 137.964844 73.550781 136.859375 73.628906 135.757812 73.765625 C 134.652344 73.902344 133.5625 74.097656 132.480469 74.347656 C 131.398438 74.597656 130.332031 74.90625 129.28125 75.269531 C 128.230469 75.632812 127.199219 76.046875 126.195312 76.515625 C 125.1875 76.988281 124.207031 77.507812 123.253906 78.082031 C 122.304688 78.652344 121.382812 79.273438 120.496094 79.941406 C 119.609375 80.613281 118.757812 81.324219 117.945312 82.082031 C 117.132812 82.839844 116.363281 83.636719 115.632812 84.476562 C 114.902344 85.3125 114.21875 86.1875 113.582031 87.097656 C 112.941406 88.007812 112.355469 88.945312 111.8125 89.917969 C 111.273438 90.890625 110.785156 91.886719 110.351562 92.910156 C 109.914062 93.929688 109.535156 94.972656 109.207031 96.035156 C 108.882812 97.097656 108.609375 98.171875 108.398438 99.261719 C 108.183594 100.351562 108.027344 101.453125 107.925781 102.558594 C 107.828125 103.664062 107.785156 104.773438 107.804688 105.886719 C 107.820312 106.996094 107.894531 108.101562 108.027344 109.207031 C 108.160156 110.308594 108.347656 111.402344 108.597656 112.484375 C 108.84375 113.570312 109.144531 114.636719 109.503906 115.6875 C 109.863281 116.742188 110.273438 117.769531 110.738281 118.777344 C 111.207031 119.789062 111.722656 120.769531 112.292969 121.722656 C 112.859375 122.679688 113.476562 123.601562 114.144531 124.492188 C 114.808594 125.382812 115.519531 126.234375 116.273438 127.050781 C 117.027344 127.867188 117.820312 128.640625 118.65625 129.371094 C 119.492188 130.105469 120.363281 130.792969 121.269531 131.433594 C 122.175781 132.074219 123.113281 132.667969 124.085938 133.210938 C 125.054688 133.753906 126.046875 134.246094 127.066406 134.6875 C 127.566406 134.902344 128.019531 135.183594 128.433594 135.535156 C 128.84375 135.890625 129.191406 136.296875 129.480469 136.753906 C 129.765625 137.214844 129.976562 137.707031 130.113281 138.230469 C 130.25 138.757812 130.304688 139.289062 130.277344 139.832031 C 130.253906 140.371094 130.144531 140.894531 129.957031 141.40625 C 129.769531 141.914062 129.511719 142.382812 129.179688 142.8125 C 128.851562 143.242188 128.464844 143.609375 128.019531 143.921875 C 127.574219 144.234375 127.097656 144.46875 126.578125 144.632812 C 102.25 152.347656 86.535156 178.664062 86.535156 211.675781 C 86.566406 213.269531 87.417969 227.617188 107.789062 227.617188 C 108.140625 227.617188 108.484375 227.652344 108.828125 227.71875 C 109.167969 227.789062 109.5 227.886719 109.824219 228.023438 C 110.144531 228.15625 110.453125 228.320312 110.742188 228.511719 C 111.03125 228.707031 111.300781 228.925781 111.546875 229.171875 C 111.792969 229.421875 112.015625 229.6875 112.207031 229.980469 C 112.402344 230.269531 112.566406 230.574219 112.699219 230.898438 C 112.832031 231.21875 112.933594 231.550781 113 231.894531 C 113.070312 232.238281 113.105469 232.582031 113.105469 232.929688 L 113.105469 291.382812 C 113.105469 291.902344 113.128906 292.425781 113.179688 292.945312 C 113.230469 293.464844 113.308594 293.980469 113.410156 294.492188 C 113.511719 295.003906 113.640625 295.507812 113.789062 296.007812 C 113.941406 296.507812 114.117188 297 114.316406 297.480469 C 114.515625 297.964844 114.738281 298.433594 114.984375 298.894531 C 115.230469 299.355469 115.5 299.804688 115.789062 300.238281 C 116.082031 300.671875 116.390625 301.089844 116.722656 301.496094 C 117.054688 301.898438 117.402344 302.285156 117.773438 302.652344 C 118.140625 303.023438 118.527344 303.371094 118.933594 303.703125 C 119.335938 304.035156 119.753906 304.347656 120.1875 304.636719 C 120.621094 304.925781 121.070312 305.195312 121.53125 305.441406 C 121.992188 305.6875 122.460938 305.910156 122.945312 306.109375 C 123.425781 306.308594 123.917969 306.484375 124.417969 306.636719 C 124.917969 306.789062 125.421875 306.914062 125.933594 307.015625 C 126.445312 307.117188 126.964844 307.195312 127.484375 307.246094 C 128.003906 307.296875 128.523438 307.324219 129.046875 307.324219 L 134.359375 307.324219 C 134.707031 307.324219 135.054688 307.355469 135.394531 307.425781 C 135.738281 307.492188 136.070312 307.59375 136.390625 307.726562 C 136.714844 307.859375 137.019531 308.023438 137.3125 308.21875 C 137.601562 308.410156 137.871094 308.632812 138.117188 308.878906 C 138.363281 309.125 138.582031 309.394531 138.777344 309.683594 C 138.96875 309.972656 139.132812 310.28125 139.269531 310.601562 C 139.402344 310.925781 139.503906 311.257812 139.570312 311.597656 C 139.636719 311.941406 139.671875 312.289062 139.671875 312.636719 C 139.671875 312.984375 139.636719 313.332031 139.570312 313.671875 C 139.503906 314.015625 139.402344 314.347656 139.269531 314.667969 C 139.132812 314.992188 138.96875 315.296875 138.777344 315.589844 C 138.582031 315.878906 138.363281 316.148438 138.117188 316.394531 C 137.871094 316.640625 137.601562 316.859375 137.3125 317.054688 C 137.019531 317.246094 136.714844 317.410156 136.390625 317.546875 C 136.070312 317.679688 135.738281 317.78125 135.394531 317.847656 C 135.054688 317.914062 134.707031 317.949219 134.359375 317.949219 Z M 134.359375 317.949219 "/><g clip-rule="nonzero" clip-path="url(#fa7bfc716e)"><path style=" stroke:none;fill-rule:nonzero;fill:#5b9940;fill-opacity:1;" d="M 198.121094 339.203125 L 176.867188 339.203125 C 176 339.203125 175.128906 339.160156 174.265625 339.074219 C 173.398438 338.988281 172.539062 338.859375 171.6875 338.6875 C 170.832031 338.519531 169.992188 338.304688 169.160156 338.054688 C 168.328125 337.800781 167.507812 337.507812 166.707031 337.171875 C 165.902344 336.839844 165.117188 336.46875 164.351562 336.058594 C 163.582031 335.648438 162.839844 335.199219 162.113281 334.71875 C 161.390625 334.234375 160.695312 333.714844 160.023438 333.164062 C 159.347656 332.613281 158.707031 332.027344 158.089844 331.414062 C 157.476562 330.796875 156.890625 330.15625 156.339844 329.480469 C 155.789062 328.808594 155.269531 328.113281 154.785156 327.390625 C 154.304688 326.664062 153.855469 325.921875 153.445312 325.152344 C 153.035156 324.386719 152.664062 323.601562 152.332031 322.796875 C 151.996094 321.996094 151.703125 321.175781 151.449219 320.34375 C 151.199219 319.511719 150.984375 318.671875 150.816406 317.816406 C 150.644531 316.964844 150.515625 316.105469 150.429688 315.238281 C 150.34375 314.375 150.300781 313.507812 150.300781 312.636719 L 150.300781 259.222656 C 129.445312 256.964844 123.730469 241.433594 123.730469 232.929688 C 123.730469 199.785156 138.078125 172.386719 161.117188 160.011719 C 159.972656 159.105469 158.875 158.140625 157.832031 157.121094 C 156.785156 156.101562 155.792969 155.03125 154.855469 153.910156 C 153.921875 152.789062 153.042969 151.621094 152.230469 150.410156 C 151.414062 149.199219 150.664062 147.949219 149.976562 146.660156 C 149.289062 145.367188 148.671875 144.046875 148.121094 142.695312 C 147.570312 141.339844 147.089844 139.964844 146.679688 138.5625 C 146.273438 137.15625 145.9375 135.738281 145.675781 134.300781 C 145.414062 132.863281 145.226562 131.417969 145.113281 129.960938 C 145 128.503906 144.960938 127.046875 145 125.585938 C 145.039062 124.125 145.148438 122.667969 145.335938 121.222656 C 145.523438 119.773438 145.785156 118.335938 146.121094 116.914062 C 146.457031 115.492188 146.863281 114.09375 147.34375 112.710938 C 147.824219 111.332031 148.375 109.980469 148.992188 108.65625 C 149.613281 107.335938 150.296875 106.046875 151.050781 104.792969 C 151.800781 103.542969 152.617188 102.332031 153.492188 101.164062 C 154.371094 99.996094 155.304688 98.875 156.296875 97.800781 C 157.289062 96.730469 158.335938 95.710938 159.429688 94.746094 C 160.527344 93.78125 161.671875 92.875 162.863281 92.03125 C 164.054688 91.183594 165.285156 90.402344 166.554688 89.679688 C 167.828125 88.960938 169.132812 88.308594 170.472656 87.722656 C 171.808594 87.140625 173.175781 86.625 174.566406 86.179688 C 175.957031 85.734375 177.371094 85.363281 178.800781 85.066406 C 180.230469 84.765625 181.671875 84.542969 183.125 84.390625 C 184.578125 84.242188 186.035156 84.167969 187.496094 84.167969 C 188.957031 84.167969 190.414062 84.242188 191.867188 84.390625 C 193.320312 84.542969 194.761719 84.765625 196.191406 85.066406 C 197.621094 85.363281 199.03125 85.734375 200.421875 86.179688 C 201.816406 86.625 203.179688 87.140625 204.519531 87.722656 C 205.859375 88.308594 207.164062 88.960938 208.433594 89.679688 C 209.707031 90.402344 210.9375 91.183594 212.128906 92.03125 C 213.316406 92.875 214.460938 93.78125 215.558594 94.746094 C 216.65625 95.710938 217.703125 96.730469 218.695312 97.800781 C 219.6875 98.875 220.621094 99.996094 221.496094 101.164062 C 222.375 102.332031 223.1875 103.542969 223.941406 104.792969 C 224.691406 106.046875 225.378906 107.335938 225.996094 108.65625 C 226.617188 109.980469 227.164062 111.332031 227.644531 112.710938 C 228.125 114.09375 228.535156 115.492188 228.867188 116.914062 C 229.203125 118.335938 229.464844 119.773438 229.652344 121.222656 C 229.839844 122.667969 229.953125 124.125 229.992188 125.585938 C 230.027344 127.046875 229.992188 128.503906 229.878906 129.960938 C 229.765625 131.417969 229.578125 132.863281 229.316406 134.300781 C 229.054688 135.738281 228.71875 137.15625 228.308594 138.5625 C 227.902344 139.964844 227.421875 141.339844 226.871094 142.695312 C 226.320312 144.046875 225.703125 145.367188 225.015625 146.660156 C 224.328125 147.949219 223.578125 149.199219 222.761719 150.410156 C 221.945312 151.621094 221.070312 152.789062 220.132812 153.910156 C 219.199219 155.03125 218.207031 156.101562 217.160156 157.121094 C 216.113281 158.140625 215.019531 159.105469 213.871094 160.011719 C 236.914062 172.386719 251.257812 199.785156 251.257812 232.929688 C 251.257812 241.433594 245.546875 256.964844 224.691406 259.222656 L 224.691406 312.636719 C 224.691406 313.507812 224.644531 314.375 224.558594 315.238281 C 224.472656 316.105469 224.34375 316.964844 224.175781 317.816406 C 224.003906 318.671875 223.792969 319.511719 223.539062 320.34375 C 223.285156 321.175781 222.992188 321.996094 222.660156 322.796875 C 222.328125 323.601562 221.953125 324.386719 221.542969 325.152344 C 221.132812 325.921875 220.6875 326.664062 220.203125 327.390625 C 219.71875 328.113281 219.203125 328.808594 218.652344 329.480469 C 218.097656 330.15625 217.515625 330.796875 216.898438 331.414062 C 216.285156 332.027344 215.640625 332.613281 214.96875 333.164062 C 214.296875 333.714844 213.597656 334.234375 212.875 334.71875 C 212.152344 335.199219 211.40625 335.648438 210.640625 336.058594 C 209.875 336.46875 209.089844 336.839844 208.285156 337.171875 C 207.480469 337.507812 206.664062 337.800781 205.832031 338.054688 C 205 338.304688 204.15625 338.519531 203.304688 338.6875 C 202.449219 338.859375 201.589844 338.988281 200.726562 339.074219 C 199.859375 339.160156 198.992188 339.203125 198.121094 339.203125 Z M 187.496094 94.777344 C 186.585938 94.777344 185.679688 94.8125 184.773438 94.890625 C 183.867188 94.96875 182.964844 95.085938 182.070312 95.238281 C 181.175781 95.394531 180.289062 95.585938 179.40625 95.816406 C 178.527344 96.046875 177.660156 96.3125 176.804688 96.617188 C 175.949219 96.921875 175.105469 97.261719 174.277344 97.636719 C 173.449219 98.015625 172.640625 98.425781 171.847656 98.871094 C 171.054688 99.316406 170.285156 99.796875 169.535156 100.308594 C 168.78125 100.820312 168.054688 101.363281 167.347656 101.9375 C 166.644531 102.511719 165.964844 103.113281 165.3125 103.746094 C 164.660156 104.378906 164.035156 105.035156 163.4375 105.722656 C 162.839844 106.40625 162.273438 107.117188 161.738281 107.851562 C 161.199219 108.585938 160.695312 109.339844 160.226562 110.117188 C 159.753906 110.894531 159.316406 111.691406 158.914062 112.507812 C 158.507812 113.320312 158.140625 114.152344 157.808594 114.996094 C 157.476562 115.84375 157.179688 116.703125 156.921875 117.574219 C 156.664062 118.445312 156.441406 119.324219 156.257812 120.214844 C 156.074219 121.105469 155.929688 122.003906 155.820312 122.90625 C 155.714844 123.808594 155.648438 124.714844 155.617188 125.621094 C 155.585938 126.53125 155.597656 127.4375 155.644531 128.347656 C 155.691406 129.253906 155.78125 130.15625 155.90625 131.058594 C 156.03125 131.957031 156.195312 132.851562 156.394531 133.738281 C 156.597656 134.625 156.835938 135.5 157.113281 136.367188 C 157.390625 137.230469 157.703125 138.085938 158.054688 138.925781 C 158.402344 139.761719 158.789062 140.585938 159.207031 141.390625 C 159.628906 142.199219 160.082031 142.984375 160.570312 143.75 C 161.058594 144.519531 161.578125 145.265625 162.128906 145.988281 C 162.679688 146.710938 163.261719 147.40625 163.871094 148.082031 C 164.480469 148.753906 165.121094 149.398438 165.785156 150.019531 C 166.453125 150.636719 167.144531 151.226562 167.859375 151.785156 C 168.578125 152.34375 169.316406 152.875 170.078125 153.371094 C 170.839844 153.867188 171.621094 154.328125 172.421875 154.757812 C 173.222656 155.1875 174.039062 155.582031 174.875 155.941406 C 175.375 156.15625 175.828125 156.4375 176.238281 156.792969 C 176.648438 157.144531 177 157.550781 177.285156 158.011719 C 177.574219 158.46875 177.785156 158.960938 177.921875 159.488281 C 178.058594 160.011719 178.113281 160.542969 178.085938 161.085938 C 178.058594 161.625 177.953125 162.152344 177.765625 162.660156 C 177.578125 163.167969 177.320312 163.636719 176.988281 164.066406 C 176.65625 164.496094 176.269531 164.867188 175.828125 165.175781 C 175.382812 165.488281 174.902344 165.726562 174.386719 165.886719 C 150.070312 173.605469 134.359375 199.917969 134.359375 232.929688 C 134.390625 234.523438 135.242188 248.871094 155.613281 248.871094 C 155.960938 248.871094 156.308594 248.90625 156.648438 248.972656 C 156.992188 249.042969 157.324219 249.144531 157.648438 249.277344 C 157.96875 249.410156 158.273438 249.574219 158.566406 249.769531 C 158.855469 249.960938 159.125 250.183594 159.371094 250.429688 C 159.617188 250.675781 159.835938 250.945312 160.03125 251.234375 C 160.226562 251.523438 160.390625 251.828125 160.523438 252.152344 C 160.65625 252.476562 160.757812 252.808594 160.824219 253.148438 C 160.894531 253.492188 160.925781 253.835938 160.925781 254.1875 L 160.925781 312.636719 C 160.925781 313.15625 160.953125 313.679688 161.003906 314.199219 C 161.054688 314.71875 161.132812 315.234375 161.234375 315.746094 C 161.335938 316.257812 161.460938 316.765625 161.613281 317.261719 C 161.765625 317.761719 161.941406 318.253906 162.140625 318.738281 C 162.339844 319.21875 162.5625 319.691406 162.808594 320.152344 C 163.054688 320.609375 163.324219 321.058594 163.613281 321.492188 C 163.902344 321.925781 164.214844 322.34375 164.546875 322.75 C 164.875 323.152344 165.226562 323.539062 165.597656 323.90625 C 165.964844 324.277344 166.351562 324.628906 166.753906 324.957031 C 167.160156 325.289062 167.578125 325.601562 168.011719 325.890625 C 168.445312 326.179688 168.894531 326.449219 169.351562 326.695312 C 169.8125 326.941406 170.285156 327.164062 170.765625 327.363281 C 171.25 327.5625 171.742188 327.738281 172.242188 327.890625 C 172.738281 328.042969 173.246094 328.167969 173.757812 328.269531 C 174.269531 328.371094 174.785156 328.449219 175.304688 328.5 C 175.824219 328.550781 176.347656 328.578125 176.867188 328.578125 L 198.121094 328.578125 C 198.644531 328.578125 199.164062 328.550781 199.683594 328.5 C 200.203125 328.449219 200.71875 328.371094 201.234375 328.269531 C 201.746094 328.167969 202.25 328.042969 202.75 327.890625 C 203.25 327.738281 203.742188 327.5625 204.222656 327.363281 C 204.707031 327.164062 205.175781 326.941406 205.636719 326.695312 C 206.097656 326.449219 206.542969 326.179688 206.980469 325.890625 C 207.414062 325.601562 207.832031 325.289062 208.234375 324.957031 C 208.640625 324.628906 209.023438 324.277344 209.394531 323.90625 C 209.765625 323.539062 210.113281 323.152344 210.445312 322.75 C 210.777344 322.34375 211.085938 321.925781 211.378906 321.492188 C 211.667969 321.058594 211.933594 320.609375 212.179688 320.152344 C 212.425781 319.691406 212.648438 319.21875 212.851562 318.738281 C 213.050781 318.253906 213.226562 317.761719 213.378906 317.261719 C 213.527344 316.765625 213.65625 316.257812 213.757812 315.746094 C 213.859375 315.234375 213.9375 314.71875 213.988281 314.199219 C 214.039062 313.679688 214.0625 313.15625 214.0625 312.636719 L 214.0625 254.1875 C 214.0625 253.835938 214.097656 253.492188 214.164062 253.148438 C 214.234375 252.808594 214.335938 252.476562 214.46875 252.152344 C 214.601562 251.828125 214.765625 251.523438 214.960938 251.234375 C 215.152344 250.945312 215.375 250.675781 215.621094 250.429688 C 215.867188 250.183594 216.136719 249.960938 216.425781 249.769531 C 216.714844 249.574219 217.019531 249.410156 217.34375 249.277344 C 217.667969 249.144531 218 249.042969 218.339844 248.972656 C 218.683594 248.90625 219.027344 248.871094 219.378906 248.871094 C 240.386719 248.871094 240.632812 233.585938 240.632812 232.929688 C 240.632812 199.917969 224.917969 173.605469 200.605469 165.886719 C 200.085938 165.726562 199.609375 165.488281 199.164062 165.175781 C 198.71875 164.867188 198.332031 164.496094 198 164.066406 C 197.671875 163.636719 197.414062 163.167969 197.226562 162.660156 C 197.039062 162.152344 196.929688 161.625 196.90625 161.085938 C 196.878906 160.542969 196.933594 160.011719 197.070312 159.488281 C 197.207031 158.960938 197.417969 158.46875 197.703125 158.011719 C 197.992188 157.550781 198.339844 157.144531 198.75 156.792969 C 199.164062 156.4375 199.617188 156.15625 200.113281 155.941406 C 200.949219 155.582031 201.769531 155.1875 202.570312 154.757812 C 203.371094 154.328125 204.152344 153.867188 204.914062 153.371094 C 205.675781 152.875 206.414062 152.34375 207.128906 151.785156 C 207.847656 151.226562 208.539062 150.636719 209.203125 150.019531 C 209.871094 149.398438 210.507812 148.753906 211.121094 148.082031 C 211.730469 147.40625 212.3125 146.710938 212.863281 145.988281 C 213.414062 145.265625 213.933594 144.519531 214.421875 143.75 C 214.90625 142.984375 215.363281 142.199219 215.78125 141.390625 C 216.203125 140.585938 216.585938 139.761719 216.9375 138.925781 C 217.285156 138.085938 217.597656 137.230469 217.875 136.367188 C 218.152344 135.5 218.390625 134.625 218.59375 133.738281 C 218.796875 132.851562 218.960938 131.957031 219.085938 131.058594 C 219.210938 130.15625 219.296875 129.253906 219.34375 128.347656 C 219.394531 127.4375 219.402344 126.53125 219.375 125.621094 C 219.34375 124.714844 219.277344 123.808594 219.167969 122.90625 C 219.0625 122.003906 218.917969 121.105469 218.734375 120.214844 C 218.550781 119.324219 218.328125 118.445312 218.070312 117.574219 C 217.808594 116.703125 217.515625 115.84375 217.179688 114.996094 C 216.847656 114.152344 216.480469 113.320312 216.078125 112.507812 C 215.675781 111.691406 215.238281 110.894531 214.765625 110.117188 C 214.292969 109.339844 213.789062 108.585938 213.253906 107.851562 C 212.71875 107.117188 212.152344 106.40625 211.554688 105.722656 C 210.957031 105.035156 210.332031 104.378906 209.679688 103.746094 C 209.023438 103.113281 208.347656 102.511719 207.640625 101.9375 C 206.9375 101.363281 206.207031 100.820312 205.457031 100.308594 C 204.707031 99.796875 203.933594 99.316406 203.140625 98.871094 C 202.347656 98.425781 201.539062 98.015625 200.710938 97.636719 C 199.886719 97.261719 199.042969 96.921875 198.1875 96.617188 C 197.328125 96.3125 196.460938 96.046875 195.582031 95.816406 C 194.703125 95.585938 193.816406 95.394531 192.917969 95.238281 C 192.023438 95.085938 191.125 94.96875 190.21875 94.890625 C 189.3125 94.8125 188.402344 94.777344 187.496094 94.777344 Z M 187.496094 94.777344 "/></g></g></svg>