<svg xmlns="http://www.w3.org/2000/svg" xmlns:xlink="http://www.w3.org/1999/xlink" width="500" zoomAndPan="magnify" viewBox="0 0 375 374.999991" height="500" preserveAspectRatio="xMidYMid meet" version="1.2"><defs><clipPath id="8fc819b44b"><path d="M 42.402344 42.402344 L 332.652344 42.402344 L 332.652344 332.652344 L 42.402344 332.652344 Z M 42.402344 42.402344 "/></clipPath><clipPath id="19d82c48e6"><path d="M 178.667969 105.113281 L 243.75 105.113281 L 243.75 143.140625 L 178.667969 143.140625 Z M 178.667969 105.113281 "/></clipPath></defs><g id="ce7f859a08"><path style=" stroke:none;fill-rule:nonzero;fill:#5b9940;fill-opacity:1;" d="M 134.042969 164.585938 L 156.949219 164.585938 C 161.171875 164.585938 164.585938 161.167969 164.585938 156.949219 L 164.585938 80.585938 C 164.585938 76.367188 161.171875 72.949219 156.949219 72.949219 L 80.585938 72.949219 C 76.363281 72.949219 72.949219 76.367188 72.949219 80.585938 L 72.949219 156.949219 C 72.949219 161.167969 76.363281 164.585938 80.585938 164.585938 L 103.496094 164.585938 C 107.714844 164.585938 111.132812 161.167969 111.132812 156.949219 C 111.132812 152.734375 107.714844 149.3125 103.496094 149.3125 L 88.222656 149.3125 L 88.222656 88.222656 L 149.3125 88.222656 L 149.3125 149.3125 L 134.042969 149.3125 C 129.820312 149.3125 126.40625 152.734375 126.40625 156.949219 C 126.40625 161.167969 129.820312 164.585938 134.042969 164.585938 Z M 134.042969 164.585938 "/><path style=" stroke:none;fill-rule:nonzero;fill:#5b9940;fill-opacity:1;" d="M 135.621094 105.730469 C 132.640625 102.75 127.804688 102.75 124.824219 105.730469 L 114.949219 115.605469 L 112.710938 113.367188 C 109.730469 110.386719 104.898438 110.386719 101.914062 113.367188 C 98.929688 116.351562 98.929688 121.183594 101.914062 124.167969 L 109.550781 131.804688 C 111.042969 133.296875 112.996094 134.042969 114.949219 134.042969 C 116.902344 134.042969 118.855469 133.296875 120.347656 131.804688 L 135.621094 116.53125 C 138.605469 113.546875 138.605469 108.714844 135.621094 105.730469 Z M 135.621094 105.730469 "/><path style=" stroke:none;fill-rule:nonzero;fill:#5b9940;fill-opacity:1;" d="M 72.949219 263.863281 C 72.949219 268.082031 76.363281 271.5 80.585938 271.5 L 156.949219 271.5 C 161.171875 271.5 164.585938 268.082031 164.585938 263.863281 L 164.585938 187.496094 C 164.585938 183.28125 161.171875 179.859375 156.949219 179.859375 L 80.585938 179.859375 C 76.363281 179.859375 72.949219 183.28125 72.949219 187.496094 Z M 88.222656 195.132812 L 149.3125 195.132812 L 149.3125 256.226562 L 88.222656 256.226562 Z M 88.222656 195.132812 "/><path style=" stroke:none;fill-rule:nonzero;fill:#5b9940;fill-opacity:1;" d="M 124.824219 212.644531 L 114.949219 222.519531 L 112.710938 220.28125 C 109.730469 217.296875 104.898438 217.296875 101.914062 220.28125 C 98.929688 223.265625 98.929688 228.097656 101.914062 231.078125 L 109.550781 238.714844 C 111.042969 240.207031 112.996094 240.953125 114.949219 240.953125 C 116.902344 240.953125 118.855469 240.207031 120.347656 238.714844 L 135.621094 223.441406 C 138.605469 220.460938 138.605469 215.628906 135.621094 212.644531 C 132.640625 209.660156 127.804688 209.660156 124.824219 212.644531 Z M 124.824219 212.644531 "/><path style=" stroke:none;fill-rule:nonzero;fill:#5b9940;fill-opacity:1;" d="M 88.222656 302.046875 L 210.40625 302.046875 C 214.628906 302.046875 218.042969 298.628906 218.042969 294.410156 C 218.042969 290.191406 214.628906 286.773438 210.40625 286.773438 L 88.222656 286.773438 C 84 286.773438 80.585938 290.191406 80.585938 294.410156 C 80.585938 298.628906 84 302.046875 88.222656 302.046875 Z M 88.222656 302.046875 "/><g clip-rule="nonzero" clip-path="url(#8fc819b44b)"><path style=" stroke:none;fill-rule:nonzero;fill:#5b9940;fill-opacity:1;" d="M 308.871094 223.746094 C 314.074219 218.269531 317.320312 210.90625 317.320312 202.769531 C 317.320312 185.925781 303.621094 172.222656 286.773438 172.222656 C 281.183594 172.222656 276.011719 173.84375 271.5 176.472656 L 271.5 95.859375 C 271.5 93.832031 270.695312 91.890625 269.261719 90.457031 L 223.441406 44.640625 C 222.011719 43.207031 220.074219 42.402344 218.042969 42.402344 L 65.3125 42.402344 C 52.679688 42.402344 42.402344 52.679688 42.402344 65.3125 L 42.402344 309.683594 C 42.402344 322.316406 52.679688 332.59375 65.3125 332.59375 L 172.222656 332.59375 C 176.445312 332.59375 179.859375 329.171875 179.859375 324.957031 C 179.859375 320.738281 176.445312 317.320312 172.222656 317.320312 L 65.3125 317.320312 C 61.097656 317.320312 57.675781 313.894531 57.675781 309.683594 L 57.675781 65.3125 C 57.675781 61.101562 61.097656 57.675781 65.3125 57.675781 L 210.40625 57.675781 L 210.40625 95.859375 C 210.40625 100.074219 213.824219 103.496094 218.042969 103.496094 L 256.226562 103.496094 L 256.226562 202.769531 C 256.226562 210.90625 259.472656 218.269531 264.675781 223.746094 C 250.550781 231.5625 240.953125 246.605469 240.953125 263.863281 L 240.953125 286.773438 C 240.953125 290.992188 244.371094 294.410156 248.589844 294.410156 L 256.226562 294.410156 L 256.226562 309.683594 C 256.226562 313.894531 252.804688 317.320312 248.589844 317.320312 L 202.769531 317.320312 C 198.550781 317.320312 195.132812 320.738281 195.132812 324.957031 C 195.132812 329.171875 198.550781 332.59375 202.769531 332.59375 L 248.589844 332.59375 C 261.222656 332.59375 271.5 322.316406 271.5 309.683594 L 271.5 294.410156 L 324.957031 294.410156 C 329.175781 294.410156 332.59375 290.992188 332.59375 286.773438 L 332.59375 263.863281 C 332.59375 246.605469 322.996094 231.5625 308.871094 223.746094 Z M 225.679688 68.472656 L 245.429688 88.222656 L 225.679688 88.222656 Z M 271.5 202.769531 C 271.5 194.347656 278.355469 187.496094 286.773438 187.496094 C 295.191406 187.496094 302.046875 194.347656 302.046875 202.769531 C 302.046875 211.195312 295.191406 218.042969 286.773438 218.042969 C 278.355469 218.042969 271.5 211.195312 271.5 202.769531 Z M 317.320312 279.136719 L 256.226562 279.136719 L 256.226562 263.863281 C 256.226562 247.019531 269.925781 233.316406 286.773438 233.316406 C 303.621094 233.316406 317.320312 247.019531 317.320312 263.863281 Z M 317.320312 279.136719 "/></g><path style=" stroke:none;fill-rule:nonzero;fill:#5b9940;fill-opacity:1;" d="M 187.496094 134.042969 L 218.042969 134.042969 C 222.265625 134.042969 225.679688 130.621094 225.679688 126.40625 C 225.679688 122.1875 222.265625 118.769531 218.042969 118.769531 L 187.496094 118.769531 C 183.277344 118.769531 179.859375 122.1875 179.859375 126.40625 C 179.859375 130.621094 183.277344 134.042969 187.496094 134.042969 Z M 187.496094 134.042969 "/><path style=" stroke:none;fill-rule:nonzero;fill:#5b9940;fill-opacity:1;" d="M 187.496094 164.585938 L 233.316406 164.585938 C 237.539062 164.585938 240.953125 161.167969 240.953125 156.949219 C 240.953125 152.734375 237.539062 149.3125 233.316406 149.3125 L 187.496094 149.3125 C 183.277344 149.3125 179.859375 152.734375 179.859375 156.949219 C 179.859375 161.167969 183.277344 164.585938 187.496094 164.585938 Z M 187.496094 164.585938 "/><path style=" stroke:none;fill-rule:nonzero;fill:#5b9940;fill-opacity:1;" d="M 187.496094 202.769531 L 218.042969 202.769531 C 222.265625 202.769531 225.679688 199.351562 225.679688 195.132812 C 225.679688 190.917969 222.265625 187.496094 218.042969 187.496094 L 187.496094 187.496094 C 183.277344 187.496094 179.859375 190.917969 179.859375 195.132812 C 179.859375 199.351562 183.277344 202.769531 187.496094 202.769531 Z M 187.496094 202.769531 "/><path style=" stroke:none;fill-rule:nonzero;fill:#5b9940;fill-opacity:1;" d="M 187.496094 263.863281 L 218.042969 263.863281 C 222.265625 263.863281 225.679688 260.445312 225.679688 256.226562 C 225.679688 252.007812 222.265625 248.589844 218.042969 248.589844 L 187.496094 248.589844 C 183.277344 248.589844 179.859375 252.007812 179.859375 256.226562 C 179.859375 260.445312 183.277344 263.863281 187.496094 263.863281 Z M 187.496094 263.863281 "/><path style=" stroke:none;fill-rule:nonzero;fill:#5b9940;fill-opacity:1;" d="M 187.496094 233.316406 L 233.316406 233.316406 C 237.539062 233.316406 240.953125 229.898438 240.953125 225.679688 C 240.953125 221.464844 237.539062 218.042969 233.316406 218.042969 L 187.496094 218.042969 C 183.277344 218.042969 179.859375 221.464844 179.859375 225.679688 C 179.859375 229.898438 183.277344 233.316406 187.496094 233.316406 Z M 187.496094 233.316406 "/><g clip-rule="nonzero" clip-path="url(#19d82c48e6)"><path style=" stroke:none;fill-rule:nonzero;fill:#ffffff;fill-opacity:1;" d="M 178.667969 105.113281 L 243.734375 105.113281 L 243.734375 143.140625 L 178.667969 143.140625 Z M 178.667969 105.113281 "/></g><g style="fill:#5b9940;fill-opacity:1;"><g transform="translate(171.528188, 132.589599)"><path style="stroke:none" d="M 9.59375 0.46875 C 8.132812 0.46875 6.867188 0.320312 5.796875 0.03125 C 4.734375 -0.257812 3.835938 -0.679688 3.109375 -1.234375 C 2.390625 -1.785156 1.832031 -2.460938 1.4375 -3.265625 C 1.050781 -4.066406 0.816406 -4.96875 0.734375 -5.96875 L 5.09375 -7.265625 C 5.144531 -6.597656 5.28125 -6.015625 5.5 -5.515625 C 5.71875 -5.015625 6.03125 -4.59375 6.4375 -4.25 C 6.851562 -3.90625 7.335938 -3.65625 7.890625 -3.5 C 8.453125 -3.34375 9.054688 -3.265625 9.703125 -3.265625 C 10.546875 -3.265625 11.285156 -3.382812 11.921875 -3.625 C 12.566406 -3.875 13.078125 -4.25 13.453125 -4.75 C 13.835938 -5.25 14.03125 -5.890625 14.03125 -6.671875 C 14.03125 -7.671875 13.695312 -8.472656 13.03125 -9.078125 C 12.363281 -9.691406 11.375 -10.113281 10.0625 -10.34375 C 8.75 -10.582031 7.101562 -10.613281 5.125 -10.4375 L 5.125 -13.171875 L 12.46875 -17.9375 L 12.46875 -18.203125 L 1.828125 -18.125 L 1.828125 -22.03125 L 17.359375 -22.03125 L 17.359375 -17.59375 L 10.390625 -12.859375 L 10.390625 -12.5625 C 12.503906 -12.675781 14.164062 -12.457031 15.375 -11.90625 C 16.59375 -11.363281 17.46875 -10.613281 18 -9.65625 C 18.53125 -8.707031 18.796875 -7.65625 18.796875 -6.5 C 18.796875 -5.070312 18.460938 -3.835938 17.796875 -2.796875 C 17.128906 -1.753906 16.113281 -0.945312 14.75 -0.375 C 13.382812 0.1875 11.664062 0.46875 9.59375 0.46875 Z M 9.59375 0.46875 "/></g></g><g style="fill:#5b9940;fill-opacity:1;"><g transform="translate(191.755882, 132.589599)"><path style="stroke:none" d="M 9.9375 0.46875 C 8.25 0.46875 6.769531 0.222656 5.5 -0.265625 C 4.226562 -0.753906 3.25 -1.445312 2.5625 -2.34375 C 1.875 -3.25 1.53125 -4.359375 1.53125 -5.671875 L 6.0625 -6.5 C 6.15625 -5.476562 6.554688 -4.695312 7.265625 -4.15625 C 7.972656 -3.625 8.847656 -3.359375 9.890625 -3.359375 C 11.140625 -3.359375 12.09375 -3.703125 12.75 -4.390625 C 13.40625 -5.085938 13.734375 -6.113281 13.734375 -7.46875 C 13.734375 -8.09375 13.664062 -8.660156 13.53125 -9.171875 C 13.394531 -9.679688 13.1875 -10.117188 12.90625 -10.484375 C 12.632812 -10.847656 12.273438 -11.128906 11.828125 -11.328125 C 11.390625 -11.523438 10.867188 -11.625 10.265625 -11.625 C 9.835938 -11.625 9.453125 -11.566406 9.109375 -11.453125 C 8.765625 -11.347656 8.445312 -11.203125 8.15625 -11.015625 C 7.875 -10.828125 7.613281 -10.582031 7.375 -10.28125 C 7.144531 -9.976562 6.929688 -9.640625 6.734375 -9.265625 L 1.90625 -9.265625 L 2.734375 -22 L 17.734375 -22 L 17.734375 -18 L 6.734375 -18 L 6.234375 -11.625 L 6.59375 -11.625 C 7.0625 -12.78125 7.789062 -13.644531 8.78125 -14.21875 C 9.769531 -14.800781 10.898438 -15.09375 12.171875 -15.09375 C 13.609375 -15.09375 14.8125 -14.78125 15.78125 -14.15625 C 16.75 -13.539062 17.46875 -12.671875 17.9375 -11.546875 C 18.414062 -10.421875 18.65625 -9.082031 18.65625 -7.53125 C 18.65625 -5.6875 18.296875 -4.171875 17.578125 -2.984375 C 16.859375 -1.796875 15.835938 -0.921875 14.515625 -0.359375 C 13.191406 0.191406 11.664062 0.46875 9.9375 0.46875 Z M 9.9375 0.46875 "/></g></g><g style="fill:#5b9940;fill-opacity:1;"><g transform="translate(211.916965, 132.589599)"><path style="stroke:none" d="M 10.9375 0.46875 C 9.507812 0.46875 8.21875 0.210938 7.0625 -0.296875 C 5.90625 -0.804688 4.921875 -1.546875 4.109375 -2.515625 C 3.304688 -3.484375 2.679688 -4.671875 2.234375 -6.078125 C 1.785156 -7.492188 1.5625 -9.097656 1.5625 -10.890625 C 1.5625 -13.429688 1.972656 -15.550781 2.796875 -17.25 C 3.617188 -18.945312 4.742188 -20.234375 6.171875 -21.109375 C 7.609375 -21.992188 9.238281 -22.4375 11.0625 -22.4375 C 12.945312 -22.4375 14.585938 -21.988281 15.984375 -21.09375 C 17.390625 -20.207031 18.472656 -18.914062 19.234375 -17.21875 C 20.003906 -15.519531 20.390625 -13.445312 20.390625 -11 C 20.390625 -9.175781 20.160156 -7.546875 19.703125 -6.109375 C 19.253906 -4.679688 18.613281 -3.484375 17.78125 -2.515625 C 16.945312 -1.546875 15.953125 -0.804688 14.796875 -0.296875 C 13.640625 0.210938 12.351562 0.46875 10.9375 0.46875 Z M 11.03125 -3.328125 C 11.601562 -3.328125 12.160156 -3.46875 12.703125 -3.75 C 13.253906 -4.03125 13.742188 -4.460938 14.171875 -5.046875 C 14.609375 -5.640625 14.953125 -6.40625 15.203125 -7.34375 C 15.460938 -8.289062 15.59375 -9.453125 15.59375 -10.828125 C 15.59375 -12.492188 15.398438 -13.910156 15.015625 -15.078125 C 14.628906 -16.242188 14.09375 -17.125 13.40625 -17.71875 C 12.726562 -18.320312 11.925781 -18.625 11 -18.625 C 10.257812 -18.625 9.535156 -18.382812 8.828125 -17.90625 C 8.117188 -17.4375 7.535156 -16.644531 7.078125 -15.53125 C 6.628906 -14.414062 6.40625 -12.90625 6.40625 -11 C 6.40625 -9.644531 6.523438 -8.484375 6.765625 -7.515625 C 7.003906 -6.546875 7.34375 -5.753906 7.78125 -5.140625 C 8.21875 -4.535156 8.710938 -4.082031 9.265625 -3.78125 C 9.816406 -3.476562 10.40625 -3.328125 11.03125 -3.328125 Z M 11.03125 -3.328125 "/></g></g><g style="fill:#5b9940;fill-opacity:1;"><g transform="translate(233.41099, 132.589599)"><path style="stroke:none" d="M 6.796875 -3.90625 L 6.796875 -17.65625 L 10.703125 -17.65625 L 10.703125 -3.90625 Z M 1.859375 -8.96875 L 1.859375 -12.671875 L 15.59375 -12.671875 L 15.59375 -8.96875 Z M 1.859375 -8.96875 "/></g></g></g></svg>