<svg xmlns="http://www.w3.org/2000/svg" xmlns:xlink="http://www.w3.org/1999/xlink" width="500" zoomAndPan="magnify" viewBox="0 0 375 374.999991" height="500" preserveAspectRatio="xMidYMid meet" version="1.2"><defs><clipPath id="98f408fc86"><path d="M 214 181 L 342.785156 181 L 342.785156 309.214844 L 214 309.214844 Z M 214 181 "/></clipPath><clipPath id="6591b9487c"><path d="M 32.285156 134 L 55 134 L 55 152 L 32.285156 152 Z M 32.285156 134 "/></clipPath><clipPath id="e461892caf"><path d="M 99 284 L 152 284 L 152 309.214844 L 99 309.214844 Z M 99 284 "/></clipPath><clipPath id="ad7128b96c"><path d="M 119 65.464844 L 283 65.464844 L 283 159 L 119 159 Z M 119 65.464844 "/></clipPath></defs><g id="748d89ab47"><path style=" stroke:none;fill-rule:evenodd;fill:#5b9940;fill-opacity:1;" d="M 278.089844 272.96875 C 263.046875 272.96875 250.722656 260.824219 250.722656 245.421875 C 250.722656 230.199219 263.046875 217.875 278.089844 217.875 C 293.128906 217.875 305.816406 230.199219 305.816406 245.421875 C 305.816406 260.824219 293.492188 272.96875 278.089844 272.96875 Z M 278.089844 226.9375 C 267.941406 226.9375 259.601562 235.089844 259.601562 245.601562 C 259.601562 256.292969 267.941406 264.449219 278.089844 264.449219 C 288.417969 264.449219 296.9375 256.292969 296.9375 245.601562 C 296.9375 235.089844 288.417969 226.9375 278.089844 226.9375 Z M 278.089844 226.9375 "/><g clip-rule="nonzero" clip-path="url(#98f408fc86)"><path style=" stroke:none;fill-rule:evenodd;fill:#5b9940;fill-opacity:1;" d="M 288.960938 309.214844 L 267.394531 309.214844 C 264.859375 309.214844 262.867188 307.21875 262.867188 304.683594 L 262.867188 294.171875 C 259.785156 293.082031 257.066406 291.816406 254.347656 290.546875 L 247.097656 297.976562 C 245.285156 299.609375 242.566406 299.609375 240.753906 297.976562 L 225.351562 282.933594 C 224.625 282.027344 224.082031 280.761719 224.082031 279.855469 C 224.082031 278.765625 224.625 277.5 225.351562 276.773438 L 232.78125 269.523438 C 231.152344 266.804688 230.246094 263.726562 229.15625 261.007812 L 218.644531 261.007812 C 216.109375 261.007812 214.117188 259.011719 214.117188 256.476562 L 214.117188 234.910156 C 214.117188 232.371094 216.109375 230.378906 218.644531 230.378906 L 229.519531 230.378906 C 230.246094 227.660156 231.511719 224.582031 232.964844 221.863281 L 225.351562 214.25 C 224.625 213.523438 224.082031 212.257812 224.082031 211.351562 C 224.082031 210.261719 224.625 208.996094 225.351562 208.269531 L 240.753906 193.226562 C 242.566406 191.414062 245.285156 191.414062 247.097656 193.226562 L 254.527344 200.296875 C 257.246094 198.664062 260.148438 197.394531 263.046875 196.671875 L 263.046875 186.339844 C 263.046875 183.984375 265.039062 181.992188 267.578125 181.992188 L 289.144531 181.992188 C 291.679688 181.992188 293.675781 183.984375 293.675781 186.339844 L 293.675781 197.035156 C 296.753906 197.941406 299.472656 199.207031 302.191406 200.476562 L 309.621094 193.226562 C 311.253906 191.414062 313.972656 191.414062 315.785156 193.226562 L 330.824219 208.269531 C 331.550781 208.996094 332.09375 210.261719 332.09375 211.351562 C 332.09375 212.257812 331.550781 213.523438 330.824219 214.25 L 323.578125 221.5 C 325.027344 224.398438 326.292969 227.296875 327.382812 230.199219 L 337.710938 230.199219 C 340.25 230.199219 342.242188 232.191406 342.242188 234.730469 L 342.242188 256.292969 C 342.242188 258.832031 340.25 260.824219 337.710938 260.824219 L 327.382812 260.824219 C 326.292969 263.726562 325.027344 266.804688 323.9375 269.34375 L 331.1875 276.59375 C 331.914062 277.316406 332.457031 278.585938 332.457031 279.671875 C 332.457031 280.578125 331.914062 281.847656 331.1875 282.574219 L 316.144531 297.613281 C 314.332031 299.425781 311.617188 299.425781 309.804688 297.613281 L 302.554688 290.367188 C 300.015625 291.816406 296.9375 292.902344 294.035156 293.808594 L 294.035156 304.5 C 293.492188 307.21875 291.5 309.214844 288.960938 309.214844 Z M 271.925781 300.515625 L 284.613281 300.515625 L 284.613281 291.089844 C 284.613281 289.097656 285.882812 287.285156 287.875 286.921875 C 292.949219 285.652344 296.9375 283.839844 300.5625 281.667969 C 302.191406 280.398438 304.546875 280.578125 305.996094 282.027344 L 312.882812 288.554688 L 321.765625 279.671875 L 315.058594 272.96875 C 313.609375 271.519531 313.246094 269.34375 314.515625 267.53125 C 317.050781 263.726562 318.863281 259.558594 319.769531 255.207031 C 320.3125 253.214844 322.125 251.765625 324.121094 251.765625 L 333.363281 251.765625 L 333.363281 238.898438 L 324.121094 238.898438 C 322.125 238.898438 320.3125 237.445312 319.769531 235.453125 C 318.863281 231.105469 317.050781 227.117188 314.515625 223.128906 C 313.609375 221.316406 313.789062 219.144531 315.058594 217.511719 L 321.765625 210.808594 L 312.882812 201.746094 L 305.996094 208.269531 C 304.546875 209.71875 302.191406 210.082031 300.742188 208.996094 C 296.9375 206.820312 292.769531 205.007812 288.238281 203.738281 C 286.242188 203.195312 284.976562 201.5625 284.976562 199.570312 L 284.976562 190.148438 L 272.109375 190.148438 L 272.109375 199.570312 C 272.109375 201.5625 270.839844 203.195312 268.847656 203.738281 C 264.316406 204.828125 260.328125 206.457031 256.339844 208.996094 C 254.527344 210.082031 252.355469 209.71875 251.085938 208.269531 L 244.199219 201.5625 L 235.136719 210.445312 L 241.660156 217.148438 C 243.292969 218.601562 243.472656 220.59375 242.566406 222.40625 C 240.03125 226.574219 238.21875 230.921875 237.492188 234.910156 C 236.949219 236.902344 235.136719 238.351562 233.144531 238.351562 L 223.71875 238.351562 L 223.71875 251.21875 L 233.144531 251.21875 C 235.136719 251.21875 236.949219 252.671875 237.492188 254.664062 C 238.398438 259.011719 240.210938 263.179688 242.566406 266.988281 C 243.472656 268.800781 243.292969 270.972656 241.660156 272.242188 L 235.136719 278.765625 L 244.199219 287.828125 L 251.085938 281.121094 C 252.535156 279.671875 254.710938 279.3125 256.339844 280.398438 C 260.328125 282.933594 264.316406 284.566406 268.847656 285.652344 C 270.839844 286.195312 272.109375 287.828125 272.109375 289.820312 L 272.109375 300.515625 Z M 271.925781 300.515625 "/></g><path style=" stroke:none;fill-rule:evenodd;fill:#5b9940;fill-opacity:1;" d="M 153.042969 262.09375 C 150.503906 262.09375 148.511719 259.917969 148.511719 257.5625 C 148.511719 223.675781 156.847656 212.621094 164.097656 202.832031 C 169.714844 195.402344 173.882812 189.601562 173.882812 174.5625 C 173.882812 147.558594 151.773438 125.449219 124.769531 125.449219 C 97.585938 125.449219 75.476562 147.558594 75.476562 174.5625 C 75.476562 189.601562 79.828125 195.402344 85.261719 202.832031 C 92.511719 212.621094 100.847656 223.675781 100.847656 257.5625 C 100.847656 259.917969 98.855469 262.09375 96.316406 262.09375 C 93.78125 262.09375 91.789062 259.917969 91.789062 257.5625 C 91.789062 226.574219 84.71875 217.148438 78.015625 208.089844 C 72.578125 200.476562 66.414062 192.683594 66.414062 174.5625 C 66.414062 142.664062 92.332031 116.570312 124.40625 116.570312 C 156.667969 116.570312 182.402344 142.484375 182.402344 174.5625 C 182.402344 192.683594 176.78125 200.476562 170.984375 208.089844 C 164.097656 217.148438 157.210938 226.574219 157.210938 257.5625 C 157.574219 259.917969 155.578125 262.09375 153.042969 262.09375 Z M 153.042969 262.09375 "/><path style=" stroke:none;fill-rule:evenodd;fill:#5b9940;fill-opacity:1;" d="M 90.882812 187.246094 C 88.34375 187.246094 86.351562 185.253906 86.351562 182.714844 C 86.351562 157.34375 106.828125 136.683594 132.199219 136.683594 C 134.738281 136.683594 136.730469 138.679688 136.730469 141.214844 C 136.730469 143.753906 134.738281 145.746094 132.199219 145.746094 C 111.722656 145.746094 95.050781 162.238281 95.050781 182.898438 C 95.050781 185.253906 93.054688 187.246094 90.882812 187.246094 Z M 90.882812 187.246094 "/><path style=" stroke:none;fill-rule:evenodd;fill:#5b9940;fill-opacity:1;" d="M 167.722656 119.46875 C 166.996094 119.46875 166.089844 119.105469 165.367188 118.925781 C 163.371094 117.65625 162.648438 115.121094 163.734375 112.945312 L 171.164062 99.714844 C 172.433594 97.722656 174.96875 96.996094 177.144531 98.082031 C 179.140625 99.351562 180.042969 101.890625 178.957031 104.0625 L 171.347656 117.113281 C 170.621094 118.5625 169.171875 119.46875 167.722656 119.46875 Z M 167.722656 119.46875 "/><path style=" stroke:none;fill-rule:evenodd;fill:#5b9940;fill-opacity:1;" d="M 199.253906 151.003906 C 197.804688 151.003906 196.355469 150.277344 195.628906 148.828125 C 194.363281 146.832031 195.085938 143.933594 197.261719 142.664062 L 210.308594 135.234375 C 212.304688 133.964844 215.203125 134.691406 216.472656 137.046875 C 217.558594 139.042969 216.832031 141.757812 214.660156 143.027344 L 201.609375 150.457031 C 200.886719 150.820312 199.980469 151.003906 199.253906 151.003906 Z M 199.253906 151.003906 "/><path style=" stroke:none;fill-rule:evenodd;fill:#5b9940;fill-opacity:1;" d="M 81.820312 119.46875 C 80.371094 119.46875 78.738281 118.5625 78.015625 117.113281 L 70.582031 104.0625 C 69.316406 102.070312 70.039062 99.351562 72.214844 98.082031 C 74.207031 96.816406 77.109375 97.539062 78.195312 99.714844 L 85.808594 112.945312 C 87.074219 114.9375 86.351562 117.65625 83.996094 118.925781 C 83.269531 119.46875 82.542969 119.46875 81.820312 119.46875 Z M 81.820312 119.46875 "/><g clip-rule="nonzero" clip-path="url(#6591b9487c)"><path style=" stroke:none;fill-rule:evenodd;fill:#5b9940;fill-opacity:1;" d="M 50.46875 151.003906 C 49.742188 151.003906 48.835938 150.820312 48.113281 150.457031 L 35.0625 143.027344 C 33.070312 141.757812 32.34375 139.222656 33.25 137.046875 C 34.519531 134.871094 37.058594 134.148438 39.414062 135.234375 L 52.460938 142.664062 C 54.453125 143.933594 55.179688 146.472656 54.09375 148.828125 C 53.367188 150.097656 51.917969 151.003906 50.46875 151.003906 Z M 50.46875 151.003906 "/></g><path style=" stroke:none;fill-rule:evenodd;fill:#5b9940;fill-opacity:1;" d="M 161.921875 277.859375 C 159.386719 277.859375 157.390625 275.867188 157.390625 273.332031 C 157.390625 270.792969 159.386719 268.800781 161.921875 268.800781 C 163.734375 268.800781 165.183594 267.351562 165.183594 265.355469 C 165.183594 263.179688 163.734375 262.09375 161.921875 262.09375 L 87.621094 262.09375 C 85.625 262.09375 84.355469 263.542969 84.355469 265.355469 C 84.355469 267.351562 85.808594 268.800781 87.621094 268.800781 C 90.15625 268.800781 92.148438 270.792969 92.148438 273.332031 C 92.148438 275.867188 90.15625 277.859375 87.621094 277.859375 C 80.734375 277.859375 75.476562 272.242188 75.476562 265.539062 C 75.476562 258.832031 81.09375 253.394531 87.621094 253.394531 L 161.921875 253.394531 C 168.628906 253.394531 173.882812 259.011719 173.882812 265.539062 C 174.246094 272.242188 168.628906 277.859375 161.921875 277.859375 Z M 161.921875 277.859375 "/><path style=" stroke:none;fill-rule:evenodd;fill:#5b9940;fill-opacity:1;" d="M 161.921875 293.628906 L 87.621094 293.628906 C 80.734375 293.628906 75.476562 288.191406 75.476562 281.304688 C 75.476562 274.597656 81.09375 269.34375 87.621094 269.34375 L 161.921875 269.34375 C 168.628906 269.34375 173.882812 274.78125 173.882812 281.304688 C 174.246094 287.828125 168.628906 293.628906 161.921875 293.628906 Z M 87.621094 277.859375 C 85.625 277.859375 84.355469 279.3125 84.355469 281.121094 C 84.355469 283.117188 85.808594 284.566406 87.621094 284.566406 L 161.921875 284.566406 C 163.734375 284.566406 165.183594 283.117188 165.183594 281.121094 C 165.183594 279.128906 163.734375 277.859375 161.921875 277.859375 Z M 87.621094 277.859375 "/><g clip-rule="nonzero" clip-path="url(#e461892caf)"><path style=" stroke:none;fill-rule:evenodd;fill:#5b9940;fill-opacity:1;" d="M 130.570312 309.214844 L 119.152344 309.214844 C 108.097656 309.214844 99.035156 300.152344 99.035156 289.097656 C 99.035156 286.558594 101.210938 284.566406 103.566406 284.566406 C 106.105469 284.566406 108.097656 286.558594 108.097656 289.097656 C 108.097656 295.441406 113.171875 300.515625 119.515625 300.515625 L 130.75 300.515625 C 137.09375 300.515625 141.988281 295.441406 141.988281 289.097656 C 141.988281 286.558594 143.980469 284.566406 146.519531 284.566406 C 149.054688 284.566406 151.046875 286.558594 151.046875 289.097656 C 150.503906 300.152344 141.625 309.214844 130.570312 309.214844 Z M 130.570312 309.214844 "/></g><path style=" stroke:none;fill-rule:evenodd;fill:#5b9940;fill-opacity:1;" d="M 124.769531 262.09375 C 122.234375 262.09375 120.238281 259.917969 120.238281 257.5625 L 120.238281 212.800781 C 120.238281 211.351562 120.964844 209.71875 122.414062 208.996094 L 139.992188 199.027344 C 141.988281 197.757812 144.886719 198.484375 146.15625 200.476562 C 147.242188 202.46875 146.519531 205.1875 144.523438 206.457031 L 129.300781 215.335938 L 129.300781 257.746094 C 129.300781 259.917969 127.308594 262.09375 124.769531 262.09375 Z M 124.769531 262.09375 "/><path style=" stroke:none;fill-rule:evenodd;fill:#5b9940;fill-opacity:1;" d="M 124.769531 217.148438 C 124.046875 217.148438 123.140625 216.789062 122.414062 216.605469 L 105.199219 206.457031 C 103.203125 205.1875 102.296875 202.46875 103.566406 200.476562 C 104.835938 198.484375 107.734375 197.757812 109.730469 199.027344 L 126.945312 208.996094 C 128.9375 210.261719 129.664062 212.980469 128.578125 214.976562 C 127.671875 216.242188 126.21875 217.148438 124.769531 217.148438 Z M 124.769531 217.148438 "/><g clip-rule="nonzero" clip-path="url(#ad7128b96c)"><path style=" stroke:none;fill-rule:evenodd;fill:#5b9940;fill-opacity:1;" d="M 278.089844 158.976562 C 275.550781 158.976562 273.558594 156.984375 273.558594 154.625 L 273.558594 87.574219 C 273.558594 80.140625 267.578125 74.160156 260.328125 74.160156 L 142.53125 74.160156 C 135.101562 74.160156 128.9375 80.140625 128.9375 87.574219 L 128.9375 121.460938 C 128.9375 123.816406 126.945312 125.992188 124.40625 125.992188 C 122.050781 125.992188 119.878906 123.816406 119.878906 121.460938 L 119.878906 87.574219 C 119.878906 75.25 130.027344 65.464844 142.351562 65.464844 L 260.148438 65.464844 C 272.289062 65.464844 282.257812 75.25 282.257812 87.574219 L 282.257812 154.808594 C 282.621094 156.984375 280.625 158.976562 278.089844 158.976562 Z M 278.089844 158.976562 "/></g><path style=" stroke:none;fill-rule:evenodd;fill:#5b9940;fill-opacity:1;" d="M 278.089844 158.976562 C 277.183594 158.976562 275.914062 158.613281 275.1875 157.890625 L 253.621094 136.140625 C 251.8125 134.511719 251.8125 131.609375 253.621094 129.980469 C 255.253906 128.167969 258.152344 128.167969 259.785156 129.980469 L 278.089844 148.285156 L 296.390625 129.980469 C 298.203125 128.167969 300.921875 128.167969 302.734375 129.980469 C 304.546875 131.609375 304.546875 134.511719 302.734375 136.140625 L 281.167969 157.890625 C 280.445312 158.613281 279.355469 158.976562 278.089844 158.976562 Z M 278.089844 158.976562 "/></g></svg>